<?xml version="1.0" standalone="no"?>
<!DOCTYPE svg PUBLIC "-//W3C//DTD SVG 1.1//EN" "http://www.w3.org/Graphics/SVG/1.1/DTD/svg11.dtd" >
<svg xmlns="http://www.w3.org/2000/svg" xmlns:xlink="http://www.w3.org/1999/xlink" version="1.1">
<metadata>
Created by FontForge 20161003 at Sat Nov 25 04:51:09 2017
 By www-data
Copyright (c) 2012 by Bruno Mello. All rights reserved.
</metadata>
<defs>
<font id="SVN-KelsonSans" horiz-adv-x="524" >
  <font-face 
    font-family="SVN-Kelson Sans"
    font-weight="400"
    font-stretch="normal"
    units-per-em="1000"
    panose-1="2 0 5 0 0 0 0 0 0 0"
    ascent="750"
    descent="-250"
    x-height="581"
    cap-height="769"
    bbox="-133 -252.333 1109 1113"
    underline-thickness="50"
    underline-position="-150"
    unicode-range="U+000D-FB02"
  />
<missing-glyph horiz-adv-x="628" 
d="M42 773h538v-773h-538v773zM157 504h71q0 54 19.5 75t70.5 21q47 0 67 -25.5t21 -89.5v-1q0 -34 -11 -56.5t-27 -32t-35.5 -21.5t-35.5 -24.5t-27 -41t-11 -71.5h72q0 39 15.5 62t37.5 34.5t44 25t37.5 44.5t15.5 82v2q0 182 -161 182q-52 0 -86.5 -13.5t-50 -39t-21 -51
t-5.5 -61.5zM250 145q0 -28 22.5 -39t45 1t22.5 38q0 28 -22.5 39t-45 -0.5t-22.5 -38.5z" />
    <glyph glyph-name=".notdef" horiz-adv-x="628" 
d="M42 773h538v-773h-538v773zM157 504h71q0 54 19.5 75t70.5 21q47 0 67 -25.5t21 -89.5v-1q0 -34 -11 -56.5t-27 -32t-35.5 -21.5t-35.5 -24.5t-27 -41t-11 -71.5h72q0 39 15.5 62t37.5 34.5t44 25t37.5 44.5t15.5 82v2q0 182 -161 182q-52 0 -86.5 -13.5t-50 -39t-21 -51
t-5.5 -61.5zM250 145q0 -28 22.5 -39t45 1t22.5 38q0 28 -22.5 39t-45 -0.5t-22.5 -38.5z" />
    <glyph glyph-name=".null" horiz-adv-x="0" 
 />
    <glyph glyph-name="nonmarkingreturn" horiz-adv-x="333" 
 />
    <glyph glyph-name="CR" unicode="&#xd;" horiz-adv-x="268" 
 />
    <glyph glyph-name="space" unicode=" " horiz-adv-x="251" 
 />
    <glyph glyph-name="exclam" unicode="!" horiz-adv-x="228" 
d="M165 166h-95v607h95v-607zM60 49q0 35 29 49.5t57.5 0.5t28.5 -50q0 -34 -28.5 -48.5t-57.5 -1t-29 49.5z" />
    <glyph glyph-name="quotedbl" unicode="&#x22;" horiz-adv-x="265" 
d="M111 589h-73l-3 183h79zM238 589h-73l-3 183h79z" />
    <glyph glyph-name="numbersign" unicode="#" horiz-adv-x="731" 
d="M85 436l21 84h124l62 253h83l-62 -253h175l62 253h83l-62 -253h135l-21 -84h-135l-33 -134h135l-21 -84h-134l-54 -220h-84l54 220h-175l-54 -220h-83l54 220h-123l21 84h123l33 134h-124zM292 436l-33 -134h175l33 134h-175z" />
    <glyph glyph-name="dollar" unicode="$" horiz-adv-x="552" 
d="M331 -105h-89v103q-189 17 -198 206h103q4 -54 34 -84.5t99 -30.5h19q74 0 99.5 33t25.5 106q0 44 -11.5 71t-40.5 40t-49.5 16.5t-67.5 7.5q-2 0 -3 0.5t-3 0.5h-4q-37 3 -68.5 13.5t-61 32.5t-46.5 60.5t-17 91.5q0 100 45.5 154t144.5 62v97h89v-99q161 -21 170 -195
h-99q-4 53 -30 80.5t-93 27.5q-75 0 -101.5 -31t-26.5 -95q0 -16 3 -29t7 -23t13 -18.5t15.5 -14t20.5 -10t21.5 -7t26 -5t26 -3.5t29 -3t28.5 -3q181 -18 181 -214q0 -117 -45 -173t-146 -63v-102z" />
    <glyph glyph-name="percent" unicode="%" horiz-adv-x="787" 
d="M599 0q-75 0 -110.5 36t-35.5 112v86q0 148 146 148q76 0 112 -36t36 -112v-86q0 -76 -36 -112t-112 -36zM599 73q38 0 52.5 19.5t14.5 59.5v80q0 40 -14 58.5t-53 18.5q-37 0 -51.5 -19t-14.5 -58v-80q0 -40 14.5 -59.5t51.5 -19.5zM458 779h72l-225 -793h-74zM176 395
q-75 0 -110.5 36t-35.5 112v86q0 148 146 148q76 0 112 -36t36 -112v-86q0 -76 -36 -112t-112 -36zM176 468q38 0 52.5 19.5t14.5 59.5v80q0 40 -14 58.5t-53 18.5q-37 0 -51.5 -19t-14.5 -58v-80q0 -40 14.5 -59.5t51.5 -19.5z" />
    <glyph glyph-name="ampersand" unicode="&#x26;" horiz-adv-x="611" 
d="M567 88l-2 -99q-50 0 -78.5 17.5t-46.5 62.5q-56 -81 -154 -81q-110 0 -172 55t-61 173q0 131 120 196q-90 59 -90 161q0 93 56.5 151t147.5 58q98 0 151 -52.5t47 -149.5h-87q6 115 -111 115q-47 0 -79 -33t-32 -88q0 -47 32 -83t79 -36h295v-84h-93v-165
q0 -118 78 -118zM396 207v164h-110q-58 0 -98.5 -44.5t-40.5 -114.5q0 -40 13.5 -68.5t35.5 -42.5t44 -19.5t46 -5.5q47 0 78.5 39t31.5 92z" />
    <glyph glyph-name="quotesingle" unicode="'" horiz-adv-x="147" 
d="M111 589h-73l-3 183h79z" />
    <glyph glyph-name="parenleft" unicode="(" horiz-adv-x="258" 
d="M155 585v-512q0 -53 16 -79t64 -26v-98q-177 0 -177 202v514q0 202 177 202v-98q-48 0 -64 -26t-16 -79z" />
    <glyph glyph-name="parenright" unicode=")" horiz-adv-x="267" 
d="M111 73v512q0 53 -16 79t-64 26v98q177 0 177 -202v-514q0 -202 -177 -202v98q48 0 64 26t16 79z" />
    <glyph glyph-name="asterisk" unicode="*" horiz-adv-x="320" 
d="M300 588l-79 -79l-46 75l-21 1l-46 -75l-78 78l73 46l1 21l-75 46l79 79l45 -74l22 -2l46 76l79 -78l-75 -46l-1 -21z" />
    <glyph glyph-name="plus" unicode="+" horiz-adv-x="453" 
d="M415 400v-78h-148v-154h-87v154h-147v78h147v150h87v-150h148z" />
    <glyph glyph-name="comma" unicode="," horiz-adv-x="189" 
d="M30 -152l-30 49q39 29 49.5 63t10.5 96h83q0 -84 -25.5 -129.5t-87.5 -78.5z" />
    <glyph glyph-name="hyphen" unicode="-" horiz-adv-x="493" 
d="M437 344v-87h-376v87h376z" />
    <glyph glyph-name="period" unicode="." horiz-adv-x="201" 
d="M50 49q0 35 29 49.5t57.5 0.5t28.5 -50q0 -34 -28.5 -48.5t-57.5 -1t-29 49.5z" />
    <glyph glyph-name="slash" unicode="/" horiz-adv-x="372" 
d="M249 770h80l-209 -771h-80z" />
    <glyph glyph-name="zero" unicode="0" horiz-adv-x="516" 
d="M264 77q56 0 82.5 30t26.5 106v349q0 75 -26 100.5t-83 25.5q-60 0 -88.5 -26t-28.5 -100v-349q0 -78 26 -107t91 -29zM264 -10q-113 0 -162.5 52t-49.5 171v349q0 210 212 210q204 0 204 -210v-349q0 -119 -48 -171t-156 -52z" />
    <glyph glyph-name="one" unicode="1" horiz-adv-x="379" 
d="M24 0v81h125v606h-98v85h193v-691h119v-81h-339z" />
    <glyph glyph-name="two" unicode="2" horiz-adv-x="514" 
d="M50 0v152q0 66 18 116.5t46.5 79.5t63.5 51t70 38.5t63.5 34t46.5 45t18 64.5q0 57 -28.5 85t-88.5 28q-115 0 -115 -129h-95q0 109 56.5 162.5t157.5 53.5q99 0 154 -49.5t55 -149.5q0 -56 -18 -96.5t-46.5 -63t-63 -40t-69.5 -34.5t-63.5 -39t-46.5 -61.5t-18 -94.5
v-59h319v-94h-416z" />
    <glyph glyph-name="three" unicode="3" horiz-adv-x="518" 
d="M40 218h93q0 -69 26.5 -99t89.5 -30q64 0 95 32t31 107q0 146 -134 146h-55v84h55q46 2 88.5 39t42.5 88q0 53 -29.5 82t-85.5 29q-118 0 -118 -129h-90q0 210 209 213q92 0 149 -50t57 -146q0 -51 -25 -98.5t-78 -69.5q59 -23 86.5 -66t27.5 -121q0 -110 -57.5 -171.5
t-167.5 -61.5q-113 0 -161.5 54t-48.5 168z" />
    <glyph glyph-name="four" unicode="4" horiz-adv-x="547" 
d="M326 167h-314l-14 77l334 529h89v-519h68v-87h-68v-167h-95v167zM326 254v351l-217 -351h217z" />
    <glyph glyph-name="five" unicode="5" horiz-adv-x="519" 
d="M40 228h94q0 -143 121 -143q129 0 129 155v27q0 85 -25 113.5t-97 28.5h-209v362h401v-89h-308v-183h118q119 0 167 -52.5t48 -177.5v-30q0 -124 -60.5 -185t-163.5 -61t-159 54.5t-56 180.5z" />
    <glyph glyph-name="six" unicode="6" horiz-adv-x="546" 
d="M420 773l2 -7q-171 -118 -223 -219q46 12 103 12q90 0 140.5 -50.5t50.5 -153.5v-142q0 -120 -50.5 -171.5t-168.5 -51.5t-168.5 51.5t-50.5 171.5v142q0 131 67 239t172 179h126zM274 81q67 0 95.5 27.5t28.5 104.5v142q0 70 -28.5 96t-95.5 26t-95.5 -26t-28.5 -96
v-142q0 -77 28.5 -104.5t95.5 -27.5z" />
    <glyph glyph-name="seven" unicode="7" horiz-adv-x="450" 
d="M429 772v-23l-260 -749h-103l240 682h-293v90h416z" />
    <glyph glyph-name="eight" unicode="8" horiz-adv-x="548" 
d="M269 -9q-117 0 -173 58t-56 181q0 86 21.5 131.5t66.5 70.5q-73 47 -73 151q0 95 57.5 148.5t156.5 53.5q102 0 156.5 -57.5t54.5 -146.5q0 -95 -73 -145q48 -26 69.5 -70t21.5 -131q0 -126 -56.5 -185t-172.5 -59zM269 82q69 0 96 37t27 114q0 78 -27 118.5t-96 41.5
q-69 -1 -96 -41.5t-27 -118.5q0 -77 27 -114t96 -37zM150 580q0 -49 32.5 -76.5t85.5 -27.5q114 0 114 104q0 113 -113 113q-59 0 -89 -30t-30 -83z" />
    <glyph glyph-name="nine" unicode="9" horiz-adv-x="546" 
d="M132 0l-2 7q165 114 219 219q-46 -12 -103 -12q-90 0 -140.5 50.5t-50.5 153.5v142q0 120 50.5 171.5t168.5 51.5t168.5 -51.5t50.5 -171.5v-142q0 -132 -64 -240t-168 -178h-129zM274 692q-67 0 -95.5 -27.5t-28.5 -104.5v-142q0 -70 28.5 -96t95.5 -26t95.5 26t28.5 96
v142q0 77 -28.5 104.5t-95.5 27.5z" />
    <glyph glyph-name="colon" unicode=":" horiz-adv-x="209" 
d="M50 49q0 35 29 49.5t57.5 0.5t28.5 -50q0 -34 -28.5 -48.5t-57.5 -1t-29 49.5zM50 425q0 35 29 49.5t57.5 0.5t28.5 -50q0 -34 -28.5 -48.5t-57.5 -1t-29 49.5z" />
    <glyph glyph-name="semicolon" unicode=";" horiz-adv-x="223" 
d="M57 425q0 26 18 41t39.5 15.5t39.5 -14.5t18 -42q0 -34 -29 -48.5t-57.5 -1t-28.5 49.5zM44 -152l-30 49q39 29 49.5 63t10.5 96h83q0 -84 -25.5 -129.5t-87.5 -78.5z" />
    <glyph glyph-name="less" unicode="&#x3c;" horiz-adv-x="384" 
d="M269 535l52 -56l-176 -163l179 -162l-55 -57l-219 205v28z" />
    <glyph glyph-name="equal" unicode="=" horiz-adv-x="570" 
d="M78 458h414v-77h-414v77zM78 247h414v-77h-414v77z" />
    <glyph glyph-name="greater" unicode="&#x3e;" horiz-adv-x="386" 
d="M336 330v-28l-220 -205l-54 54l179 165l-177 165l52 54z" />
    <glyph glyph-name="question" unicode="?" horiz-adv-x="490" 
d="M122 581h-92q0 50 7 84t27.5 65t63.5 46.5t110 15.5q202 0 202 -232v-44q0 -47 -10.5 -83t-27.5 -57t-37 -38t-40.5 -32t-37.5 -31.5t-27.5 -44t-10.5 -63.5h-90q0 47 10.5 82t26.5 56t36 37.5t40 31t36 31.5t26.5 45t10.5 65v42q-1 80 -27 112.5t-85 32.5q-65 0 -88 -25
t-23 -96zM153 49q0 26 18 41t39.5 15.5t39.5 -14.5t18 -42q0 -34 -29 -48.5t-57.5 -1t-28.5 49.5z" />
    <glyph glyph-name="at" unicode="@" horiz-adv-x="683" 
d="M336 295q50 0 50 68v130h-51q-52 0 -52 -55v-83q0 -60 53 -60zM418 678h-161q-71 0 -95 -27.5t-24 -87.5v-356q0 -60 24 -87.5t95 -27.5h256v-93h-286q-58 0 -95 12t-55.5 37t-25 54t-6.5 74v367q0 65 8.5 105.5t33 70t68 42t113.5 12.5h144q70 0 114 -12.5t69 -42
t34 -70t9 -105.5v-193q0 -92 -36.5 -124.5t-97.5 -32.5q-68 0 -94 61q-13 -14 -21.5 -21t-28.5 -15t-45 -8q-58 0 -90 32t-32 92v120q0 58 41.5 90.5t100.5 32.5h141v-233q0 -24 1 -35.5t9 -22.5t24 -11q20 0 26.5 15.5t6.5 51.5v204q0 78 -23.5 105t-101.5 27z" />
    <glyph glyph-name="A" unicode="A" 
d="M515 0h-98l-39 143h-231l-39 -143h-99l205 769h97zM313 397l-51 248l-52 -251l-39 -161h182z" />
    <glyph glyph-name="B" unicode="B" horiz-adv-x="573" 
d="M60 -1v775h194q100 0 154.5 -54t54.5 -146q0 -89 -55 -145q63 -19 96 -69.5t33 -124.5q0 -236 -249 -236h-228zM157 90h133q83 0 116.5 36.5t33.5 107.5q0 70 -38 100.5t-109 30.5h-136v-275zM254 685h-99v-229h89q63 0 92.5 34.5t29.5 83.5q0 54 -31 82.5t-81 28.5z" />
    <glyph glyph-name="C" unicode="C" horiz-adv-x="590" 
d="M546 554h-93q-1 75 -29 105t-119 30q-50 0 -80 -8.5t-45.5 -31.5t-20 -51.5t-4.5 -78.5v-264q0 -97 28.5 -133.5t121.5 -36.5q96 0 123 29t27 122h91q0 -43 -2.5 -70.5t-10 -58t-23.5 -48.5t-42.5 -34t-67 -23t-95.5 -7q-56 0 -96.5 7t-67.5 23.5t-43.5 36t-25 52t-11 64
t-2.5 78.5v262q0 68 9.5 112.5t36 80t75.5 51.5t125 16q74 0 121.5 -13.5t73.5 -43.5t35.5 -68.5t10.5 -98.5z" />
    <glyph glyph-name="D" unicode="D" horiz-adv-x="601" 
d="M166 91h132q54 0 85 8t46 31t19 49.5t4 78.5v256q0 52 -4 78.5t-19 49.5t-46 31t-85 8h-132v-590zM298 0h-227v771h234q76 0 124.5 -16t74.5 -51t35 -79t9 -112v-254q0 -68 -9.5 -112.5t-36 -80t-76.5 -51.5t-128 -15z" />
    <glyph glyph-name="E" unicode="E" horiz-adv-x="521" 
d="M70 772h389v-84h-294v-232h266v-89h-266v-278h319v-89h-414v772z" />
    <glyph glyph-name="F" unicode="F" horiz-adv-x="515" 
d="M483 683h-319v-236h277v-89h-277v-359h-95v772h414v-88z" />
    <glyph glyph-name="G" unicode="G" horiz-adv-x="611" 
d="M554 564h-93q-1 48 -12.5 74t-45 41t-96.5 15q-93 0 -123.5 -37.5t-30.5 -135.5v-270q0 -52 4 -79t19 -50.5t46 -32t85 -8.5q55 0 85 5.5t46 25t19.5 44.5t3.5 76v105h-150v86h246v-191q0 -51 -3.5 -83t-17.5 -65t-40.5 -51t-73.5 -29.5t-115 -11.5q-78 0 -128 16
t-76.5 51.5t-36 80t-9.5 112.5v268q0 68 9.5 112.5t36 80t76.5 51.5t128 16q100 0 153.5 -23.5t72.5 -67.5t21 -125z" />
    <glyph glyph-name="H" unicode="H" horiz-adv-x="589" 
d="M520 0h-95v323h-258v-324h-97v770h97v-355h258v355h95v-769z" />
    <glyph glyph-name="I" unicode="I" horiz-adv-x="237" 
d="M167 -1h-97v770h97v-770z" />
    <glyph glyph-name="J" unicode="J" horiz-adv-x="483" 
d="M215 -6q-120 0 -163.5 58t-43.5 179h90q0 -81 24.5 -113.5t94.5 -32.5q71 0 90.5 35.5t19.5 134.5v517h96v-516q0 -69 -8 -113.5t-29.5 -80t-63.5 -52t-107 -16.5z" />
    <glyph glyph-name="K" unicode="K" horiz-adv-x="564" 
d="M560 0h-117l-246 332h-37v-332h-95v771h95v-340h37l230 340h112l-266 -386z" />
    <glyph glyph-name="L" unicode="L" horiz-adv-x="491" 
d="M467 0h-397v771h96v-683h301v-88z" />
    <glyph glyph-name="M" unicode="M" horiz-adv-x="629" 
d="M179 772l136 -424l136 424h109v-772h-95v363l14 211l-141 -433h-46l-141 433l14 -211v-363h-95v772h109z" />
    <glyph glyph-name="N" unicode="N" horiz-adv-x="570" 
d="M159 771l261 -590l-14 262v328h95v-771h-89l-254 554l6 -253v-301h-95v771h90z" />
    <glyph glyph-name="O" unicode="O" horiz-adv-x="621" 
d="M559 522v-269q0 -68 -9.5 -112.5t-36 -80t-76.5 -51.5t-128 -16t-128 16t-76.5 51.5t-36 80t-9.5 112.5v269q0 68 9.5 112.5t36 80t76.5 51.5t128 16t128 -16t76.5 -51.5t36 -80t9.5 -112.5zM463 252v271q0 42 -2 65.5t-10.5 47t-25 34.5t-45 18t-71.5 7t-71.5 -7
t-45 -18t-25 -34.5t-10.5 -47t-2 -65.5v-271q0 -52 4 -79t19 -50.5t46 -32t85 -8.5t85 8.5t46 32t19 50.5t4 79z" />
    <glyph glyph-name="P" unicode="P" horiz-adv-x="538" 
d="M70 771l207 1q107 0 163 -49t56 -161v-84q0 -120 -50.5 -171.5t-168.5 -51.5h-112v-256h-95v772zM277 682h-112v-336h112q67 0 95.5 27.5t28.5 104.5v84q0 74 -26.5 95t-97.5 25z" />
    <glyph glyph-name="Q" unicode="Q" horiz-adv-x="619" 
d="M559 521v-263q0 -111 -29.5 -170t-113.5 -79q4 -58 33 -85.5t101 -18.5v-85q-223 -18 -229 178h-12q-78 0 -128 16t-76.5 51.5t-36 80t-9.5 112.5v263q0 68 9.5 112.5t36 80t76.5 51.5t128 16t128 -16t76.5 -51.5t36 -80t9.5 -112.5zM463 257v265q0 52 -4 79t-19 50.5
t-46 32t-85 8.5t-85 -8.5t-46 -32t-19 -50.5t-4 -79v-265q0 -52 4 -79t19 -50.5t46 -32t85 -8.5t85 8.5t46 32t19 50.5t4 79z" />
    <glyph glyph-name="R" unicode="R" horiz-adv-x="540" 
d="M496 508q0 -96 -33 -149t-111 -68l167 -291h-112l-155 285h-87v-286h-95v773l207 1q106 0 162.5 -49.5t56.5 -161.5v-54zM277 682h-112v-306h112q67 0 95.5 27.5t28.5 104.5v54q0 74 -26.5 95t-97.5 25z" />
    <glyph glyph-name="S" unicode="S" horiz-adv-x="567" 
d="M501 581h-99q-4 53 -30 80.5t-93 27.5q-75 0 -101.5 -31t-26.5 -95q0 -16 3 -29t7 -23t13 -18.5t15.5 -14t20.5 -10t21.5 -7t26 -5t26 -3.5t29 -3t28.5 -3q181 -18 181 -214q0 -125 -51.5 -181t-170.5 -56h-19q-226 0 -237 208h103q4 -54 34 -84.5t99 -30.5h19
q74 0 99.5 33t25.5 106q0 44 -11.5 71t-40.5 40t-49.5 16.5t-67.5 7.5q-2 0 -3 0.5t-3 0.5h-4q-37 3 -68.5 13.5t-61 32.5t-46.5 60.5t-17 91.5q0 110 54 163.5t173 53.5q112 0 164.5 -50t57.5 -148z" />
    <glyph glyph-name="T" unicode="T" horiz-adv-x="431" 
d="M423 679h-160v-679h-95v679h-160v88h415v-88z" />
    <glyph glyph-name="U" unicode="U" horiz-adv-x="602" 
d="M440 253v519h96v-518q0 -133 -52.5 -196.5t-184.5 -63.5t-185.5 63.5t-53.5 196.5v517h96v-518q0 -96 28.5 -133t114.5 -37t113.5 37t27.5 133z" />
    <glyph glyph-name="V" unicode="V" horiz-adv-x="523" 
d="M184 485l78 -339l77 340l77 286h98l-209 -773h-87l-209 773h98z" />
    <glyph glyph-name="W" unicode="W" horiz-adv-x="816" 
d="M237 158l132 572h74l132 -572l56 288l74 326h98l-184 -773h-87l-65 259l-61 277l-61 -277l-65 -259h-87l-184 773h98l74 -326z" />
    <glyph glyph-name="X" unicode="X" horiz-adv-x="488" 
d="M177 626l67 -173l67 172l64 147h104l-169 -384l169 -389h-104l-42 96l-89 226l-88 -225l-43 -97h-104l169 389l-169 384h104z" />
    <glyph glyph-name="Y" unicode="Y" horiz-adv-x="461" 
d="M163 622l68 -192l68 192l62 150h103l-186 -449v-324h-95v324l-185 449h103z" />
    <glyph glyph-name="Z" unicode="Z" horiz-adv-x="470" 
d="M457 772l-308 -685h297v-87h-432l308 688h-267v84h402z" />
    <glyph glyph-name="bracketleft" unicode="[" horiz-adv-x="332" 
d="M91 775h208v-75h-124v-733h124v-76h-208v884z" />
    <glyph glyph-name="backslash" unicode="\" horiz-adv-x="372" 
d="M45 770h80l209 -771h-80z" />
    <glyph glyph-name="bracketright" unicode="]" horiz-adv-x="341" 
d="M250 -106h-208v76h124v733h-124v75h208v-884z" />
    <glyph glyph-name="asciicircum" unicode="^" horiz-adv-x="619" 
d="M55 432l-1 5l216 338h61l219 -338l-1 -5h-90l-158 252l-159 -252h-87z" />
    <glyph glyph-name="underscore" unicode="_" horiz-adv-x="538" 
d="M35 -9h470v-80h-470v80z" />
    <glyph glyph-name="grave" unicode="`" horiz-adv-x="245" 
d="M99 641l-71 129v3h97l53 -127v-5h-79z" />
    <glyph glyph-name="a" unicode="a" 
d="M461 395v-395h-86l-8 79q-17 -35 -57.5 -59.5t-91.5 -24.5q-160 0 -174 140q-7 77 41.5 129t138.5 65q45 7 141 9v57q0 54 -24.5 81.5t-86.5 27.5q-45 0 -69 -21.5t-23 -76.5h-93q-3 95 45 140t143 45q100 0 152 -46.5t52 -149.5zM367 259q-90 0 -135 -10
q-102 -22 -92 -102q5 -61 88 -61q134 0 139 173z" />
    <glyph glyph-name="b" unicode="b" horiz-adv-x="548" 
d="M151 368l-1 -155q0 -76 29.5 -104t94.5 -28t94.5 28t29.5 104v151q0 79 -28.5 107.5t-95.5 28.5q-58 0 -90 -29t-33 -103zM493 366v-153q0 -120 -50.5 -171.5t-168.5 -51.5t-168.5 51.5t-50.5 171.5v574h96v-255q40 59 138 59q107 0 155.5 -56.5t48.5 -168.5z" />
    <glyph glyph-name="c" unicode="c" horiz-adv-x="528" 
d="M393 198h90q-1 -115 -50 -161.5t-164 -46.5t-167 52.5t-52 170.5v166q0 213 219 213q103 0 156.5 -44t57.5 -152l-90 -1q-3 65 -32.5 87t-91.5 22q-65 0 -94.5 -25t-29.5 -100v-166q0 -76 29.5 -104t94.5 -28q66 0 94.5 23t29.5 94z" />
    <glyph glyph-name="d" unicode="d" horiz-adv-x="566" 
d="M489 782v-782h-80l-12 77q-13 -37 -53 -58.5t-92 -21.5q-198 0 -198 211v154q0 227 198 227q52 0 85 -10.5t56 -40.5v244h96zM393 365q0 74 -27.5 103t-92.5 29t-94.5 -30.5t-29.5 -106.5v-153q0 -69 27.5 -95t89.5 -26q64 2 95.5 36t31.5 117v126z" />
    <glyph glyph-name="e" unicode="e" horiz-adv-x="538" 
d="M391 170h92q0 -87 -51.5 -131.5t-162.5 -44.5q-117 0 -166.5 48.5t-49.5 165.5v171q0 110 55.5 159.5t160.5 49.5q216 0 216 -209v-125h-338v-44q0 -75 28 -101.5t94 -26.5q122 0 122 88zM147 379v-42h247v42q0 72 -31.5 98.5t-93.5 26.5t-92 -26t-30 -99z" />
    <glyph glyph-name="f" unicode="f" horiz-adv-x="320" 
d="M59 -1v564q0 117 63.5 171t173.5 44v-87q-71 7 -106.5 -20t-35.5 -108v-20h125v-88h-125v-456h-95z" />
    <glyph glyph-name="g" unicode="g" horiz-adv-x="532" 
d="M253 -3q-203 0 -203 201v177q0 211 198 211q52 0 91 -21t52 -59l12 74h79v-600q0 -115 -57 -169t-159 -54q-97 0 -148 40.5t-55 133.5h91q4 -49 32.5 -68t80.5 -19q62 0 94 30.5t32 105.5v96q-12 -32 -49 -55.5t-91 -23.5zM253 86q66 0 100 33.5t34 119.5v113
q-1 78 -31.5 110.5t-93.5 34.5q-62 0 -89.5 -26t-27.5 -95v-167q0 -66 27 -94.5t81 -28.5z" />
    <glyph glyph-name="h" unicode="h" horiz-adv-x="540" 
d="M485 0h-95v364q0 78 -26.5 107t-92.5 29q-60 0 -89.5 -31.5t-30.5 -100.5l-1 -368h-95v787h96v-255q41 60 133 60q108 0 154.5 -56.5t46.5 -169.5v-366z" />
    <glyph glyph-name="i" unicode="i" horiz-adv-x="240" 
d="M167 0h-95v581h95v-581zM63 690q0 26 18 41t39.5 15.5t39.5 -14.5t18 -42q0 -34 -29 -48.5t-57.5 -1t-28.5 49.5z" />
    <glyph glyph-name="j" unicode="j" horiz-adv-x="242" 
d="M173 580v-607q0 -92 -41.5 -131t-130.5 -31v85q17 -3 31 -1t25 8t17 23.5t6 46.5v607h93zM69 690q0 26 18 41t39.5 15.5t39.5 -14.5t18 -42q0 -34 -29 -48.5t-57.5 -1t-28.5 49.5z" />
    <glyph glyph-name="k" unicode="k" horiz-adv-x="510" 
d="M505 0h-114l-198 260h-43v-260h-95v772h95v-422h38l181 235h116l-214 -275z" />
    <glyph glyph-name="l" unicode="l" horiz-adv-x="253" 
d="M70 152v620h93v-619q0 -34 13.5 -46.5t46.5 -12.5v-94q-88 0 -120.5 31t-32.5 121z" />
    <glyph glyph-name="m" unicode="m" horiz-adv-x="922" 
d="M74 0v585h80l7 -64q49 71 150 71q119 0 160 -72q58 72 179 72q101 0 149.5 -47.5t48.5 -166.5v-378h-96v380q0 121 -114 121q-129 0 -129 -149v-352h-96v382q0 73 -28 97t-88 24q-58 0 -92.5 -29.5t-34.5 -92.5v-381h-96z" />
    <glyph glyph-name="n" unicode="n" horiz-adv-x="583" 
d="M79 0v585h85l6 -62q42 69 150 69q100 0 147 -48.5t47 -162.5v-381h-96v380q0 61 -30.5 93t-83.5 32q-57 0 -93 -32t-36 -92v-381h-96z" />
    <glyph glyph-name="o" unicode="o" horiz-adv-x="538" 
d="M269 73q67 0 95.5 31t28.5 109v167q0 75 -29.5 101t-94.5 26t-94.5 -26t-29.5 -101v-167q0 -78 29 -109t95 -31zM269 -10q-118 0 -168.5 51.5t-50.5 171.5v167q0 112 56.5 162t162.5 50t162.5 -50t56.5 -162v-167q0 -119 -51.5 -171t-167.5 -52z" />
    <glyph glyph-name="p" unicode="p" horiz-adv-x="562" 
d="M66 -197v782h80l12 -77q13 37 53 58.5t92 21.5q198 0 198 -211v-154q0 -227 -198 -227q-52 0 -85 10.5t-56 40.5v-244h-96zM162 220q0 -74 27.5 -103t92.5 -29t94.5 30.5t29.5 106.5v153q0 69 -27.5 95t-89.5 26q-64 -2 -95.5 -36t-31.5 -117v-126z" />
    <glyph glyph-name="q" unicode="q" horiz-adv-x="550" 
d="M395 216l1 155q0 76 -29.5 104t-94.5 28t-94.5 -28t-29.5 -104v-151q0 -79 28.5 -107.5t95.5 -28.5q58 0 90 29t33 103zM53 218v153q0 120 50.5 171.5t168.5 51.5t168.5 -51.5t50.5 -171.5v-574h-96v255q-40 -59 -138 -59q-107 0 -155.5 56.5t-48.5 168.5z" />
    <glyph glyph-name="r" unicode="r" horiz-adv-x="348" 
d="M319 585v-97q-72 12 -118 -18t-46 -95v-376h-95v586h87l4 -54q22 34 68.5 49.5t99.5 4.5z" />
    <glyph glyph-name="s" unicode="s" horiz-adv-x="488" 
d="M441 420h-91q0 86 -107 86q-105 0 -105 -93q0 -23 7.5 -37.5t24 -21.5t33.5 -9.5t44 -4.5h4t3.5 -0.5t4 -0.5h3.5q34 -3 55 -6.5t51 -13.5t47 -26.5t29.5 -46t12.5 -70.5q0 -89 -56.5 -135t-150.5 -46q-204 0 -212 186h96q7 -99 116 -99q53 0 82.5 25t29.5 68
q0 20 -8.5 34.5t-19.5 22t-32.5 13t-36.5 7t-43 3.5q-179 13 -179 158q0 81 52 130t151 49q100 0 148.5 -44.5t46.5 -127.5z" />
    <glyph glyph-name="t" unicode="t" horiz-adv-x="293" 
d="M64 161v526l93 11v-116h101v-90h-101v-328q0 -46 24 -64.5t81 -11.5v-88q-110 -12 -154 30t-44 131z" />
    <glyph glyph-name="u" unicode="u" horiz-adv-x="571" 
d="M501 581v-581h-85l-6 62q-42 -69 -150 -69q-100 0 -147 48.5t-47 162.5v377h96v-376q0 -61 30.5 -93t83.5 -32q57 0 93 32t36 92v377h96z" />
    <glyph glyph-name="v" unicode="v" horiz-adv-x="447" 
d="M102 585l60 -195q31 -105 62 -258q36 181 62 260l60 193h99l-173 -586h-96l-173 586h99z" />
    <glyph glyph-name="w" unicode="w" horiz-adv-x="743" 
d="M574 390l60 195h100l-168 -586h-95l-48 171l-52 227l-53 -230l-47 -168h-95l-168 586h100l60 -195q12 -40 21.5 -82.5t20.5 -103t14 -72.5q27 138 58 260l54 193h70l55 -193q26 -103 57 -260q3 12 14 72.5t20.5 103t21.5 82.5z" />
    <glyph glyph-name="x" unicode="x" horiz-adv-x="475" 
d="M360 0l-59 102l-65 123l-65 -124l-58 -101h-104l173 295l-167 288h107l55 -93l60 -116l62 117l54 92h104l-166 -287l176 -296h-107z" />
    <glyph glyph-name="y" unicode="y" horiz-adv-x="491" 
d="M175 397l75 -271q21 107 73 277l57 182h99l-183 -586l-35 -111q-28 -88 -79 -112t-134 10l17 81q18 -7 32 -10t30 0t28.5 17.5t21.5 41.5l24 83l-186 586h104z" />
    <glyph glyph-name="z" unicode="z" horiz-adv-x="486" 
d="M31 0v15l288 483h-261v87h402v-17l-284 -479h290v-89h-435z" />
    <glyph glyph-name="braceleft" unicode="{" horiz-adv-x="320" 
d="M298 -131l-1 -1q-99 -16 -140 20.5t-41 128.5v221q0 102 -75 102v63q75 0 75 102v180q0 92 42.5 129.5t138.5 19.5v-67q-58 11 -78.5 -6.5t-20.5 -78.5v-177q0 -29 -1 -43.5t-7 -36t-21.5 -34t-40.5 -19.5q26 -7 41.5 -20t21.5 -34.5t7 -35.5t1 -43v-218q0 -60 19 -75.5
t79 -7.5z" />
    <glyph glyph-name="bar" unicode="|" horiz-adv-x="263" 
d="M172 776v-879h-81v879h81z" />
    <glyph glyph-name="braceright" unicode="}" horiz-adv-x="339" 
d="M36 -132l-1 1l1 69q60 -8 79 7.5t19 75.5v218q0 29 1 43t7 35.5t21.5 34.5t41.5 20q-25 7 -40.5 19.5t-21.5 34t-7 36t-1 43.5v177q0 61 -20.5 78.5t-78.5 6.5v67q96 18 138.5 -19.5t42.5 -129.5v-180q0 -102 75 -102v-63q-75 0 -75 -102v-221q0 -92 -41 -128.5
t-140 -20.5z" />
    <glyph glyph-name="asciitilde" unicode="~" horiz-adv-x="646" 
d="M511 361l62 -24q-25 -71 -74 -97t-121 3l-129 63q-23 7 -43 9t-39.5 -14.5t-33.5 -52.5l-57 24q23 68 78.5 98t117.5 0l127 -62q75 -38 112 53z" />
    <glyph glyph-name="exclamdown" unicode="&#xa1;" horiz-adv-x="228" 
d="M69 425h95v-607h-95v607zM174 542q0 -35 -29 -49.5t-57.5 -0.5t-28.5 50q0 34 28.5 48.5t57.5 1t29 -49.5z" />
    <glyph glyph-name="cent" unicode="&#xa2;" horiz-adv-x="528" 
d="M311 -101h-91v94q-90 10 -130 62t-40 158v166q0 187 174 210v99h93v-98q88 -11 129.5 -53t41.5 -143h-95q0 67 -28 90t-96 23q-66 0 -95 -28.5t-29 -99.5v-166q0 -77 29 -105.5t95 -28.5q69 0 96.5 24t27.5 99h95q0 -106 -41.5 -154t-135.5 -56v-93z" />
    <glyph glyph-name="sterling" unicode="&#xa3;" horiz-adv-x="548" 
d="M500 589h-87q0 50 -25.5 77t-67.5 27q-46 0 -72 -29.5t-26 -86.5v-133h179v-92h-179v-262h281v-90h-470v91h96v261h-96v92h96v130q0 97 48.5 151.5t142.5 54.5q83 0 131.5 -49.5t48.5 -141.5z" />
    <glyph glyph-name="currency" unicode="&#xa4;" horiz-adv-x="540" 
d="M273 192q54 0 84 35.5t30 90.5q0 58 -30 93t-84 35q-52 0 -83 -38t-31 -90q0 -51 31 -88.5t83 -37.5zM176 135l-55 -60l-67 74l53 57q-27 50 -27 110t28 113l-53 58l66 75l55 -61q46 27 98 27q54 0 97 -27l56 61l66 -75l-52 -57q28 -50 28 -112q0 -59 -28 -112l52 -57
l-66 -74l-56 60q-44 -26 -98 -26q-51 0 -97 26z" />
    <glyph glyph-name="yen" unicode="&#xa5;" horiz-adv-x="506" 
d="M187 622l68 -192l68 192l62 150h103l-161 -387h89v-73h-114v-38h115v-71h-115v-204h-95v204h-110v71h110v38h-110v73h84l-159 387h103z" />
    <glyph glyph-name="brokenbar" unicode="&#xa6;" horiz-adv-x="270" 
d="M92 408v363h86v-363h-86zM178 337v-363h-86v363h86z" />
    <glyph glyph-name="section" unicode="&#xa7;" horiz-adv-x="500" 
d="M420 620h-82q2 38 -21 58t-72 20q-95 0 -98 -84q-1 -28 14 -42.5t31 -17.5t55 -6q7 -1 10 -1q30 -3 49 -6t45.5 -12t41.5 -23.5t25.5 -41.5t9.5 -64q-3 -77 -71 -120q72 -32 69 -114q-2 -80 -54.5 -121.5t-137.5 -41.5q-183 0 -186 168h87q3 -90 101 -90q48 0 75 23
t29 61q1 18 -6 31t-17.5 20t-29 11.5t-33 6.5t-38.5 3q-26 0 -52 8t-51 24t-40 47.5t-14 73.5q2 71 68 116q-31 10 -48.5 38.5t-16.5 69.5q2 73 50 117t137 44q90 0 133 -40.5t38 -114.5zM144 390q-1 -36 24 -55.5t70 -19.5q48 0 75 23t29 61q1 33 -28.5 52.5t-68.5 19.5
q-43 0 -71.5 -21t-29.5 -60z" />
    <glyph glyph-name="dieresis" unicode="&#xa8;" horiz-adv-x="445" 
d="M58 720q0 35 29 49.5t57.5 0.5t28.5 -50q0 -34 -28.5 -48.5t-57.5 -1t-29 49.5zM276 720q0 35 29 49.5t57.5 0.5t28.5 -50q0 -34 -29 -48.5t-57.5 -1t-28.5 49.5z" />
    <glyph glyph-name="copyright" unicode="&#xa9;" horiz-adv-x="842" 
d="M423 742v-1q169 1 264 -103t95 -254q0 -161 -93 -266.5t-266 -105.5q-174 0 -268 102t-94 262q0 71 23 135.5t66.5 117t114.5 83.5t158 30zM423 671q-139 0 -213.5 -82t-74.5 -215q0 -130 74.5 -212.5t213.5 -82.5t212 82.5t73 220.5q0 129 -74.5 209t-210.5 80zM506 312
h66q-1 -80 -36 -113t-114 -33t-116.5 37.5t-37.5 119.5v114q0 150 154 150q144 0 150 -138l-66 -1q-1 44 -21 59.5t-63 15.5q-45 0 -65 -17t-20 -69v-114q0 -53 20.5 -72.5t64.5 -19.5q46 0 65 15.5t19 65.5z" />
    <glyph glyph-name="ordfeminine" unicode="&#xaa;" horiz-adv-x="449" 
d="M64 285h329v-77h-329v77zM394 609v-252h-64l-10 62q-9 -26 -37.5 -45t-71.5 -19q-163 0 -163 161v93q0 86 47.5 126.5t127.5 40.5q171 0 171 -167zM318 609q0 55 -25 75.5t-70 20.5q-98 0 -98 -96v-84q0 -53 21.5 -76t64.5 -23q53 0 80 27.5t27 95.5v60z" />
    <glyph glyph-name="guillemotleft" unicode="&#xab;" horiz-adv-x="457" 
d="M187 517h88l-137 -220l137 -221h-88l-138 221zM180 297l138 220h88l-137 -220l137 -221h-88z" />
    <glyph glyph-name="logicalnot" unicode="&#xac;" horiz-adv-x="529" 
d="M446 178h-75v132h-293v75h368v-207z" />
    <glyph glyph-name="uni00AD" unicode="&#xad;" horiz-adv-x="473" 
d="M53 371h358v-78h-358v78z" />
    <glyph glyph-name="registered" unicode="&#xae;" horiz-adv-x="838" 
d="M421 724q169 0 266.5 -106t97.5 -264t-97.5 -264t-266.5 -106q-168 0 -265.5 106.5t-97.5 263.5q0 158 97.5 264t265.5 106zM135 354v2q0 -131 76.5 -216.5t209.5 -85.5q134 0 211 85.5t77 215.5q0 131 -77 216.5t-211 85.5q-133 0 -209.5 -86t-76.5 -217zM571 425
q0 -56 -19.5 -86.5t-64.5 -39.5l88 -152h-78l-81 139h-52v-139h-66v427h131q67 0 104.5 -28.5t37.5 -102.5v-18zM429 509h-65v-160h65q39 0 55.5 15.5t16.5 60.5v18q0 23 -3.5 36t-14.5 19t-21 8t-33 3z" />
    <glyph glyph-name="macron" unicode="&#xaf;" horiz-adv-x="385" 
d="M67 775h245v-74h-245v74z" />
    <glyph glyph-name="degree" unicode="&#xb0;" horiz-adv-x="326" 
d="M156 717q-28 0 -44 -18.5t-16.5 -40t15.5 -40t45 -18.5q28 0 43.5 18.5t15.5 40t-16 40t-43 18.5zM157 777q46 0 77.5 -24.5t39 -59t0.5 -69t-38.5 -59t-77.5 -24.5q-48 0 -80.5 24.5t-39.5 59t1 69t40 59t78 24.5z" />
    <glyph glyph-name="plusminus" unicode="&#xb1;" horiz-adv-x="497" 
d="M58 410h154v157h80v-157h154v-76h-154v-158h-80v158h-154v76zM62 110h381v-76h-381v76z" />
    <glyph glyph-name="twosuperior" unicode="&#xb2;" horiz-adv-x="317" 
d="M39 361v88q0 36 8.5 62.5t27.5 44t32 25.5t38 20q54 26 54 65q0 44 -43 44q-48 0 -44 -60h-68q-8 130 114 130q54 0 84 -29t30 -85q0 -50 -24 -77t-65 -46q-2 -1 -11.5 -5.5t-11.5 -5.5t-10 -5.5t-10.5 -7.5t-8 -8.5t-7.5 -11t-5 -13t-4 -16.5t-1 -20v-15h157v-74h-232z
" />
    <glyph glyph-name="threesuperior" unicode="&#xb3;" horiz-adv-x="312" 
d="M28 486h74q1 -60 48 -60q48 0 48 58q0 55 -48 55h-32v71h32q45 2 45 53q0 44 -43 44q-20 0 -33.5 -15t-13.5 -45h-72q0 66 29.5 97t90.5 32q53 0 85.5 -27.5t32.5 -85.5q0 -23 -12 -48.5t-34 -35.5q51 -22 51 -95q0 -62 -33 -96.5t-94 -34.5q-63 0 -92 33t-29 100z" />
    <glyph glyph-name="acute" unicode="&#xb4;" horiz-adv-x="245" 
d="M130 641h-76v5l53 127h94v-3z" />
    <glyph glyph-name="_181" unicode="&#xb5;" horiz-adv-x="543" 
d="M59 -221v1v801h99v-369q0 -137 117 -137q58 0 86.5 34t28.5 115v356h95v-580h-81l-10 55q-14 -38 -47 -59.5t-75 -21.5q-95 0 -120 69v-264h-93z" />
    <glyph glyph-name="paragraph" unicode="&#xb6;" horiz-adv-x="646" 
d="M329 678v-887h-99v466q-190 15 -188 256q2 260 214 260h364v-95h-87v-886h-97v886h-107z" />
    <glyph glyph-name="periodcentered" unicode="&#xb7;" horiz-adv-x="201" 
d="M47 331q0 26 18 41t39.5 15.5t39.5 -14.5t18 -42q0 -34 -29 -48.5t-57.5 -1t-28.5 49.5z" />
    <glyph glyph-name="cedilla" unicode="&#xb8;" horiz-adv-x="294" 
d="M82 -71l-2 -1l22 91h65l-11 -50q50 3 70 -32t13 -76q-9 -45 -42.5 -70.5t-77.5 -22.5q-65 4 -92 51l34 53q21 -36 60 -36t48 34q6 28 -16.5 44.5t-56.5 1.5z" />
    <glyph glyph-name="onesuperior" unicode="&#xb9;" horiz-adv-x="265" 
d="M38 359v64h64v287h-48v63h116v-350h60v-64h-192z" />
    <glyph glyph-name="ordmasculine" unicode="&#xba;" horiz-adv-x="437" 
d="M218 438q-74 0 -122.5 45.5t-48.5 124.5t48 123.5t122 44.5t122 -44.5t48 -122.5q0 -79 -48.5 -125t-120.5 -46zM218 509q43 0 69.5 27t26.5 72q0 44 -28 72.5t-69 28.5t-68 -28t-27 -72q0 -45 26.5 -72.5t69.5 -27.5zM65 375h306v-77h-306v77z" />
    <glyph glyph-name="guillemotright" unicode="&#xbb;" horiz-adv-x="457" 
d="M139 78h-87l136 220l-136 220h87l138 -220zM408 298l-138 -220h-87l136 220l-136 220h87z" />
    <glyph glyph-name="onequarter" unicode="&#xbc;" horiz-adv-x="757" 
d="M155 -2l370 776h80l-372 -776h-78zM598 83h-161l-9 53l162 269h82v-252h40v-70h-40v-84h-74v84zM599 153v65l10 96l-88 -161h78zM52 359v64h64v287h-48v63h116v-350h60v-64h-192z" />
    <glyph glyph-name="onehalf" unicode="&#xbd;" horiz-adv-x="811" 
d="M155 -2l370 776h80l-372 -776h-78zM52 359v64h64v287h-48v63h116v-350h60v-64h-192zM491 0v88q0 36 8.5 62.5t27.5 44t32 25.5t38 20q54 26 54 65q0 44 -43 44q-48 0 -44 -60h-68q-8 130 114 130q54 0 84 -29t30 -85q0 -50 -24 -77t-65 -46q-2 -1 -11.5 -5.5t-11.5 -5.5
t-10 -5.5t-10.5 -7.5t-8 -8.5t-7.5 -11t-5 -13t-4 -16.5t-1 -20v-15h160v-74h-235z" />
    <glyph glyph-name="threequarters" unicode="&#xbe;" horiz-adv-x="805" 
d="M185 -2l370 776h80l-372 -776h-78zM628 83h-161l-9 53l162 269h82v-252h40v-70h-40v-84h-74v84zM629 153v65l10 96l-88 -161h78zM58 486h74q1 -60 48 -60q48 0 48 58q0 55 -48 55h-32v71h32q45 2 45 53q0 44 -43 44q-20 0 -33.5 -15t-13.5 -45h-72q0 66 29.5 97t90.5 32
q53 0 85.5 -27.5t32.5 -85.5q0 -23 -12 -48.5t-34 -35.5q51 -22 51 -95q0 -62 -33 -96.5t-94 -34.5q-63 0 -92 33t-29 100z" />
    <glyph glyph-name="questiondown" unicode="&#xbf;" horiz-adv-x="490" 
d="M363 7h92q0 -50 -7 -84t-27.5 -65t-63.5 -46.5t-110 -15.5q-202 0 -202 232v35q0 55 14 95t35.5 61.5t46 42.5t46 38t35.5 48t14 73h90q0 -64 -19 -107t-46.5 -66t-55 -44t-46.5 -55t-19 -85v-33q1 -80 27 -112.5t85 -32.5q65 0 88 25t23 96zM332 539q0 -35 -29 -49.5
t-57.5 -0.5t-28.5 50q0 34 28.5 48.5t57.5 1t29 -49.5z" />
    <glyph glyph-name="Agrave" unicode="&#xc0;" 
d="M515 0h-98l-39 143h-231l-39 -143h-99l205 769h97zM313 397l-51 248l-52 -251l-39 -161h182zM234 813l-92 116v9h94l67 -117v-8h-69z" />
    <glyph glyph-name="Aacute" unicode="&#xc1;" 
d="M515 0h-98l-39 143h-231l-39 -143h-99l205 769h97zM313 397l-51 248l-52 -251l-39 -161h182zM383 929l-92 -116h-69v8l67 117h94v-9z" />
    <glyph glyph-name="Acircumflex" unicode="&#xc2;" 
d="M515 0h-98l-39 143h-231l-39 -143h-99l205 769h97zM313 397l-51 248l-52 -251l-39 -161h182zM225 938h71l102 -118v-7h-85l-50 57l-51 -57h-85v7z" />
    <glyph glyph-name="Atilde" unicode="&#xc3;" 
d="M515 0h-98l-39 143h-231l-39 -143h-99l205 769h97zM313 397l-51 248l-52 -251l-39 -161h182zM181 814l-55 26q11 45 45.5 65.5t76.5 5.5l45 -21q38 -14 51 26l57 -23q-10 -51 -44 -70t-72 -4l-44 20q-45 16 -60 -25z" />
    <glyph glyph-name="Adieresis" unicode="&#xc4;" 
d="M515 0h-98l-39 143h-231l-39 -143h-99l205 769h97zM313 397l-51 248l-52 -251l-39 -161h182zM95 860q0 26 18 41t39.5 15.5t39.5 -14.5t18 -42q0 -34 -29 -48.5t-57.5 -1t-28.5 49.5zM313 860q0 35 29 49.5t57.5 0.5t28.5 -50q0 -34 -29 -48.5t-57.5 -1t-28.5 49.5z" />
    <glyph glyph-name="Aring" unicode="&#xc5;" 
d="M154 824h1q0 49 31.5 76.5t75.5 27.5q43 0 75.5 -27.5t32.5 -75.5q0 -62 -50 -90l195 -735h-98l-39 143h-231l-39 -143h-99l195 733q-50 28 -50 91zM313 397l-51 248l-52 -251l-39 -161h182zM262 869q-29 0 -41 -22.5t0 -45t41 -22.5q30 0 42 22.5t-0.5 45t-41.5 22.5z
" />
    <glyph glyph-name="AE" unicode="&#xc6;" horiz-adv-x="750" 
d="M309 772h398v-81h-262v-235h246v-85h-246v-286h271v-85h-359v184h-188l-70 -184h-97zM201 269h156v416l-60 -172z" />
    <glyph glyph-name="Ccedilla" unicode="&#xc7;" horiz-adv-x="580" 
d="M237 -91l-2 -1l21 88q-69 4 -111.5 21.5t-63 54t-26.5 76.5t-6 108v262q0 68 9.5 112.5t36 80t75.5 51.5t125 16q74 0 121.5 -13.5t73.5 -43.5t35.5 -68.5t10.5 -98.5h-93q-1 75 -29 105t-119 30q-50 0 -80 -8.5t-45.5 -31.5t-20 -51.5t-4.5 -78.5v-264
q0 -97 28.5 -133.5t121.5 -36.5q96 0 123 29t27 122h91q0 -49 -3 -80t-15 -64t-35 -51t-63 -30.5t-99 -14.5l-10 -47q50 3 71 -32.5t14 -76.5q-10 -47 -43 -71t-79 -21q-65 4 -92 51l34 53q21 -36 60 -36t48 34q6 28 -16.5 44.5t-56.5 1.5z" />
    <glyph glyph-name="Egrave" unicode="&#xc8;" horiz-adv-x="509" 
d="M58 772h389v-84h-294v-232h266v-89h-266v-278h319v-89h-414v772zM239 813l-92 116v9h94l67 -117v-8h-69z" />
    <glyph glyph-name="Eacute" unicode="&#xc9;" horiz-adv-x="509" 
d="M58 772h389v-84h-294v-232h266v-89h-266v-278h319v-89h-414v772zM376 929l-92 -116h-69v8l67 117h94v-9z" />
    <glyph glyph-name="Ecircumflex" unicode="&#xca;" horiz-adv-x="509" 
d="M58 772h389v-84h-294v-232h266v-89h-266v-278h319v-89h-414v772zM219 938h71l102 -118v-7h-85l-50 57l-51 -57h-85v7z" />
    <glyph glyph-name="Edieresis" unicode="&#xcb;" horiz-adv-x="509" 
d="M58 772h389v-84h-294v-232h266v-89h-266v-278h319v-89h-414v772zM96 887q0 35 29 49.5t57.5 0.5t28.5 -50q0 -34 -28.5 -48.5t-57.5 -1t-29 49.5zM314 887q0 35 29 49.5t57.5 0.5t28.5 -50q0 -34 -29 -48.5t-57.5 -1t-28.5 49.5z" />
    <glyph glyph-name="Igrave" unicode="&#xcc;" horiz-adv-x="235" 
d="M167 -1h-97v770h97v-770zM98 813l-92 116v9h94l67 -117v-8h-69z" />
    <glyph glyph-name="Iacute" unicode="&#xcd;" horiz-adv-x="237" 
d="M167 -1h-97v770h97v-770zM231 929l-92 -116h-69v8l67 117h94v-9z" />
    <glyph glyph-name="Icircumflex" unicode="&#xce;" horiz-adv-x="237" 
d="M167 -1h-97v770h97v-770zM90 950h57l124 -122v-7h-93l-57 57l-58 -57h-93v7z" />
    <glyph glyph-name="Idieresis" unicode="&#xcf;" horiz-adv-x="237" 
d="M-30 870q0 35 29 49.5t57.5 0.5t28.5 -50q0 -34 -29 -48.5t-57.5 -1t-28.5 49.5zM164 870q0 35 29 49.5t57.5 0.5t28.5 -50q0 -34 -28.5 -48.5t-57.5 -1t-29 49.5zM167 -1h-97v770h97v-770z" />
    <glyph glyph-name="Eth" unicode="&#xd0;" horiz-adv-x="606" 
d="M303 0h-227v343h-73v78h73v350h234q76 0 124.5 -16t74.5 -51t35 -79t9 -112v-254q0 -68 -9.5 -112.5t-36 -80t-76.5 -51.5t-128 -15zM171 91h132q54 0 85 8t46 31t19 49.5t4 78.5v256q0 52 -4 78.5t-19 49.5t-46 31t-85 8h-132v-260h119v-78h-119v-252z" />
    <glyph glyph-name="Ntilde" unicode="&#xd1;" horiz-adv-x="550" 
d="M153 771l261 -590l-14 262v328h95v-771h-89l-254 554l6 -253v-301h-95v771h90zM196 839l-55 26q11 45 45.5 65.5t76.5 5.5l45 -21q38 -14 51 26l57 -23q-10 -51 -44 -70t-72 -4l-44 20q-45 16 -60 -25z" />
    <glyph glyph-name="Ograve" unicode="&#xd2;" horiz-adv-x="596" 
d="M551 522v-269q0 -68 -9.5 -112.5t-36 -80t-76.5 -51.5t-128 -16t-128 16t-76.5 51.5t-36 80t-9.5 112.5v269q0 68 9.5 112.5t36 80t76.5 51.5t128 16t128 -16t76.5 -51.5t36 -80t9.5 -112.5zM455 252v271q0 42 -2 65.5t-10.5 47t-25 34.5t-45 18t-71.5 7t-71.5 -7
t-45 -18t-25 -34.5t-10.5 -47t-2 -65.5v-271q0 -52 4 -79t19 -50.5t46 -32t85 -8.5t85 8.5t46 32t19 50.5t4 79zM297 813l-92 116v9h94l67 -117v-8h-69z" />
    <glyph glyph-name="Oacute" unicode="&#xd3;" horiz-adv-x="596" 
d="M551 522v-269q0 -68 -9.5 -112.5t-36 -80t-76.5 -51.5t-128 -16t-128 16t-76.5 51.5t-36 80t-9.5 112.5v269q0 68 9.5 112.5t36 80t76.5 51.5t128 16t128 -16t76.5 -51.5t36 -80t9.5 -112.5zM455 252v271q0 42 -2 65.5t-10.5 47t-25 34.5t-45 18t-71.5 7t-71.5 -7
t-45 -18t-25 -34.5t-10.5 -47t-2 -65.5v-271q0 -52 4 -79t19 -50.5t46 -32t85 -8.5t85 8.5t46 32t19 50.5t4 79zM433 929l-92 -116h-69v8l67 117h94v-9z" />
    <glyph glyph-name="Ocircumflex" unicode="&#xd4;" horiz-adv-x="596" 
d="M551 522v-269q0 -68 -9.5 -112.5t-36 -80t-76.5 -51.5t-128 -16t-128 16t-76.5 51.5t-36 80t-9.5 112.5v269q0 68 9.5 112.5t36 80t76.5 51.5t128 16t128 -16t76.5 -51.5t36 -80t9.5 -112.5zM455 252v271q0 42 -2 65.5t-10.5 47t-25 34.5t-45 18t-71.5 7t-71.5 -7
t-45 -18t-25 -34.5t-10.5 -47t-2 -65.5v-271q0 -52 4 -79t19 -50.5t46 -32t85 -8.5t85 8.5t46 32t19 50.5t4 79zM273 938h71l102 -118v-7h-85l-50 57l-51 -57h-85v7z" />
    <glyph glyph-name="Otilde" unicode="&#xd5;" horiz-adv-x="596" 
d="M551 522v-269q0 -68 -9.5 -112.5t-36 -80t-76.5 -51.5t-128 -16t-128 16t-76.5 51.5t-36 80t-9.5 112.5v269q0 68 9.5 112.5t36 80t76.5 51.5t128 16t128 -16t76.5 -51.5t36 -80t9.5 -112.5zM455 252v271q0 42 -2 65.5t-10.5 47t-25 34.5t-45 18t-71.5 7t-71.5 -7
t-45 -18t-25 -34.5t-10.5 -47t-2 -65.5v-271q0 -52 4 -79t19 -50.5t46 -32t85 -8.5t85 8.5t46 32t19 50.5t4 79zM227 814l-55 26q11 45 45.5 65.5t76.5 5.5l45 -21q38 -14 51 26l57 -23q-10 -51 -44 -70t-72 -4l-44 20q-45 16 -60 -25z" />
    <glyph glyph-name="Odieresis" unicode="&#xd6;" horiz-adv-x="596" 
d="M551 522v-269q0 -68 -9.5 -112.5t-36 -80t-76.5 -51.5t-128 -16t-128 16t-76.5 51.5t-36 80t-9.5 112.5v269q0 68 9.5 112.5t36 80t76.5 51.5t128 16t128 -16t76.5 -51.5t36 -80t9.5 -112.5zM455 252v271q0 42 -2 65.5t-10.5 47t-25 34.5t-45 18t-71.5 7t-71.5 -7
t-45 -18t-25 -34.5t-10.5 -47t-2 -65.5v-271q0 -52 4 -79t19 -50.5t46 -32t85 -8.5t85 8.5t46 32t19 50.5t4 79zM141 886q0 26 18 41t39.5 15.5t39.5 -14.5t18 -42q0 -34 -29 -48.5t-57.5 -1t-28.5 49.5zM359 886q0 35 29 49.5t57.5 0.5t28.5 -50q0 -34 -29 -48.5t-57.5 -1
t-28.5 49.5z" />
    <glyph glyph-name="multiply" unicode="&#xd7;" horiz-adv-x="470" 
d="M124 484l110 -111l111 111l53 -52l-113 -114l115 -114l-52 -50l-113 114l-113 -114l-54 53l114 114l-112 111z" />
    <glyph glyph-name="Oslash" unicode="&#xd8;" horiz-adv-x="596" 
d="M551 522v-269q0 -68 -9.5 -112.5t-36 -80t-76.5 -51.5t-128 -16q-63 0 -110 11l-30 -80h-80l42 111q-41 30 -56.5 82t-15.5 136v269q0 68 9.5 112.5t36 80t76.5 51.5t128 16q53 0 100 -10l32 84h80l-42 -110q46 -29 63 -83t17 -141zM455 252v271q0 94 -20 127l-212 -561
q28 -7 78 -7q54 0 85 8.5t46 32t19 50.5t4 79zM147 252q0 -87 14 -116l209 553q-28 6 -69 6q-43 0 -71.5 -7t-45 -18t-25 -34.5t-10.5 -47t-2 -65.5v-271z" />
    <glyph glyph-name="Ugrave" unicode="&#xd9;" horiz-adv-x="602" 
d="M440 253v519h96v-518q0 -133 -52.5 -196.5t-184.5 -63.5t-185.5 63.5t-53.5 196.5v517h96v-518q0 -96 28.5 -133t114.5 -37t113.5 37t27.5 133zM289 813l-92 116v9h94l67 -117v-8h-69z" />
    <glyph glyph-name="Uacute" unicode="&#xda;" horiz-adv-x="602" 
d="M440 253v519h96v-518q0 -133 -52.5 -196.5t-184.5 -63.5t-185.5 63.5t-53.5 196.5v517h96v-518q0 -96 28.5 -133t114.5 -37t113.5 37t27.5 133zM424 929l-92 -116h-69v8l67 117h94v-9z" />
    <glyph glyph-name="Ucircumflex" unicode="&#xdb;" horiz-adv-x="602" 
d="M440 253v519h96v-518q0 -133 -52.5 -196.5t-184.5 -63.5t-185.5 63.5t-53.5 196.5v517h96v-518q0 -96 28.5 -133t114.5 -37t113.5 37t27.5 133zM278 957h57l124 -122v-7h-93l-57 57l-58 -57h-93v7z" />
    <glyph glyph-name="Udieresis" unicode="&#xdc;" horiz-adv-x="602" 
d="M440 253v519h96v-518q0 -133 -52.5 -196.5t-184.5 -63.5t-185.5 63.5t-53.5 196.5v517h96v-518q0 -96 28.5 -133t114.5 -37t113.5 37t27.5 133zM136 891q0 35 29 49.5t57.5 0.5t28.5 -50q0 -34 -28.5 -48.5t-57.5 -1t-29 49.5zM354 891q0 35 29 49.5t57.5 0.5t28.5 -50
q0 -34 -29 -48.5t-57.5 -1t-28.5 49.5z" />
    <glyph glyph-name="Yacute" unicode="&#xdd;" horiz-adv-x="461" 
d="M163 622l68 -192l68 192l62 150h103l-186 -449v-324h-95v324l-185 449h103zM357 929l-92 -116h-69v8l67 117h94v-9z" />
    <glyph glyph-name="Thorn" unicode="&#xde;" horiz-adv-x="530" 
d="M70 771h95v-122h112q107 0 163 -49t56 -161v-84q0 -120 -50.5 -171.5t-168.5 -51.5h-112v-132h-95v771zM277 559h-112v-336h112q67 0 95.5 27.5t28.5 104.5v84q0 75 -27 97.5t-97 22.5z" />
    <glyph glyph-name="germandbls" unicode="&#xdf;" horiz-adv-x="517" 
d="M146 584v-584h-95v584q0 95 41 147.5t142 52.5t141 -52.5t40 -147.5q0 -105 -65 -153q130 -39 130 -196q0 -125 -53 -180t-178 -55h-58v84h60q80 0 107 37.5t27 112.5q0 72 -31 101.5t-100 29.5h-61v91h24q33 0 54.5 11.5t31 32.5t13 40t3.5 44q0 58 -18.5 86.5
t-68.5 28.5q-47 0 -66.5 -29t-19.5 -86z" />
    <glyph glyph-name="agrave" unicode="&#xe0;" 
d="M461 395v-395h-86l-8 79q-17 -35 -57.5 -59.5t-91.5 -24.5q-160 0 -174 140q-7 77 41.5 129t138.5 65q45 7 141 9v57q0 54 -24.5 81.5t-86.5 27.5q-45 0 -69 -21.5t-23 -76.5h-93q-3 95 45 140t143 45q100 0 152 -46.5t52 -149.5zM367 259q-90 0 -135 -10
q-102 -22 -92 -102q5 -61 88 -61q134 0 139 173zM266 634l-92 116v9h94l67 -117v-8h-69z" />
    <glyph glyph-name="aacute" unicode="&#xe1;" 
d="M461 395v-395h-86l-8 79q-17 -35 -57.5 -59.5t-91.5 -24.5q-160 0 -174 140q-7 77 41.5 129t138.5 65q45 7 141 9v57q0 54 -24.5 81.5t-86.5 27.5q-45 0 -69 -21.5t-23 -76.5h-93q-3 95 45 140t143 45q100 0 152 -46.5t52 -149.5zM367 259q-90 0 -135 -10
q-102 -22 -92 -102q5 -61 88 -61q134 0 139 173zM395 750l-92 -116h-69v8l67 117h94v-9z" />
    <glyph glyph-name="acircumflex" unicode="&#xe2;" 
d="M461 395v-395h-86l-8 79q-17 -35 -57.5 -59.5t-91.5 -24.5q-160 0 -174 140q-7 77 41.5 129t138.5 65q45 7 141 9v57q0 54 -24.5 81.5t-86.5 27.5q-45 0 -69 -21.5t-23 -76.5h-93q-3 95 45 140t143 45q100 0 152 -46.5t52 -149.5zM367 259q-90 0 -135 -10
q-102 -22 -92 -102q5 -61 88 -61q134 0 139 173zM239 759h71l102 -118v-7h-85l-50 57l-51 -57h-85v7z" />
    <glyph glyph-name="atilde" unicode="&#xe3;" 
d="M461 395v-395h-86l-8 79q-17 -35 -57.5 -59.5t-91.5 -24.5q-160 0 -174 140q-7 77 41.5 129t138.5 65q45 7 141 9v57q0 54 -24.5 81.5t-86.5 27.5q-45 0 -69 -21.5t-23 -76.5h-93q-3 95 45 140t143 45q100 0 152 -46.5t52 -149.5zM367 259q-90 0 -135 -10
q-102 -22 -92 -102q5 -61 88 -61q134 0 139 173zM199 642l-55 26q11 45 45.5 65.5t76.5 5.5l45 -21q38 -14 51 26l57 -23q-10 -51 -44 -70t-72 -4l-44 20q-45 16 -60 -25z" />
    <glyph glyph-name="adieresis" unicode="&#xe4;" 
d="M124 720q0 35 29 49.5t57.5 0.5t28.5 -50q0 -34 -28.5 -48.5t-57.5 -1t-29 49.5zM321 720q0 35 29 49.5t57.5 0.5t28.5 -50q0 -34 -29 -48.5t-57.5 -1t-28.5 49.5zM461 395v-395h-86l-8 79q-17 -35 -57.5 -59.5t-91.5 -24.5q-160 0 -174 140q-7 77 41.5 129t138.5 65
q45 7 141 9v57q0 54 -24.5 81.5t-86.5 27.5q-45 0 -69 -21.5t-23 -76.5h-93q-3 95 45 140t143 45q100 0 152 -46.5t52 -149.5zM367 259q-90 0 -135 -10q-102 -22 -92 -102q5 -61 88 -61q134 0 139 173z" />
    <glyph glyph-name="aring" unicode="&#xe5;" 
d="M461 395v-395h-86l-8 79q-17 -35 -57.5 -59.5t-91.5 -24.5q-160 0 -174 140q-7 77 41.5 129t138.5 65q45 7 141 9v57q0 54 -24.5 81.5t-86.5 27.5q-45 0 -69 -21.5t-23 -76.5h-93q-3 95 45 140t143 45q100 0 152 -46.5t52 -149.5zM367 259q-90 0 -135 -10
q-102 -22 -92 -102q5 -61 88 -61q134 0 139 173zM161 726q0 44 31.5 69t76.5 25q43 0 76 -25t33 -68q0 -44 -32 -69t-78 -25q-47 0 -77.5 24.5t-29.5 68.5zM269 767q-29 0 -41 -20.5t0 -40.5t41 -20q30 0 42 20t-0.5 40.5t-41.5 20.5z" />
    <glyph glyph-name="ae" unicode="&#xe6;" horiz-adv-x="824" 
d="M682 168h93q0 -89 -49.5 -133.5t-161.5 -44.5q-71 0 -111.5 21t-63.5 66q-37 -46 -78.5 -66.5t-97.5 -20.5q-159 0 -174 145q-8 78 39 129.5t141 64.5q45 7 144 9v57q0 53 -25.5 81t-88.5 28q-45 0 -69 -21.5t-23 -76.5h-93q-3 95 45 140t143 45q115 0 153 -70
q45 71 159 71q104 0 158.5 -50t54.5 -162v-127h-332v-44q0 -77 26.5 -103.5t92.5 -26.5q63 0 90.5 21.5t27.5 67.5zM445 380v-42h240v42q0 74 -29.5 100.5t-91.5 26.5t-90.5 -26t-28.5 -101zM365 256q-106 0 -138 -7q-102 -22 -92 -102q3 -32 27.5 -47.5t60.5 -15.5
q137 0 142 172z" />
    <glyph glyph-name="ccedilla" unicode="&#xe7;" horiz-adv-x="528" 
d="M210 -91l-2 -1l21 84q-93 8 -136 60.5t-43 160.5v166q0 213 219 213q103 0 156.5 -44t57.5 -152l-90 -1q-3 65 -32.5 87t-91.5 22q-65 0 -94.5 -25t-29.5 -100v-166q0 -76 29.5 -104t94.5 -28q66 0 94.5 23t29.5 94h90q-1 -108 -45 -155t-144 -52l-10 -43q50 3 69.5 -31
t12.5 -74q-9 -43 -42 -68t-77 -22q-63 4 -91 50l33 51q9 -14 25.5 -24.5t34.5 -10.5q39 0 48 33q6 28 -16.5 43.5t-56.5 1.5z" />
    <glyph glyph-name="egrave" unicode="&#xe8;" horiz-adv-x="530" 
d="M391 170h92q0 -87 -51.5 -131.5t-162.5 -44.5q-117 0 -166.5 48.5t-49.5 165.5v171q0 110 55.5 159.5t160.5 49.5q216 0 216 -209v-125h-338v-44q0 -75 28 -101.5t94 -26.5q122 0 122 88zM147 379v-42h247v42q0 72 -31.5 98.5t-93.5 26.5t-92 -26t-30 -99zM264 634
l-92 116v9h94l67 -117v-8h-69z" />
    <glyph glyph-name="eacute" unicode="&#xe9;" horiz-adv-x="530" 
d="M391 170h92q0 -87 -51.5 -131.5t-162.5 -44.5q-117 0 -166.5 48.5t-49.5 165.5v171q0 110 55.5 159.5t160.5 49.5q216 0 216 -209v-125h-338v-44q0 -75 28 -101.5t94 -26.5q122 0 122 88zM147 379v-42h247v42q0 72 -31.5 98.5t-93.5 26.5t-92 -26t-30 -99zM390 750
l-92 -116h-69v8l67 117h94v-9z" />
    <glyph glyph-name="ecircumflex" unicode="&#xea;" horiz-adv-x="530" 
d="M391 170h92q0 -87 -51.5 -131.5t-162.5 -44.5q-117 0 -166.5 48.5t-49.5 165.5v171q0 110 55.5 159.5t160.5 49.5q216 0 216 -209v-125h-338v-44q0 -75 28 -101.5t94 -26.5q122 0 122 88zM147 379v-42h247v42q0 72 -31.5 98.5t-93.5 26.5t-92 -26t-30 -99zM242 759h71
l102 -118v-7h-85l-50 57l-51 -57h-85v7z" />
    <glyph glyph-name="edieresis" unicode="&#xeb;" horiz-adv-x="530" 
d="M127 720q0 26 18 41t39.5 15.5t39.5 -14.5t18 -42q0 -34 -29 -48.5t-57.5 -1t-28.5 49.5zM320 720q0 35 29 49.5t57.5 0.5t28.5 -50q0 -34 -29 -48.5t-57.5 -1t-28.5 49.5zM391 170h92q0 -87 -51.5 -131.5t-162.5 -44.5q-117 0 -166.5 48.5t-49.5 165.5v171
q0 110 55.5 159.5t160.5 49.5q216 0 216 -209v-125h-338v-44q0 -75 28 -101.5t94 -26.5q122 0 122 88zM147 379v-42h247v42q0 72 -31.5 98.5t-93.5 26.5t-92 -26t-30 -99z" />
    <glyph glyph-name="igrave" unicode="&#xec;" horiz-adv-x="245" 
d="M174 0h-95v581h95v-581zM105 634l-92 116v9h94l67 -117v-8h-69z" />
    <glyph glyph-name="iacute" unicode="&#xed;" horiz-adv-x="245" 
d="M174 0h-95v581h95v-581zM240 750l-92 -116h-69v8l67 117h94v-9z" />
    <glyph glyph-name="icircumflex" unicode="&#xee;" horiz-adv-x="245" 
d="M101 776h48l106 -128v-7h-79l-49 51l-49 -51h-79v7zM174 0h-95v581h95v-581z" />
    <glyph glyph-name="idieresis" unicode="&#xef;" horiz-adv-x="279" 
d="M-6 720q0 35 29 49.5t57.5 0.5t28.5 -50q0 -34 -28.5 -48.5t-57.5 -1t-29 49.5zM173 720q0 35 29 49.5t57.5 0.5t28.5 -50q0 -34 -29 -48.5t-57.5 -1t-28.5 49.5zM184 0h-95v581h95v-581z" />
    <glyph glyph-name="eth" unicode="&#xf0;" horiz-adv-x="546" 
d="M215 598l-31 47l53 35q-40 36 -110 86l2 7h126q27 -19 58 -45l65 44l32 -47l-55 -37q139 -148 139 -333v-142q0 -120 -50.5 -171.5t-168.5 -51.5t-168.5 51.5t-50.5 171.5v142q0 103 50.5 153.5t140.5 50.5q57 0 103 -12q-24 45 -71 92zM275 81q67 0 95.5 27.5
t28.5 104.5v142q0 70 -28.5 96t-95.5 26t-95.5 -26t-28.5 -96v-142q0 -77 28.5 -104.5t95.5 -27.5z" />
    <glyph glyph-name="ntilde" unicode="&#xf1;" horiz-adv-x="583" 
d="M79 0v585h85l6 -62q42 69 150 69q100 0 147 -48.5t47 -162.5v-381h-96v380q0 61 -30.5 93t-83.5 32q-57 0 -93 -32t-36 -92v-381h-96zM222 676l-55 26q11 45 45.5 65.5t76.5 5.5l45 -21q38 -14 51 26l57 -23q-10 -51 -44 -70t-72 -4l-44 20q-45 16 -60 -25z" />
    <glyph glyph-name="ograve" unicode="&#xf2;" horiz-adv-x="538" 
d="M269 73q67 0 95.5 31t28.5 109v167q0 75 -29.5 101t-94.5 26t-94.5 -26t-29.5 -101v-167q0 -78 29 -109t95 -31zM269 -10q-118 0 -168.5 51.5t-50.5 171.5v167q0 112 56.5 162t162.5 50t162.5 -50t56.5 -162v-167q0 -119 -51.5 -171t-167.5 -52zM268 634l-92 116v9h94
l67 -117v-8h-69z" />
    <glyph glyph-name="oacute" unicode="&#xf3;" horiz-adv-x="538" 
d="M269 73q67 0 95.5 31t28.5 109v167q0 75 -29.5 101t-94.5 26t-94.5 -26t-29.5 -101v-167q0 -78 29 -109t95 -31zM269 -10q-118 0 -168.5 51.5t-50.5 171.5v167q0 112 56.5 162t162.5 50t162.5 -50t56.5 -162v-167q0 -119 -51.5 -171t-167.5 -52zM393 750l-92 -116h-69v8
l67 117h94v-9z" />
    <glyph glyph-name="ocircumflex" unicode="&#xf4;" horiz-adv-x="538" 
d="M269 73q67 0 95.5 31t28.5 109v167q0 75 -29.5 101t-94.5 26t-94.5 -26t-29.5 -101v-167q0 -78 29 -109t95 -31zM269 -10q-118 0 -168.5 51.5t-50.5 171.5v167q0 112 56.5 162t162.5 50t162.5 -50t56.5 -162v-167q0 -119 -51.5 -171t-167.5 -52zM238 759h71l102 -118v-7
h-85l-50 57l-51 -57h-85v7z" />
    <glyph glyph-name="otilde" unicode="&#xf5;" horiz-adv-x="538" 
d="M269 73q67 0 95.5 31t28.5 109v167q0 75 -29.5 101t-94.5 26t-94.5 -26t-29.5 -101v-167q0 -78 29 -109t95 -31zM269 -10q-118 0 -168.5 51.5t-50.5 171.5v167q0 112 56.5 162t162.5 50t162.5 -50t56.5 -162v-167q0 -119 -51.5 -171t-167.5 -52zM195 642l-55 26
q11 45 45.5 65.5t76.5 5.5l45 -21q38 -14 51 26l57 -23q-10 -51 -44 -70t-72 -4l-44 20q-45 16 -60 -25z" />
    <glyph glyph-name="odieresis" unicode="&#xf6;" horiz-adv-x="538" 
d="M119 720q0 26 18 41t39.5 15.5t39.5 -14.5t18 -42q0 -34 -29 -48.5t-57.5 -1t-28.5 49.5zM312 720q0 35 29 49.5t57.5 0.5t28.5 -50q0 -34 -29 -48.5t-57.5 -1t-28.5 49.5zM269 73q67 0 95.5 31t28.5 109v167q0 75 -29.5 101t-94.5 26t-94.5 -26t-29.5 -101v-167
q0 -78 29 -109t95 -31zM269 -10q-118 0 -168.5 51.5t-50.5 171.5v167q0 112 56.5 162t162.5 50t162.5 -50t56.5 -162v-167q0 -119 -51.5 -171t-167.5 -52z" />
    <glyph glyph-name="divide" unicode="&#xf7;" horiz-adv-x="510" 
d="M195 495q0 25 16.5 39.5t37 14.5t37 -14.5t16.5 -39.5q0 -33 -27 -46.5t-53.5 0t-26.5 46.5zM35 289h424v81h-424v-81zM195 159q0 25 16.5 39.5t37 14.5t37 -14.5t16.5 -39.5q0 -33 -27 -46.5t-53.5 0t-26.5 46.5z" />
    <glyph glyph-name="oslash" unicode="&#xf8;" horiz-adv-x="538" 
d="M158 -73h-80l41 98q-69 49 -69 188v167q0 112 56.5 162t162.5 50q45 0 83 -9l27 65h80l-40 -96q69 -52 69 -172v-167q0 -119 -51.5 -171t-167.5 -52q-44 0 -82 8zM145 213q0 -56 15 -89l158 378q-23 5 -49 5q-65 0 -94.5 -26t-29.5 -101v-167zM269 73q67 0 95.5 31
t28.5 109v167q0 49 -14 77l-158 -379q17 -5 48 -5z" />
    <glyph glyph-name="ugrave" unicode="&#xf9;" horiz-adv-x="583" 
d="M513 581v-581h-85l-6 62q-42 -69 -150 -69q-100 0 -147 48.5t-47 162.5v377h96v-376q0 -61 30.5 -93t83.5 -32q57 0 93 32t36 92v377h96zM285 634l-92 116v9h94l67 -117v-8h-69z" />
    <glyph glyph-name="uacute" unicode="&#xfa;" horiz-adv-x="583" 
d="M513 581v-581h-85l-6 62q-42 -69 -150 -69q-100 0 -147 48.5t-47 162.5v377h96v-376q0 -61 30.5 -93t83.5 -32q57 0 93 32t36 92v377h96zM423 750l-92 -116h-69v8l67 117h94v-9z" />
    <glyph glyph-name="ucircumflex" unicode="&#xfb;" horiz-adv-x="583" 
d="M513 581v-581h-85l-6 62q-42 -69 -150 -69q-100 0 -147 48.5t-47 162.5v377h96v-376q0 -61 30.5 -93t83.5 -32q57 0 93 32t36 92v377h96zM267 776h57l124 -122v-7h-93l-57 57l-58 -57h-93v7z" />
    <glyph glyph-name="udieresis" unicode="&#xfc;" horiz-adv-x="583" 
d="M513 581v-581h-85l-6 62q-42 -69 -150 -69q-100 0 -147 48.5t-47 162.5v377h96v-376q0 -61 30.5 -93t83.5 -32q57 0 93 32t36 92v377h96zM142 720q0 35 29 49.5t57.5 0.5t28.5 -50q0 -34 -28.5 -48.5t-57.5 -1t-29 49.5zM360 720q0 35 29 49.5t57.5 0.5t28.5 -50
q0 -34 -29 -48.5t-57.5 -1t-28.5 49.5z" />
    <glyph glyph-name="yacute" unicode="&#xfd;" horiz-adv-x="491" 
d="M175 397l75 -271q21 107 73 277l57 182h99l-183 -586l-35 -111q-28 -88 -79 -112t-134 10l17 81q18 -7 32 -10t30 0t28.5 17.5t21.5 41.5l24 83l-186 586h104zM375 750l-92 -116h-69v8l67 117h94v-9z" />
    <glyph glyph-name="thorn" unicode="&#xfe;" horiz-adv-x="562" 
d="M66 -197v970h95v-258q15 35 53.5 54t88.5 19q198 0 198 -211v-154q0 -227 -198 -227q-52 0 -85 10.5t-56 40.5v-244h-96zM162 220q0 -74 27.5 -103t92.5 -29t94.5 30.5t29.5 106.5v153q0 69 -27.5 95t-89.5 26q-64 -2 -95.5 -36t-31.5 -117v-126z" />
    <glyph glyph-name="ydieresis" unicode="&#xff;" horiz-adv-x="491" 
d="M175 397l75 -271q21 107 73 277l57 182h99l-183 -586l-35 -111q-28 -88 -79 -112t-134 10l17 81q18 -7 32 -10t30 0t28.5 17.5t21.5 41.5l24 83l-186 586h104zM85 720q0 26 18 41t39.5 15.5t39.5 -14.5t18 -42q0 -34 -29 -48.5t-57.5 -1t-28.5 49.5zM303 720
q0 35 29 49.5t57.5 0.5t28.5 -50q0 -34 -29 -48.5t-57.5 -1t-28.5 49.5z" />
    <glyph glyph-name="Amacron" unicode="&#x100;" 
d="M152 904h219v-74h-219v74zM515 0h-98l-39 143h-231l-39 -143h-99l205 769h97zM313 397l-51 248l-52 -251l-39 -161h182z" />
    <glyph glyph-name="amacron" unicode="&#x101;" 
d="M156 756h219v-74h-219v74zM461 395v-395h-86l-8 79q-17 -35 -57.5 -59.5t-91.5 -24.5q-160 0 -174 140q-7 77 41.5 129t138.5 65q45 7 141 9v57q0 54 -24.5 81.5t-86.5 27.5q-45 0 -69 -21.5t-23 -76.5h-93q-3 95 45 140t143 45q100 0 152 -46.5t52 -149.5zM367 259
q-90 0 -135 -10q-102 -22 -92 -102q5 -61 88 -61q134 0 139 173z" />
    <glyph glyph-name="Abreve" unicode="&#x102;" 
d="M515 0h-98l-39 143h-231l-39 -143h-99l205 769h97zM313 397l-51 248l-52 -251l-39 -161h182zM264 806q-66 0 -95.5 27.5t-26.5 89.5h68q0 -29 10 -41.5t44 -12.5q33 0 42.5 12t9.5 42h68q3 -62 -25.5 -89.5t-94.5 -27.5z" />
    <glyph glyph-name="abreve" unicode="&#x103;" 
d="M461 395v-395h-86l-8 79q-17 -35 -57.5 -59.5t-91.5 -24.5q-160 0 -174 140q-7 77 41.5 129t138.5 65q45 7 141 9v57q0 54 -24.5 81.5t-86.5 27.5q-45 0 -69 -21.5t-23 -76.5h-93q-3 95 45 140t143 45q100 0 152 -46.5t52 -149.5zM367 259q-90 0 -135 -10
q-102 -22 -92 -102q5 -61 88 -61q134 0 139 173zM287 635q-66 0 -95.5 27.5t-26.5 89.5h68q0 -29 10 -41.5t44 -12.5q33 0 42.5 12t9.5 42h68q3 -62 -25.5 -89.5t-94.5 -27.5z" />
    <glyph glyph-name="Aogonek" unicode="&#x104;" 
d="M515 0q-34 -13 -52.5 -36t-18.5 -37q0 -33 35 -33q20 0 36 2v-85q-160 -9 -160 85q0 65 74 104h-12l-39 143h-231l-39 -143h-99l205 769h97zM313 397l-51 248l-52 -251l-39 -161h182z" />
    <glyph glyph-name="aogonek" unicode="&#x105;" 
d="M461 395v-395q-34 -13 -52.5 -36t-18.5 -37q0 -33 35 -33q20 0 36 2v-85q-160 -9 -160 85q0 65 74 104l-8 79q-17 -35 -57.5 -59.5t-91.5 -24.5q-160 0 -174 140q-7 77 41.5 129t138.5 65q45 7 141 9v57q0 54 -24.5 81.5t-86.5 27.5q-45 0 -69 -21.5t-23 -76.5h-93
q-3 95 45 140t143 45q100 0 152 -46.5t52 -149.5zM367 259q-90 0 -135 -10q-102 -22 -92 -102q5 -61 88 -61q134 0 139 173z" />
    <glyph glyph-name="Cacute" unicode="&#x106;" horiz-adv-x="580" 
d="M536 554h-93q-1 75 -29 105t-119 30q-50 0 -80 -8.5t-45.5 -31.5t-20 -51.5t-4.5 -78.5v-264q0 -97 28.5 -133.5t121.5 -36.5q96 0 123 29t27 122h91q0 -43 -2.5 -70.5t-10 -58t-23.5 -48.5t-42.5 -34t-67 -23t-95.5 -7q-56 0 -96.5 7t-67.5 23.5t-43.5 36t-25 52t-11 64
t-2.5 78.5v262q0 68 9.5 112.5t36 80t75.5 51.5t125 16q74 0 121.5 -13.5t73.5 -43.5t35.5 -68.5t10.5 -98.5zM332 835h-76v5l53 127h94v-3z" />
    <glyph glyph-name="cacute" unicode="&#x107;" horiz-adv-x="528" 
d="M393 198h90q-1 -115 -50 -161.5t-164 -46.5t-167 52.5t-52 170.5v166q0 213 219 213q103 0 156.5 -44t57.5 -152l-90 -1q-3 65 -32.5 87t-91.5 22q-65 0 -94.5 -25t-29.5 -100v-166q0 -76 29.5 -104t94.5 -28q66 0 94.5 23t29.5 94zM298 647h-76v5l53 127h94v-3z" />
    <glyph glyph-name="Ccircumflex" unicode="&#x108;" horiz-adv-x="580" 
d="M536 554h-93q-1 75 -29 105t-119 30q-50 0 -80 -8.5t-45.5 -31.5t-20 -51.5t-4.5 -78.5v-264q0 -97 28.5 -133.5t121.5 -36.5q96 0 123 29t27 122h91q0 -43 -2.5 -70.5t-10 -58t-23.5 -48.5t-42.5 -34t-67 -23t-95.5 -7q-56 0 -96.5 7t-67.5 23.5t-43.5 36t-25 52t-11 64
t-2.5 78.5v262q0 68 9.5 112.5t36 80t75.5 51.5t125 16q74 0 121.5 -13.5t73.5 -43.5t35.5 -68.5t10.5 -98.5zM269 956h57l124 -122v-7h-93l-57 57l-58 -57h-93v7z" />
    <glyph glyph-name="ccircumflex" unicode="&#x109;" horiz-adv-x="528" 
d="M393 198h90q-1 -115 -50 -161.5t-164 -46.5t-167 52.5t-52 170.5v166q0 213 219 213q103 0 156.5 -44t57.5 -152l-90 -1q-3 65 -32.5 87t-91.5 22q-65 0 -94.5 -25t-29.5 -100v-166q0 -76 29.5 -104t94.5 -28q66 0 94.5 23t29.5 94zM250 782h57l124 -122v-7h-93l-57 57
l-58 -57h-93v7z" />
    <glyph glyph-name="Cdotaccent" unicode="&#x10a;" horiz-adv-x="580" 
d="M252 883q0 34 28 48t56.5 0.5t28.5 -47.5q0 -21 -11.5 -35t-28.5 -17t-33.5 0t-28 17t-11.5 34zM536 554h-93q-1 75 -29 105t-119 30q-50 0 -80 -8.5t-45.5 -31.5t-20 -51.5t-4.5 -78.5v-264q0 -97 28.5 -133.5t121.5 -36.5q96 0 123 29t27 122h91q0 -43 -2.5 -70.5
t-10 -58t-23.5 -48.5t-42.5 -34t-67 -23t-95.5 -7q-56 0 -96.5 7t-67.5 23.5t-43.5 36t-25 52t-11 64t-2.5 78.5v262q0 68 9.5 112.5t36 80t75.5 51.5t125 16q74 0 121.5 -13.5t73.5 -43.5t35.5 -68.5t10.5 -98.5z" />
    <glyph glyph-name="cdotaccent" unicode="&#x10b;" horiz-adv-x="528" 
d="M217 724q0 33 27.5 46t55.5 0t28 -46t-28 -46t-55.5 0t-27.5 46zM393 198h90q-1 -115 -50 -161.5t-164 -46.5t-167 52.5t-52 170.5v166q0 213 219 213q103 0 156.5 -44t57.5 -152l-90 -1q-3 65 -32.5 87t-91.5 22q-65 0 -94.5 -25t-29.5 -100v-166q0 -76 29.5 -104
t94.5 -28q66 0 94.5 23t29.5 94z" />
    <glyph glyph-name="Ccaron" unicode="&#x10c;" horiz-adv-x="580" 
d="M536 554h-93q-1 75 -29 105t-119 30q-50 0 -80 -8.5t-45.5 -31.5t-20 -51.5t-4.5 -78.5v-264q0 -97 28.5 -133.5t121.5 -36.5q96 0 123 29t27 122h91q0 -43 -2.5 -70.5t-10 -58t-23.5 -48.5t-42.5 -34t-67 -23t-95.5 -7q-56 0 -96.5 7t-67.5 23.5t-43.5 36t-25 52t-11 64
t-2.5 78.5v262q0 68 9.5 112.5t36 80t75.5 51.5t125 16q74 0 121.5 -13.5t73.5 -43.5t35.5 -68.5t10.5 -98.5zM335 826h-58l-125 114v7h94l58 -53l59 53h94v-7z" />
    <glyph glyph-name="ccaron" unicode="&#x10d;" horiz-adv-x="528" 
d="M393 198h90q-1 -115 -50 -161.5t-164 -46.5t-167 52.5t-52 170.5v166q0 213 219 213q103 0 156.5 -44t57.5 -152l-90 -1q-3 65 -32.5 87t-91.5 22q-65 0 -94.5 -25t-29.5 -100v-166q0 -76 29.5 -104t94.5 -28q66 0 94.5 23t29.5 94zM296 644h-57l-124 122v7h93l57 -57
l58 57h93v-7z" />
    <glyph glyph-name="Dcaron" unicode="&#x10e;" horiz-adv-x="595" 
d="M160 91h132q54 0 85 8t46 31t19 49.5t4 78.5v256q0 52 -4 78.5t-19 49.5t-46 31t-85 8h-132v-590zM292 0h-227v771h234q76 0 124.5 -16t74.5 -51t35 -79t9 -112v-254q0 -68 -9.5 -112.5t-36 -80t-76.5 -51.5t-128 -15zM311 818h-57l-124 122v7h93l57 -57l58 57h93v-7z
" />
    <glyph glyph-name="dcaron" unicode="&#x10f;" horiz-adv-x="669" 
d="M585 782h82l-45 -176h-69zM489 782v-782h-80l-12 77q-13 -37 -53 -58.5t-92 -21.5q-198 0 -198 211v154q0 227 198 227q52 0 85 -10.5t56 -40.5v244h96zM393 365q0 74 -27.5 103t-92.5 29t-94.5 -30.5t-29.5 -106.5v-153q0 -69 27.5 -95t89.5 -26q64 2 95.5 36t31.5 117
v126z" />
    <glyph glyph-name="Dcroat" unicode="&#x110;" horiz-adv-x="606" 
d="M303 0h-227v343h-73v78h73v350h234q76 0 124.5 -16t74.5 -51t35 -79t9 -112v-254q0 -68 -9.5 -112.5t-36 -80t-76.5 -51.5t-128 -15zM171 91h132q54 0 85 8t46 31t19 49.5t4 78.5v256q0 52 -4 78.5t-19 49.5t-46 31t-85 8h-132v-260h119v-78h-119v-252z" />
    <glyph glyph-name="dcroat" unicode="&#x111;" horiz-adv-x="553" 
d="M489 782v-69h61v-61h-61v-652h-80l-12 77q-13 -37 -53 -58.5t-92 -21.5q-198 0 -198 211v154q0 227 198 227q52 0 85 -10.5t56 -40.5v114h-79v61h79v69h96zM393 365q0 74 -27.5 103t-92.5 29t-94.5 -30.5t-29.5 -106.5v-153q0 -69 27.5 -95t89.5 -26q64 2 95.5 36
t31.5 117v126z" />
    <glyph glyph-name="Emacron" unicode="&#x112;" horiz-adv-x="509" 
d="M146 914h223v-73h-223v73zM58 772h389v-84h-294v-232h266v-89h-266v-278h319v-89h-414v772z" />
    <glyph glyph-name="emacron" unicode="&#x113;" horiz-adv-x="530" 
d="M167 757h228v-75h-228v75zM391 170h92q0 -87 -51.5 -131.5t-162.5 -44.5q-117 0 -166.5 48.5t-49.5 165.5v171q0 110 55.5 159.5t160.5 49.5q216 0 216 -209v-125h-338v-44q0 -75 28 -101.5t94 -26.5q122 0 122 88zM147 379v-42h247v42q0 72 -31.5 98.5t-93.5 26.5
t-92 -26t-30 -99z" />
    <glyph glyph-name="Ebreve" unicode="&#x114;" horiz-adv-x="509" 
d="M58 772h389v-84h-294v-232h266v-89h-266v-278h319v-89h-414v772zM261 826q-133 0 -127 131h71q0 -33 11 -49t45 -16t44.5 16t10.5 49h71q6 -131 -126 -131z" />
    <glyph glyph-name="ebreve" unicode="&#x115;" horiz-adv-x="530" 
d="M391 170h92q0 -87 -51.5 -131.5t-162.5 -44.5q-117 0 -166.5 48.5t-49.5 165.5v171q0 110 55.5 159.5t160.5 49.5q216 0 216 -209v-125h-338v-44q0 -75 28 -101.5t94 -26.5q122 0 122 88zM147 379v-42h247v42q0 72 -31.5 98.5t-93.5 26.5t-92 -26t-30 -99zM269 649
q-133 0 -127 131h71q0 -32 11 -48.5t45 -16.5t44.5 16t10.5 49h71q6 -131 -126 -131z" />
    <glyph glyph-name="Edotaccent" unicode="&#x116;" horiz-adv-x="509" 
d="M208 875q0 33 27.5 46t55 0t27.5 -46t-27.5 -46t-55 0t-27.5 46zM58 772h389v-84h-294v-232h266v-89h-266v-278h319v-89h-414v772z" />
    <glyph glyph-name="edotaccent" unicode="&#x117;" horiz-adv-x="530" 
d="M217 723q0 34 29.5 48t58.5 0t29 -48q0 -25 -18.5 -39.5t-40 -14.5t-40 14.5t-18.5 39.5zM391 170h92q0 -87 -51.5 -131.5t-162.5 -44.5q-117 0 -166.5 48.5t-49.5 165.5v171q0 110 55.5 159.5t160.5 49.5q216 0 216 -209v-125h-338v-44q0 -75 28 -101.5t94 -26.5
q122 0 122 88zM147 379v-42h247v42q0 72 -31.5 98.5t-93.5 26.5t-92 -26t-30 -99z" />
    <glyph glyph-name="Eogonek" unicode="&#x118;" horiz-adv-x="521" 
d="M70 772h389v-84h-294v-232h266v-89h-266v-278h319v-89q-34 -13 -52.5 -36t-18.5 -37q0 -33 35 -33q20 0 36 2v-85q-160 -9 -160 85q0 65 74 104h-328v772z" />
    <glyph glyph-name="eogonek" unicode="&#x119;" horiz-adv-x="538" 
d="M391 170h92q0 -80 -46 -127q-33 -35 -50.5 -68.5t-17.5 -47.5q0 -33 35 -33q20 0 36 2v-85q-160 -9 -160 85q0 63 63 104q-33 -6 -74 -6q-117 0 -166.5 48.5t-49.5 165.5v171q0 110 55.5 159.5t160.5 49.5q216 0 216 -209v-125h-338v-44q0 -75 28 -101.5t94 -26.5
q122 0 122 88zM147 379v-42h247v42q0 72 -31.5 98.5t-93.5 26.5t-92 -26t-30 -99z" />
    <glyph glyph-name="Ecaron" unicode="&#x11a;" horiz-adv-x="509" 
d="M58 772h389v-84h-294v-232h266v-89h-266v-278h319v-89h-414v772zM289 822h-56l-121 114v7h91l56 -53l57 53h91v-7z" />
    <glyph glyph-name="ecaron" unicode="&#x11b;" horiz-adv-x="530" 
d="M391 170h92q0 -87 -51.5 -131.5t-162.5 -44.5q-117 0 -166.5 48.5t-49.5 165.5v171q0 110 55.5 159.5t160.5 49.5q216 0 216 -209v-125h-338v-44q0 -75 28 -101.5t94 -26.5q122 0 122 88zM147 379v-42h247v42q0 72 -31.5 98.5t-93.5 26.5t-92 -26t-30 -99zM304 649h-57
l-124 122v7h93l57 -57l58 57h93v-7z" />
    <glyph glyph-name="Gcircumflex" unicode="&#x11c;" horiz-adv-x="601" 
d="M550 564h-93q-1 48 -12.5 74t-45 41t-96.5 15q-93 0 -123.5 -37.5t-30.5 -135.5v-270q0 -52 4 -79t19 -50.5t46 -32t85 -8.5q55 0 85 5.5t46 25t19.5 44.5t3.5 76v105h-150v86h246v-191q0 -51 -3.5 -83t-17.5 -65t-40.5 -51t-73.5 -29.5t-115 -11.5q-78 0 -128 16
t-76.5 51.5t-36 80t-9.5 112.5v268q0 68 9.5 112.5t36 80t76.5 51.5t128 16q100 0 153.5 -23.5t72.5 -67.5t21 -125zM285 948h57l124 -122v-7h-93l-57 57l-58 -57h-93v7z" />
    <glyph glyph-name="gcircumflex" unicode="&#x11d;" horiz-adv-x="544" 
d="M253 -3q-203 0 -203 201v177q0 211 198 211q52 0 91 -21t52 -59l12 74h79v-600q0 -115 -57 -169t-159 -54q-97 0 -148 40.5t-55 133.5h91q4 -49 32.5 -68t80.5 -19q62 0 94 30.5t32 105.5v96q-12 -32 -49 -55.5t-91 -23.5zM253 86q66 0 100 33.5t34 119.5v113
q-1 78 -31.5 110.5t-93.5 34.5q-62 0 -89.5 -26t-27.5 -95v-167q0 -66 27 -94.5t81 -28.5zM257 776h57l124 -122v-7h-93l-57 57l-58 -57h-93v7z" />
    <glyph glyph-name="Gbreve" unicode="&#x11e;" horiz-adv-x="597" 
d="M552 564h-93q-1 48 -12.5 74t-45 41t-96.5 15q-93 0 -123.5 -37.5t-30.5 -135.5v-270q0 -52 4 -79t19 -50.5t46 -32t85 -8.5q55 0 85 5.5t46 25t19.5 44.5t3.5 76v105h-150v86h246v-191q0 -51 -3.5 -83t-17.5 -65t-40.5 -51t-73.5 -29.5t-115 -11.5q-78 0 -128 16
t-76.5 51.5t-36 80t-9.5 112.5v268q0 68 9.5 112.5t36 80t76.5 51.5t128 16q100 0 153.5 -23.5t72.5 -67.5t21 -125zM309 824q-133 0 -127 131h71q0 -33 11 -49t45 -16t44.5 16t10.5 49h71q6 -131 -126 -131z" />
    <glyph glyph-name="gbreve" unicode="&#x11f;" horiz-adv-x="544" 
d="M253 -3q-203 0 -203 201v177q0 211 198 211q52 0 91 -21t52 -59l12 74h79v-600q0 -115 -57 -169t-159 -54q-97 0 -148 40.5t-55 133.5h91q4 -49 32.5 -68t80.5 -19q62 0 94 30.5t32 105.5v96q-12 -32 -49 -55.5t-91 -23.5zM253 86q66 0 100 33.5t34 119.5v113
q-1 78 -31.5 110.5t-93.5 34.5q-62 0 -89.5 -26t-27.5 -95v-167q0 -66 27 -94.5t81 -28.5zM272 648q-133 0 -127 131h71q0 -33 11 -49t45 -16t44.5 16t10.5 49h71q6 -131 -126 -131z" />
    <glyph glyph-name="Gdotaccent" unicode="&#x120;" horiz-adv-x="601" 
d="M253 882q0 24 17 37.5t37.5 13.5t37.5 -13.5t17 -37.5t-17 -37.5t-37.5 -13.5t-37.5 13.5t-17 37.5zM550 564h-93q-1 48 -12.5 74t-45 41t-96.5 15q-93 0 -123.5 -37.5t-30.5 -135.5v-270q0 -52 4 -79t19 -50.5t46 -32t85 -8.5q55 0 85 5.5t46 25t19.5 44.5t3.5 76v105
h-150v86h246v-191q0 -51 -3.5 -83t-17.5 -65t-40.5 -51t-73.5 -29.5t-115 -11.5q-78 0 -128 16t-76.5 51.5t-36 80t-9.5 112.5v268q0 68 9.5 112.5t36 80t76.5 51.5t128 16q100 0 153.5 -23.5t72.5 -67.5t21 -125z" />
    <glyph glyph-name="gdotaccent" unicode="&#x121;" horiz-adv-x="536" 
d="M217 724q0 34 29.5 48.5t59 0t29.5 -48.5q0 -35 -29.5 -50t-59 0t-29.5 50zM253 -3q-203 0 -203 201v177q0 211 198 211q52 0 91 -21t52 -59l12 74h79v-600q0 -115 -57 -169t-159 -54q-97 0 -148 40.5t-55 133.5h91q4 -49 32.5 -68t80.5 -19q62 0 94 30.5t32 105.5v96
q-12 -32 -49 -55.5t-91 -23.5zM253 86q66 0 100 33.5t34 119.5v113q-1 78 -31.5 110.5t-93.5 34.5q-62 0 -89.5 -26t-27.5 -95v-167q0 -66 27 -94.5t81 -28.5z" />
    <glyph glyph-name="Gcommaaccent" unicode="&#x122;" horiz-adv-x="603" 
d="M556 564h-93q-1 48 -12.5 74t-45 41t-96.5 15q-93 0 -123.5 -37.5t-30.5 -135.5v-270q0 -52 4 -79t19 -50.5t46 -32t85 -8.5q55 0 85 5.5t46 25t19.5 44.5t3.5 76v105h-150v86h246v-191q0 -51 -3.5 -83t-17.5 -65t-40.5 -51t-73.5 -29.5t-115 -11.5q-78 0 -128 16
t-76.5 51.5t-36 80t-9.5 112.5v268q0 68 9.5 112.5t36 80t76.5 51.5t128 16q100 0 153.5 -23.5t72.5 -67.5t21 -125zM238 -247l-34 45q44 26 55.5 57t11.5 88h93q0 -77 -28.5 -118.5t-97.5 -71.5z" />
    <glyph glyph-name="gcommaaccent" unicode="&#x123;" horiz-adv-x="621" 
d="M337 811l31 -41q-40 -23 -50.5 -51t-10.5 -80h-83q0 70 25.5 107.5t87.5 64.5zM253 -3q-203 0 -203 201v177q0 211 198 211q52 0 91 -21t52 -59l12 74h79v-600q0 -115 -57 -169t-159 -54q-97 0 -148 40.5t-55 133.5h91q4 -49 32.5 -68t80.5 -19q62 0 94 30.5t32 105.5v96
q-12 -32 -49 -55.5t-91 -23.5zM253 86q66 0 100 33.5t34 119.5v113q-1 78 -31.5 110.5t-93.5 34.5q-62 0 -89.5 -26t-27.5 -95v-167q0 -66 27 -94.5t81 -28.5z" />
    <glyph glyph-name="Hcircumflex" unicode="&#x124;" horiz-adv-x="581" 
d="M520 0h-95v323h-258v-324h-97v770h97v-355h258v355h95v-769zM271 953h57l124 -122v-7h-93l-57 57l-58 -57h-93v7z" />
    <glyph glyph-name="hcircumflex" unicode="&#x125;" horiz-adv-x="546" 
d="M485 0h-95v364q0 78 -26.5 107t-92.5 29q-60 0 -89.5 -31.5t-30.5 -100.5l-1 -368h-95v787h96v-255q41 60 133 60q108 0 154.5 -56.5t46.5 -169.5v-366zM229 955h57l124 -122v-7h-93l-57 57l-58 -57h-93v7z" />
    <glyph glyph-name="Hbar" unicode="&#x126;" horiz-adv-x="584" 
d="M520 0h-95v323h-258v-324h-97v561h-63v60h63v149h97v-149h258v149h95v-149h61v-60h-61v-560zM167 414h258v146h-258v-146z" />
    <glyph glyph-name="hbar" unicode="&#x127;" horiz-adv-x="544" 
d="M-1 650v60h56v77h96v-77h75v-60h-75v-118q41 60 133 60q108 0 154.5 -56.5t46.5 -169.5v-366h-95v364q0 78 -26.5 107t-92.5 29q-60 0 -89.5 -31.5t-30.5 -100.5l-1 -368h-95v650h-56z" />
    <glyph glyph-name="Itilde" unicode="&#x128;" horiz-adv-x="237" 
d="M167 -1h-97v770h97v-770zM44 814l-50 26q10 45 41.5 65.5t68.5 5.5l41 -21q34 -14 46 26l52 -23q-9 -51 -40 -70t-65 -4l-40 20q-40 16 -54 -25z" />
    <glyph glyph-name="itilde" unicode="&#x129;" horiz-adv-x="240" 
d="M167 0h-95v581h95v-581zM54 642l-46 26q9 45 38.5 65.5t64.5 5.5l38 -21q31 -14 43 26l48 -23q-9 -51 -37.5 -70t-60.5 -4l-37 20q-37 16 -51 -25z" />
    <glyph glyph-name="Imacron" unicode="&#x12a;" horiz-adv-x="237" 
d="M16 908h202v-72h-202v72zM167 -1h-97v770h97v-770z" />
    <glyph glyph-name="imacron" unicode="&#x12b;" horiz-adv-x="238" 
d="M18 758h199v-77h-199v77zM167 0h-95v581h95v-581z" />
    <glyph glyph-name="Ibreve" unicode="&#x12c;" horiz-adv-x="237" 
d="M167 -1h-97v770h97v-770zM123 813q-67 0 -97.5 30.5t-27.5 92.5h69q0 -31 11 -46t45 -15t44 15t10 46h70q3 -62 -27.5 -92.5t-96.5 -30.5z" />
    <glyph glyph-name="ibreve" unicode="&#x12d;" horiz-adv-x="240" 
d="M167 0h-95v581h95v-581zM121 642q-125 0 -120 130h67q0 -32 10.5 -48t42.5 -16t42 15.5t10 48.5h67q6 -130 -119 -130z" />
    <glyph glyph-name="Iogonek" unicode="&#x12e;" horiz-adv-x="237" 
d="M167 -1h-31q-31 -4 -45.5 -19.5t-9.5 -33.5q7 -28 46 -28q38 0 66 36l52 -37q-36 -73 -116 -76q-49 -1 -82 21t-41 60q-7 34 8.5 68.5t55.5 50.5v728h97v-770z" />
    <glyph glyph-name="iogonek" unicode="&#x12f;" horiz-adv-x="230" 
d="M63 719q0 26 18 41t39.5 15.5t39.5 -14.5t18 -42q0 -34 -29 -48.5t-57.5 -1t-28.5 49.5zM167 0h-1q-39 0 -59 -17.5t-18 -36t9 -31.5q15 -19 42 -20.5t60 28.5l46 -42q-47 -64 -115 -62t-100 52q-15 23 -18.5 49.5t11 54t48.5 42.5v564h95v-581z" />
    <glyph glyph-name="Idotaccent" unicode="&#x130;" horiz-adv-x="237" 
d="M61 872q0 34 29 48t58.5 -0.5t29.5 -48.5t-29 -48t-58.5 0.5t-29.5 48.5zM167 -1h-97v770h97v-770z" />
    <glyph glyph-name="dotlessi" unicode="&#x131;" horiz-adv-x="241" 
d="M174 0h-95v581h95v-581z" />
    <glyph glyph-name="IJ" unicode="&#x132;" horiz-adv-x="752" 
d="M173 -1h-97v770h97v-770zM466 -6q-120 0 -163.5 58t-43.5 179h90q0 -81 24.5 -113.5t94.5 -32.5q71 0 90.5 35.5t19.5 134.5v517h96v-516q0 -69 -8 -113.5t-29.5 -80t-63.5 -52t-107 -16.5z" />
    <glyph glyph-name="ij" unicode="&#x133;" horiz-adv-x="443" 
d="M167 0h-95v581h95v-581zM63 719q0 26 18 41t39.5 15.5t39.5 -14.5t18 -42q0 -34 -29 -48.5t-57.5 -1t-28.5 49.5zM382 580v-607q0 -92 -41.5 -131t-130.5 -31v85q16 -3 30.5 -1t25.5 8t17 23.5t6 46.5v607h93zM278 719q0 35 29 49.5t57.5 0.5t28.5 -50q0 -34 -29 -48.5
t-57.5 -1t-28.5 49.5z" />
    <glyph glyph-name="Jcircumflex" unicode="&#x134;" horiz-adv-x="499" 
d="M237 -6q-120 0 -163.5 58t-43.5 179h90q0 -81 24.5 -113.5t94.5 -32.5q71 0 90.5 35.5t19.5 134.5v517h96v-516q0 -69 -8 -113.5t-29.5 -80t-63.5 -52t-107 -16.5zM366 944h57l124 -122v-7h-93l-57 57l-58 -57h-93v7z" />
    <glyph glyph-name="jcircumflex" unicode="&#x135;" horiz-adv-x="241" 
d="M173 580v-607q0 -92 -41.5 -131t-130.5 -31v85q17 -3 31 -1t25 8t17 23.5t6 46.5v607h93zM102 776h52l115 -129v-7h-86l-53 60l-53 -60h-86v7z" />
    <glyph glyph-name="Kcommaaccent" unicode="&#x136;" horiz-adv-x="556" 
d="M560 0h-117l-246 332h-37v-332h-95v771h95v-340h37l230 340h112l-266 -386zM239 -206l-30 43q39 25 49.5 54t10.5 83h83q0 -72 -25.5 -111.5t-87.5 -68.5z" />
    <glyph glyph-name="kcommaaccent" unicode="&#x137;" horiz-adv-x="506" 
d="M505 0h-114l-198 260h-43v-260h-95v772h95v-422h38l181 235h116l-214 -275zM194 -209l-30 43q39 25 49.5 54t10.5 83h83q0 -72 -25.5 -111.5t-87.5 -68.5z" />
    <glyph glyph-name="kgreenlandic" unicode="&#x138;" horiz-adv-x="510" 
d="M505 0h-114l-198 260h-43v-260h-95v583h95v-233h38l181 235h116l-214 -275z" />
    <glyph glyph-name="Lacute" unicode="&#x139;" horiz-adv-x="491" 
d="M467 0h-397v771h96v-683h301v-88zM154 823h-76v5l53 127h94v-3z" />
    <glyph glyph-name="lacute" unicode="&#x13a;" horiz-adv-x="254" 
d="M70 152v620h93v-619q0 -34 13.5 -46.5t46.5 -12.5v-94q-88 0 -120.5 31t-32.5 121zM146 821h-76v5l53 127h94v-3z" />
    <glyph glyph-name="Lcommaaccent" unicode="&#x13b;" horiz-adv-x="491" 
d="M467 0h-397v771h96v-683h301v-88zM212 -227l-30 43q39 25 49.5 54t10.5 83h83q0 -72 -25.5 -111.5t-87.5 -68.5z" />
    <glyph glyph-name="lcommaaccent" unicode="&#x13c;" horiz-adv-x="254" 
d="M91 -229l-30 43q39 25 49.5 54t10.5 83h83q0 -72 -25.5 -111.5t-87.5 -68.5zM70 152v620h93v-619q0 -34 13.5 -46.5t46.5 -12.5v-94q-88 0 -120.5 31t-32.5 121z" />
    <glyph glyph-name="Lcaron" unicode="&#x13d;" horiz-adv-x="491" 
d="M350 770h85l-64 -177h-64zM467 0h-397v771h96v-683h301v-88z" />
    <glyph glyph-name="lcaron" unicode="&#x13e;" horiz-adv-x="334" 
d="M262 772h82l-47 -177h-67zM70 152v620h93v-619q0 -34 13.5 -46.5t46.5 -12.5v-94q-88 0 -120.5 31t-32.5 121z" />
    <glyph glyph-name="Ldot" unicode="&#x13f;" horiz-adv-x="491" 
d="M258 372q0 35 28 49.5t56 0t28 -49.5t-28 -49.5t-56 0t-28 49.5zM467 0h-397v771h96v-683h301v-88z" />
    <glyph glyph-name="ldot" unicode="&#x140;" horiz-adv-x="374" 
d="M237 367q0 35 28 49.5t56 0t28 -49.5t-28 -49.5t-56 0t-28 49.5zM70 152v620h93v-619q0 -34 13.5 -46.5t46.5 -12.5v-94q-88 0 -120.5 31t-32.5 121z" />
    <glyph glyph-name="Lslash" unicode="&#x141;" horiz-adv-x="491" 
d="M12 277v73l58 26v395h96v-352l156 71v-73l-156 -71v-258h301v-88h-397v303z" />
    <glyph glyph-name="lslash" unicode="&#x142;" horiz-adv-x="251" 
d="M15 311v68l55 24v369h93v-328l67 30v-69l-67 -30v-222q0 -34 13.5 -46.5t46.5 -12.5v-94q-88 0 -120.5 31t-32.5 121v183z" />
    <glyph glyph-name="Nacute" unicode="&#x143;" horiz-adv-x="550" 
d="M153 771l261 -590l-14 262v328h95v-771h-89l-254 554l6 -253v-301h-95v771h90zM310 809h-76v5l53 127h94v-3z" />
    <glyph glyph-name="nacute" unicode="&#x144;" horiz-adv-x="583" 
d="M79 0v585h85l6 -62q42 69 150 69q100 0 147 -48.5t47 -162.5v-381h-96v380q0 61 -30.5 93t-83.5 32q-57 0 -93 -32t-36 -92v-381h-96zM301 649h-76v5l53 127h94v-3z" />
    <glyph glyph-name="Ncommaaccent" unicode="&#x145;" horiz-adv-x="550" 
d="M153 771l261 -590l-14 262v328h95v-771h-89l-254 554l6 -253v-301h-95v771h90zM222 -227l-30 43q39 25 49.5 54t10.5 83h83q0 -72 -25.5 -111.5t-87.5 -68.5z" />
    <glyph glyph-name="ncommaaccent" unicode="&#x146;" horiz-adv-x="583" 
d="M79 0v585h85l6 -62q42 69 150 69q100 0 147 -48.5t47 -162.5v-381h-96v380q0 61 -30.5 93t-83.5 32q-57 0 -93 -32t-36 -92v-381h-96zM230 -227l-30 43q39 25 49.5 54t10.5 83h83q0 -72 -25.5 -111.5t-87.5 -68.5z" />
    <glyph glyph-name="Ncaron" unicode="&#x147;" horiz-adv-x="550" 
d="M153 771l261 -590l-14 262v328h95v-771h-89l-254 554l6 -253v-301h-95v771h90zM307 816h-57l-124 122v7h93l57 -57l58 57h93v-7z" />
    <glyph glyph-name="ncaron" unicode="&#x148;" horiz-adv-x="583" 
d="M79 0v585h85l6 -62q42 69 150 69q100 0 147 -48.5t47 -162.5v-381h-96v380q0 61 -30.5 93t-83.5 32q-57 0 -93 -32t-36 -92v-381h-96zM327 644h-57l-124 122v7h93l57 -57l58 57h93v-7z" />
    <glyph glyph-name="napostrophe" unicode="&#x149;" horiz-adv-x="583" 
d="M79 0v585h85l6 -62q42 69 150 69q100 0 147 -48.5t47 -162.5v-381h-96v380q0 61 -30.5 93t-83.5 32q-57 0 -93 -32t-36 -92v-381h-96z" />
    <glyph glyph-name="Eng" unicode="&#x14a;" horiz-adv-x="551" 
d="M153 771l261 -590l-14 262v328h95v-795q1 -89 -33 -135.5t-113 -46.5q-24 0 -45 6l18 73q16 -2 24 -2q42 1 55.5 26.5t13.5 77.5v17l-263 562l6 -253v-301h-95v771h90z" />
    <glyph glyph-name="eng" unicode="&#x14b;" horiz-adv-x="584" 
d="M79 0v585h85l6 -62q42 69 150 69q100 0 147 -48.5t47 -162.5v-371q3 -180 -147 -180q-26 0 -42 5l13 84q8 -2 25 -2q20 0 32 5t16.5 18t5.5 23.5t1 35.5v12v369q0 61 -30.5 93t-83.5 32q-57 0 -93 -32t-36 -92v-381h-96z" />
    <glyph glyph-name="Omacron" unicode="&#x14c;" horiz-adv-x="596" 
d="M194 921h224v-73h-224v73zM551 522v-269q0 -68 -9.5 -112.5t-36 -80t-76.5 -51.5t-128 -16t-128 16t-76.5 51.5t-36 80t-9.5 112.5v269q0 68 9.5 112.5t36 80t76.5 51.5t128 16t128 -16t76.5 -51.5t36 -80t9.5 -112.5zM455 252v271q0 42 -2 65.5t-10.5 47t-25 34.5
t-45 18t-71.5 7t-71.5 -7t-45 -18t-25 -34.5t-10.5 -47t-2 -65.5v-271q0 -52 4 -79t19 -50.5t46 -32t85 -8.5t85 8.5t46 32t19 50.5t4 79z" />
    <glyph glyph-name="omacron" unicode="&#x14d;" horiz-adv-x="538" 
d="M164 755h219v-75h-219v75zM269 73q67 0 95.5 31t28.5 109v167q0 75 -29.5 101t-94.5 26t-94.5 -26t-29.5 -101v-167q0 -78 29 -109t95 -31zM269 -10q-118 0 -168.5 51.5t-50.5 171.5v167q0 112 56.5 162t162.5 50t162.5 -50t56.5 -162v-167q0 -119 -51.5 -171t-167.5 -52
z" />
    <glyph glyph-name="Obreve" unicode="&#x14e;" horiz-adv-x="596" 
d="M551 522v-269q0 -68 -9.5 -112.5t-36 -80t-76.5 -51.5t-128 -16t-128 16t-76.5 51.5t-36 80t-9.5 112.5v269q0 68 9.5 112.5t36 80t76.5 51.5t128 16t128 -16t76.5 -51.5t36 -80t9.5 -112.5zM455 252v271q0 42 -2 65.5t-10.5 47t-25 34.5t-45 18t-71.5 7t-71.5 -7
t-45 -18t-25 -34.5t-10.5 -47t-2 -65.5v-271q0 -52 4 -79t19 -50.5t46 -32t85 -8.5t85 8.5t46 32t19 50.5t4 79zM307 831q-133 0 -127 131h71q0 -32 11 -48.5t45 -16.5t44.5 16t10.5 49h71q6 -131 -126 -131z" />
    <glyph glyph-name="obreve" unicode="&#x14f;" horiz-adv-x="538" 
d="M269 73q67 0 95.5 31t28.5 109v167q0 75 -29.5 101t-94.5 26t-94.5 -26t-29.5 -101v-167q0 -78 29 -109t95 -31zM269 -10q-118 0 -168.5 51.5t-50.5 171.5v167q0 112 56.5 162t162.5 50t162.5 -50t56.5 -162v-167q0 -119 -51.5 -171t-167.5 -52zM275 649q-133 0 -127 131
h71q0 -32 11 -48.5t45 -16.5t44.5 16t10.5 49h71q6 -131 -126 -131z" />
    <glyph glyph-name="Ohungarumlaut" unicode="&#x150;" horiz-adv-x="596" 
d="M551 522v-269q0 -68 -9.5 -112.5t-36 -80t-76.5 -51.5t-128 -16t-128 16t-76.5 51.5t-36 80t-9.5 112.5v269q0 68 9.5 112.5t36 80t76.5 51.5t128 16t128 -16t76.5 -51.5t36 -80t9.5 -112.5zM455 252v271q0 42 -2 65.5t-10.5 47t-25 34.5t-45 18t-71.5 7t-71.5 -7
t-45 -18t-25 -34.5t-10.5 -47t-2 -65.5v-271q0 -52 4 -79t19 -50.5t46 -32t85 -8.5t85 8.5t46 32t19 50.5t4 79zM192 835l65 114h94v-2l-79 -112h-80zM346 834l65 115h94v-2l-78 -113h-81z" />
    <glyph glyph-name="ohungarumlaut" unicode="&#x151;" horiz-adv-x="538" 
d="M269 73q67 0 95.5 31t28.5 109v167q0 75 -29.5 101t-94.5 26t-94.5 -26t-29.5 -101v-167q0 -78 29 -109t95 -31zM269 -10q-118 0 -168.5 51.5t-50.5 171.5v167q0 112 56.5 162t162.5 50t162.5 -50t56.5 -162v-167q0 -119 -51.5 -171t-167.5 -52zM144 657l65 114h94v-2
l-79 -112h-80zM298 656l65 115h94v-2l-78 -113h-81z" />
    <glyph glyph-name="OE" unicode="&#x152;" horiz-adv-x="744" 
d="M301 772h391v-84h-247v-232h219v-89h-219v-278h257v-89h-401q-78 0 -128 15.5t-76.5 51t-36 79.5t-9.5 112v254q0 68 9.5 112.5t36 80t76.5 51.5t128 16zM147 257q0 -52 4 -79.5t19 -52t46.5 -33.5t84.5 -9h54v609h-54q-43 0 -71.5 -7.5t-45 -19.5t-25 -37t-10.5 -49
t-2 -66v-256z" />
    <glyph glyph-name="oe" unicode="&#x153;" horiz-adv-x="862" 
d="M725 168h93q0 -178 -217 -178q-131 0 -164 92q-44 -92 -168 -92q-118 0 -168.5 51.5t-50.5 171.5v167q0 112 56.5 162t162.5 50q128 0 167 -84q42 84 165 84q219 0 219 -212v-127h-343v-44q0 -76 28.5 -103t95.5 -27q124 0 124 89zM269 73q66 0 94.5 30.5t29.5 109.5v167
q0 75 -29.5 101t-94.5 26t-94.5 -26t-29.5 -101v-167q0 -78 29 -109t95 -31zM477 380v-42h251v42q0 74 -32 100.5t-95 26.5q-62 0 -92.5 -26t-31.5 -101z" />
    <glyph glyph-name="Racute" unicode="&#x154;" horiz-adv-x="540" 
d="M496 508q0 -96 -33 -149t-111 -68l167 -291h-112l-155 285h-87v-286h-95v773l207 1q106 0 162.5 -49.5t56.5 -161.5v-54zM277 682h-112v-306h112q67 0 95.5 27.5t28.5 104.5v54q0 74 -26.5 95t-97.5 25zM298 834h-76v5l53 127h94v-3z" />
    <glyph glyph-name="racute" unicode="&#x155;" horiz-adv-x="335" 
d="M319 585v-97q-72 12 -118 -18t-46 -95v-376h-95v586h87l4 -54q22 34 68.5 49.5t99.5 4.5zM213 660h-72v5l50 118h89v-3z" />
    <glyph glyph-name="Rcommaaccent" unicode="&#x156;" horiz-adv-x="540" 
d="M496 508q0 -96 -33 -149t-111 -68l167 -291h-112l-155 285h-87v-286h-95v773l207 1q106 0 162.5 -49.5t56.5 -161.5v-54zM277 682h-112v-306h112q67 0 95.5 27.5t28.5 104.5v54q0 74 -26.5 95t-97.5 25zM222 -227l-30 43q39 25 49.5 54t10.5 83h83q0 -72 -25.5 -111.5
t-87.5 -68.5z" />
    <glyph glyph-name="rcommaaccent" unicode="&#x157;" horiz-adv-x="335" 
d="M319 585v-97q-72 12 -118 -18t-46 -95v-376h-95v586h87l4 -54q22 34 68.5 49.5t99.5 4.5zM32 -214l-31 39q41 23 51.5 50t10.5 76h86q0 -66 -26 -102t-91 -63z" />
    <glyph glyph-name="Rcaron" unicode="&#x158;" horiz-adv-x="540" 
d="M496 508q0 -96 -33 -149t-111 -68l167 -291h-112l-155 285h-87v-286h-95v773l207 1q106 0 162.5 -49.5t56.5 -161.5v-54zM277 682h-112v-306h112q67 0 95.5 27.5t28.5 104.5v54q0 74 -26.5 95t-97.5 25zM300 825h-57l-124 122v7h93l57 -57l58 57h93v-7z" />
    <glyph glyph-name="rcaron" unicode="&#x159;" horiz-adv-x="344" 
d="M319 585v-97q-72 12 -118 -18t-46 -95v-376h-95v586h87l4 -54q22 34 68.5 49.5t99.5 4.5zM229 649h-57l-124 122v7h93l57 -57l58 57h93v-7z" />
    <glyph glyph-name="Sacute" unicode="&#x15a;" horiz-adv-x="567" 
d="M501 581h-99q-4 53 -30 80.5t-93 27.5q-75 0 -101.5 -31t-26.5 -95q0 -16 3 -29t7 -23t13 -18.5t15.5 -14t20.5 -10t21.5 -7t26 -5t26 -3.5t29 -3t28.5 -3q181 -18 181 -214q0 -125 -51.5 -181t-170.5 -56h-19q-226 0 -237 208h103q4 -54 34 -84.5t99 -30.5h19
q74 0 99.5 33t25.5 106q0 44 -11.5 71t-40.5 40t-49.5 16.5t-67.5 7.5q-2 0 -3 0.5t-3 0.5h-4q-37 3 -68.5 13.5t-61 32.5t-46.5 60.5t-17 91.5q0 110 54 163.5t173 53.5q112 0 164.5 -50t57.5 -148zM318 831h-76v5l53 127h94v-3z" />
    <glyph glyph-name="sacute" unicode="&#x15b;" horiz-adv-x="488" 
d="M441 420h-91q0 86 -107 86q-105 0 -105 -93q0 -23 7.5 -37.5t24 -21.5t33.5 -9.5t44 -4.5h4t3.5 -0.5t4 -0.5h3.5q34 -3 55 -6.5t51 -13.5t47 -26.5t29.5 -46t12.5 -70.5q0 -89 -56.5 -135t-150.5 -46q-204 0 -212 186h96q7 -99 116 -99q53 0 82.5 25t29.5 68
q0 20 -8.5 34.5t-19.5 22t-32.5 13t-36.5 7t-43 3.5q-179 13 -179 158q0 81 52 130t151 49q100 0 148.5 -44.5t46.5 -127.5zM281 643h-76v5l53 127h94v-3z" />
    <glyph glyph-name="Scircumflex" unicode="&#x15c;" horiz-adv-x="567" 
d="M501 581h-99q-4 53 -30 80.5t-93 27.5q-75 0 -101.5 -31t-26.5 -95q0 -16 3 -29t7 -23t13 -18.5t15.5 -14t20.5 -10t21.5 -7t26 -5t26 -3.5t29 -3t28.5 -3q181 -18 181 -214q0 -125 -51.5 -181t-170.5 -56h-19q-226 0 -237 208h103q4 -54 34 -84.5t99 -30.5h19
q74 0 99.5 33t25.5 106q0 44 -11.5 71t-40.5 40t-49.5 16.5t-67.5 7.5q-2 0 -3 0.5t-3 0.5h-4q-37 3 -68.5 13.5t-61 32.5t-46.5 60.5t-17 91.5q0 110 54 163.5t173 53.5q112 0 164.5 -50t57.5 -148zM260 954h57l124 -122v-7h-93l-57 57l-58 -57h-93v7z" />
    <glyph glyph-name="scircumflex" unicode="&#x15d;" horiz-adv-x="488" 
d="M441 420h-91q0 86 -107 86q-105 0 -105 -93q0 -23 7.5 -37.5t24 -21.5t33.5 -9.5t44 -4.5h4t3.5 -0.5t4 -0.5h3.5q34 -3 55 -6.5t51 -13.5t47 -26.5t29.5 -46t12.5 -70.5q0 -89 -56.5 -135t-150.5 -46q-204 0 -212 186h96q7 -99 116 -99q53 0 82.5 25t29.5 68
q0 20 -8.5 34.5t-19.5 22t-32.5 13t-36.5 7t-43 3.5q-179 13 -179 158q0 81 52 130t151 49q100 0 148.5 -44.5t46.5 -127.5zM227 783h57l124 -122v-7h-93l-57 57l-58 -57h-93v7z" />
    <glyph glyph-name="Scedilla" unicode="&#x15e;" horiz-adv-x="567" 
d="M233 -78l-2 -1l19 76q-196 13 -206 207h103q4 -54 34 -84.5t99 -30.5h19q74 0 99.5 33t25.5 106q0 44 -11.5 71t-40.5 40t-49.5 16.5t-67.5 7.5q-2 0 -3 0.5t-3 0.5h-4q-37 3 -68.5 13.5t-61 32.5t-46.5 60.5t-17 91.5q0 110 54 163.5t173 53.5q112 0 164.5 -50
t57.5 -148h-99q-4 53 -30 80.5t-93 27.5q-75 0 -101.5 -31t-26.5 -95q0 -16 3 -29t7 -23t13 -18.5t15.5 -14t20.5 -10t21.5 -7t26 -5t26 -3.5t29 -3t28.5 -3q181 -18 181 -214q0 -121 -48 -177t-158 -60l-8 -36q51 3 71 -30.5t13 -72.5q-9 -43 -43 -67.5t-78 -21.5
q-66 4 -94 49l35 51q20 -35 61 -35q39 0 48 33q6 27 -17 42.5t-57 1.5z" />
    <glyph glyph-name="scedilla" unicode="&#x15f;" horiz-adv-x="488" 
d="M197 -78l-2 -1l19 76q-170 15 -176 184h96q7 -99 116 -99q53 0 82.5 25t29.5 68q0 20 -8.5 34.5t-19.5 22t-32.5 13t-36.5 7t-43 3.5q-179 13 -179 158q0 81 52 130t151 49q100 0 148.5 -44.5t46.5 -127.5h-91q0 86 -107 86q-105 0 -105 -93q0 -23 7.5 -37.5t24 -21.5
t33.5 -9.5t44 -4.5h4t3.5 -0.5t4 -0.5h3.5q34 -3 55 -6.5t51 -13.5t47 -26.5t29.5 -46t12.5 -70.5q0 -82 -48.5 -127.5t-130.5 -51.5l-8 -38q50 3 70 -30t13 -71q-9 -42 -42 -65.5t-78 -21.5q-64 4 -91 48l34 50q21 -34 59 -34q39 0 48 32q6 26 -16.5 41.5t-55.5 1.5z" />
    <glyph glyph-name="Scaron" unicode="&#x160;" horiz-adv-x="567" 
d="M320 825h-57l-124 122v7h93l57 -57l58 57h93v-7zM501 581h-99q-4 53 -30 80.5t-93 27.5q-75 0 -101.5 -31t-26.5 -95q0 -16 3 -29t7 -23t13 -18.5t15.5 -14t20.5 -10t21.5 -7t26 -5t26 -3.5t29 -3t28.5 -3q181 -18 181 -214q0 -125 -51.5 -181t-170.5 -56h-19
q-226 0 -237 208h103q4 -54 34 -84.5t99 -30.5h19q74 0 99.5 33t25.5 106q0 44 -11.5 71t-40.5 40t-49.5 16.5t-67.5 7.5q-2 0 -3 0.5t-3 0.5h-4q-37 3 -68.5 13.5t-61 32.5t-46.5 60.5t-17 91.5q0 110 54 163.5t173 53.5q112 0 164.5 -50t57.5 -148z" />
    <glyph glyph-name="scaron" unicode="&#x161;" horiz-adv-x="488" 
d="M441 420h-91q0 86 -107 86q-105 0 -105 -93q0 -23 7.5 -37.5t24 -21.5t33.5 -9.5t44 -4.5h4t3.5 -0.5t4 -0.5h3.5q34 -3 55 -6.5t51 -13.5t47 -26.5t29.5 -46t12.5 -70.5q0 -89 -56.5 -135t-150.5 -46q-204 0 -212 186h96q7 -99 116 -99q53 0 82.5 25t29.5 68
q0 20 -8.5 34.5t-19.5 22t-32.5 13t-36.5 7t-43 3.5q-179 13 -179 158q0 81 52 130t151 49q100 0 148.5 -44.5t46.5 -127.5zM274 644h-57l-124 122v7h93l57 -57l58 57h93v-7z" />
    <glyph glyph-name="Tcommaaccent" unicode="&#x162;" horiz-adv-x="431" 
d="M423 679h-160v-679h-25l-10 -44q50 3 70 -30t13 -71q-9 -42 -42 -65.5t-78 -21.5q-66 4 -93 48l34 50q21 -34 61 -34q39 0 48 32q6 26 -16.5 41.5t-57.5 1.5l-14 12l-2 -1l21 82h-4v679h-160v88h415v-88z" />
    <glyph glyph-name="tcommaaccent" unicode="&#x163;" horiz-adv-x="293" 
d="M64 161v526l93 11v-116h101v-90h-101v-328q0 -46 24 -64.5t81 -11.5v-88q-36 -4 -68 -1l-11 -35q45 3 63 -27t12 -65q-8 -39 -38 -61t-70 -19q-57 2 -83 44l30 45q19 -31 54 -31t44 29q6 24 -15 38.5t-51 1.5l-13 11l-2 -1l25 82q-75 32 -75 150z" />
    <glyph glyph-name="Tcaron" unicode="&#x164;" horiz-adv-x="437" 
d="M423 679h-160v-679h-95v679h-160v88h415v-88zM246 824h-57l-124 122v7h93l57 -57l58 57h93v-7z" />
    <glyph glyph-name="tcaron" unicode="&#x165;" horiz-adv-x="398" 
d="M320 702h83l-51 -166h-61zM64 161v526l93 11v-116h73v-86h-73v-332q0 -46 24 -64.5t81 -11.5v-88q-110 -12 -154 30t-44 131z" />
    <glyph glyph-name="Tbar" unicode="&#x166;" horiz-adv-x="432" 
d="M423 679h-160v-246h95v-67h-95v-366h-95v366h-93v67h93v246h-160v88h415v-88z" />
    <glyph glyph-name="tbar" unicode="&#x167;" horiz-adv-x="282" 
d="M13 311v60h51v316l93 11v-116h101v-90h-101v-121h70v-60h-70v-147q0 -46 24 -64.5t81 -11.5v-88q-110 -12 -154 30t-44 131v150h-51z" />
    <glyph glyph-name="Utilde" unicode="&#x168;" horiz-adv-x="602" 
d="M440 253v519h96v-518q0 -133 -52.5 -196.5t-184.5 -63.5t-185.5 63.5t-53.5 196.5v517h96v-518q0 -96 28.5 -133t114.5 -37t113.5 37t27.5 133zM222 814l-55 26q11 45 45.5 65.5t76.5 5.5l45 -21q38 -14 51 26l57 -23q-10 -51 -44 -70t-72 -4l-44 20q-45 16 -60 -25z" />
    <glyph glyph-name="utilde" unicode="&#x169;" horiz-adv-x="583" 
d="M513 581v-581h-85l-6 62q-42 -69 -150 -69q-100 0 -147 48.5t-47 162.5v377h96v-376q0 -61 30.5 -93t83.5 -32q57 0 93 32t36 92v377h96zM214 642l-55 26q11 45 45.5 65.5t76.5 5.5l45 -21q38 -14 51 26l57 -23q-10 -51 -44 -70t-72 -4l-44 20q-45 16 -60 -25z" />
    <glyph glyph-name="Umacron" unicode="&#x16a;" horiz-adv-x="602" 
d="M185 912h226v-78h-226v78zM440 253v519h96v-518q0 -133 -52.5 -196.5t-184.5 -63.5t-185.5 63.5t-53.5 196.5v517h96v-518q0 -96 28.5 -133t114.5 -37t113.5 37t27.5 133z" />
    <glyph glyph-name="umacron" unicode="&#x16b;" horiz-adv-x="583" 
d="M190 757h228v-76h-228v76zM513 581v-581h-85l-6 62q-42 -69 -150 -69q-100 0 -147 48.5t-47 162.5v377h96v-376q0 -61 30.5 -93t83.5 -32q57 0 93 32t36 92v377h96z" />
    <glyph glyph-name="Ubreve" unicode="&#x16c;" horiz-adv-x="602" 
d="M440 253v519h96v-518q0 -133 -52.5 -196.5t-184.5 -63.5t-185.5 63.5t-53.5 196.5v517h96v-518q0 -96 28.5 -133t114.5 -37t113.5 37t27.5 133zM306 819q-133 0 -127 131h71q0 -32 11 -48.5t45 -16.5t44.5 16t10.5 49h71q6 -131 -126 -131z" />
    <glyph glyph-name="ubreve" unicode="&#x16d;" horiz-adv-x="583" 
d="M513 581v-581h-85l-6 62q-42 -69 -150 -69q-100 0 -147 48.5t-47 162.5v377h96v-376q0 -61 30.5 -93t83.5 -32q57 0 93 32t36 92v377h96zM304 642q-133 0 -127 131h71q0 -33 11 -49t45 -16t44.5 16t10.5 49h71q6 -131 -126 -131z" />
    <glyph glyph-name="Uring" unicode="&#x16e;" horiz-adv-x="602" 
d="M440 253v519h96v-518q0 -133 -52.5 -196.5t-184.5 -63.5t-185.5 63.5t-53.5 196.5v517h96v-518q0 -96 28.5 -133t114.5 -37t113.5 37t27.5 133zM197 891q0 42 30.5 66t73.5 24q42 0 73.5 -23.5t31.5 -65.5q0 -43 -30.5 -67.5t-75.5 -24.5t-74.5 24t-28.5 67zM301 930
q-28 0 -39.5 -20t0 -39.5t39.5 -19.5q30 0 41.5 19.5t-0.5 39.5t-41 20z" />
    <glyph glyph-name="uring" unicode="&#x16f;" horiz-adv-x="583" 
d="M513 581v-581h-85l-6 62q-42 -69 -150 -69q-100 0 -147 48.5t-47 162.5v377h96v-376q0 -61 30.5 -93t83.5 -32q57 0 93 32t36 92v377h96zM201 704q0 42 30.5 66t73.5 24q42 0 73.5 -23.5t31.5 -65.5q0 -43 -30.5 -67.5t-75.5 -24.5t-74.5 24t-28.5 67zM305 743
q-28 0 -39.5 -19.5t0 -39.5t39.5 -20q30 0 41.5 20t-0.5 39.5t-41 19.5z" />
    <glyph glyph-name="Uhungarumlaut" unicode="&#x170;" horiz-adv-x="602" 
d="M440 253v519h96v-518q0 -133 -52.5 -196.5t-184.5 -63.5t-185.5 63.5t-53.5 196.5v517h96v-518q0 -96 28.5 -133t114.5 -37t113.5 37t27.5 133zM175 827l65 114h94v-2l-79 -112h-80zM329 826l65 115h94v-2l-78 -113h-81z" />
    <glyph glyph-name="uhungarumlaut" unicode="&#x171;" horiz-adv-x="583" 
d="M513 581v-581h-85l-6 62q-42 -69 -150 -69q-100 0 -147 48.5t-47 162.5v377h96v-376q0 -61 30.5 -93t83.5 -32q57 0 93 32t36 92v377h96zM175 661l65 114h94v-2l-79 -112h-80zM329 660l65 115h94v-2l-78 -113h-81z" />
    <glyph glyph-name="Uogonek" unicode="&#x172;" horiz-adv-x="602" 
d="M475 -57l43 -52q-45 -52 -100 -55q-115 -4 -136 74q-6 16 -0.5 42.5t21.5 41.5h-4q-132 0 -185.5 63.5t-53.5 196.5v517h96v-518q0 -96 28.5 -133t114.5 -37t113.5 37t27.5 133v519h96v-518q0 -104 -31.5 -165t-105.5 -83q-22 -9 -32.5 -28.5t-2.5 -37.5q12 -28 50 -27
q34 2 61 30z" />
    <glyph glyph-name="uogonek" unicode="&#x173;" horiz-adv-x="585" 
d="M513 581v-613q-42 7 -68.5 -17t-16.5 -53t44 -28q28 2 50 24l38 -44q-32 -38 -85 -41q-88 -3 -110 66q-12 34 4.5 71t58.5 52l-6 64q-42 -69 -150 -69q-100 0 -147 48.5t-47 162.5v377h96v-376q0 -61 30.5 -93t83.5 -32q57 0 93 32t36 92v377h96z" />
    <glyph glyph-name="Wcircumflex" unicode="&#x174;" horiz-adv-x="803" 
d="M237 158l132 572h74l132 -572l56 288l74 326h98l-184 -773h-87l-65 259l-61 277l-61 -277l-65 -259h-87l-184 773h98l74 -326zM377 930h57l124 -122v-7h-93l-57 57l-58 -57h-93v7z" />
    <glyph glyph-name="wcircumflex" unicode="&#x175;" horiz-adv-x="733" 
d="M574 390l60 195h100l-168 -586h-95l-48 171l-52 227l-53 -230l-47 -168h-95l-168 586h100l60 -195q12 -40 21.5 -82.5t20.5 -103t14 -72.5q27 138 58 260l54 193h70l55 -193q26 -103 57 -260q3 12 14 72.5t20.5 103t21.5 82.5zM340 780h57l124 -122v-7h-93l-57 57
l-58 -57h-93v7z" />
    <glyph glyph-name="Ycircumflex" unicode="&#x176;" horiz-adv-x="463" 
d="M163 622l68 -192l68 192l62 150h103l-186 -449v-324h-95v324l-185 449h103zM201 954h57l124 -122v-7h-93l-57 57l-58 -57h-93v7z" />
    <glyph glyph-name="ycircumflex" unicode="&#x177;" horiz-adv-x="479" 
d="M175 397l75 -271q21 107 73 277l57 182h99l-183 -586l-35 -111q-28 -88 -79 -112t-134 10l17 81q18 -7 32 -10t30 0t28.5 17.5t21.5 41.5l24 83l-186 586h104zM218 786h57l124 -122v-7h-93l-57 57l-58 -57h-93v7z" />
    <glyph glyph-name="Ydieresis" unicode="&#x178;" horiz-adv-x="461" 
d="M163 622l68 -192l68 192l62 150h103l-186 -449v-324h-95v324l-185 449h103zM64 889q0 35 29 49.5t57.5 0.5t28.5 -50q0 -34 -28.5 -48.5t-57.5 -1t-29 49.5zM282 889q0 35 29 49.5t57.5 0.5t28.5 -50q0 -34 -29 -48.5t-57.5 -1t-28.5 49.5z" />
    <glyph glyph-name="Zacute" unicode="&#x179;" horiz-adv-x="463" 
d="M457 772l-308 -685h297v-87h-432l308 688h-267v84h402zM282 827h-76v5l53 127h94v-3z" />
    <glyph glyph-name="zacute" unicode="&#x17a;" horiz-adv-x="481" 
d="M31 0v15l288 483h-261v87h402v-17l-284 -479h290v-89h-435zM286 647h-76v5l53 127h94v-3z" />
    <glyph glyph-name="Zdotaccent" unicode="&#x17b;" horiz-adv-x="459" 
d="M204 879q0 34 27 47.5t54 0t27 -47.5t-27 -47.5t-54 0t-27 47.5zM457 772l-308 -685h297v-87h-432l308 688h-267v84h402z" />
    <glyph glyph-name="zdotaccent" unicode="&#x17c;" horiz-adv-x="481" 
d="M31 0v15l288 483h-261v87h402v-17l-284 -479h290v-89h-435zM203 719q0 26 18 41t39.5 15.5t39.5 -14.5t18 -42q0 -34 -29 -48.5t-57.5 -1t-28.5 49.5z" />
    <glyph glyph-name="Zcaron" unicode="&#x17d;" horiz-adv-x="470" 
d="M457 772l-308 -685h297v-87h-432l308 688h-267v84h402zM288 820h-57l-124 122v7h93l57 -57l58 57h93v-7z" />
    <glyph glyph-name="zcaron" unicode="&#x17e;" horiz-adv-x="486" 
d="M31 0v15l288 483h-261v87h402v-17l-284 -479h290v-89h-435zM291 644h-57l-124 122v7h93l57 -57l58 57h93v-7z" />
    <glyph glyph-name="longs" unicode="&#x17f;" horiz-adv-x="309" 
d="M59 -1v564q0 117 63.5 171t173.5 44v-87q-71 7 -106.5 -20t-35.5 -108v-564h-95z" />
    <glyph glyph-name="florin" unicode="&#x192;" horiz-adv-x="386" 
d="M27 455v88h103v20q0 117 63.5 171t173.5 44v-87q-71 7 -106.5 -20t-35.5 -108v-20h125v-88h-125v-422q0 -117 -63.5 -171t-173.5 -44v87q71 -7 106.5 20t35.5 108v422h-103z" />
    <glyph glyph-name="Ohorn" unicode="&#x1a0;" horiz-adv-x="621" 
d="M559 522v-269q0 -68 -9.5 -112.5t-36 -80t-76.5 -51.5t-128 -16t-128 16t-76.5 51.5t-36 80t-9.5 112.5v269q0 68 9.5 112.5t36 80t76.5 51.5t128 16q64 0 116 -13h20q33 -1 44.5 9.5t11.5 43.5v7h79v-7q0 -88 -67 -107q46 -56 46 -193zM463 252v271q0 42 -2 65.5
t-10.5 47t-25 34.5t-45 18t-71.5 7t-71.5 -7t-45 -18t-25 -34.5t-10.5 -47t-2 -65.5v-271q0 -52 4 -79t19 -50.5t46 -32t85 -8.5t85 8.5t46 32t19 50.5t4 79z" />
    <glyph glyph-name="ohorn" unicode="&#x1a1;" horiz-adv-x="538" 
d="M269 -10q-118 0 -168.5 51.5t-50.5 171.5v167q0 112 56.5 162t162.5 50q56 0 96 -13h18q32 0 43.5 10t11.5 43v7h79v-7q0 -89 -70 -107q41 -54 41 -145v-167q0 -119 -51.5 -171t-167.5 -52zM269 73q67 0 95.5 31t28.5 109v167q0 75 -29.5 101t-94.5 26t-94.5 -26
t-29.5 -101v-167q0 -78 29 -109t95 -31z" />
    <glyph glyph-name="Uhorn" unicode="&#x1af;" horiz-adv-x="602" 
d="M440 253v519h80q22 7 22 50v7h79v-7q0 -98 -85 -110v-458q0 -133 -52.5 -196.5t-184.5 -63.5t-185.5 63.5t-53.5 196.5v517h96v-518q0 -96 28.5 -133t114.5 -37t113.5 37t27.5 133z" />
    <glyph glyph-name="uhorn" unicode="&#x1b0;" horiz-adv-x="571" 
d="M586 639v-7q0 -98 -85 -110v-522h-85l-6 62q-42 -69 -150 -69q-100 0 -147 48.5t-47 162.5v377h96v-376q0 -61 30.5 -93t83.5 -32q57 0 93 32t36 92v377h76q26 7 26 51v7h79z" />
    <glyph glyph-name="Aringacute" unicode="&#x1fa;" horiz-adv-x="516" 
d="M294 988h108l-101 -82h-79v4zM155 781q0 48 31.5 74.5t75.5 26.5t76 -26t32 -74q0 -51 -41 -82l186 -700h-98l-39 143h-231l-39 -143h-99l186 699q-41 28 -40 82zM313 397l-51 248l-52 -251l-39 -161h182zM262 823q-29 0 -41 -21t0 -42t41 -21q30 0 42 21t-0.5 42
t-41.5 21z" />
    <glyph glyph-name="aringacute" unicode="&#x1fb;" horiz-adv-x="513" 
d="M287 916h96l-86 -84h-73v3zM461 395v-395h-86l-8 79q-17 -35 -57.5 -59.5t-91.5 -24.5q-160 0 -174 140q-7 77 41.5 129t138.5 65q45 7 141 9v57q0 54 -24.5 81.5t-86.5 27.5q-45 0 -69 -21.5t-23 -76.5h-93q-3 95 45 140t143 45q100 0 152 -46.5t52 -149.5zM367 259
q-90 0 -135 -10q-102 -22 -92 -102q5 -61 88 -61q134 0 139 173zM164 711q0 43 30.5 67.5t72.5 24.5q41 0 72 -24t31 -67t-30 -68t-74 -25t-73.5 24.5t-28.5 67.5zM267 751q-27 0 -38.5 -19.5t0 -39.5t38.5 -20q29 0 40.5 20t-0.5 39.5t-40 19.5z" />
    <glyph glyph-name="AEacute" unicode="&#x1fc;" horiz-adv-x="742" 
d="M478 817h-76v4l53 117h94v-3zM309 772h398v-81h-262v-235h246v-85h-246v-286h271v-85h-359v184h-188l-70 -184h-97zM201 269h156v416l-60 -172z" />
    <glyph glyph-name="aeacute" unicode="&#x1fd;" horiz-adv-x="834" 
d="M691 168h93q0 -89 -49.5 -133.5t-161.5 -44.5q-71 0 -111.5 21t-63.5 66q-37 -46 -78.5 -66.5t-97.5 -20.5q-159 0 -174 145q-8 78 39 129.5t141 64.5q45 7 144 9v57q0 53 -25.5 81t-88.5 28q-45 0 -69 -21.5t-23 -76.5h-93q-3 95 45 140t143 45q115 0 153 -70
q45 71 159 71q104 0 158.5 -50t54.5 -162v-127h-332v-44q0 -77 26.5 -103.5t92.5 -26.5q63 0 90.5 21.5t27.5 67.5zM454 380v-42h240v42q0 74 -29.5 100.5t-91.5 26.5t-90.5 -26t-28.5 -101zM374 256q-106 0 -138 -7q-102 -22 -92 -102q3 -32 27.5 -47.5t60.5 -15.5
q137 0 142 172zM455 649h-76v5l53 127h94v-3z" />
    <glyph glyph-name="Oslashacute" unicode="&#x1fe;" horiz-adv-x="596" 
d="M551 522v-269q0 -68 -9.5 -112.5t-36 -80t-76.5 -51.5t-128 -16q-63 0 -110 11l-30 -80h-80l42 111q-41 30 -56.5 82t-15.5 136v269q0 68 9.5 112.5t36 80t76.5 51.5t128 16q53 0 100 -10l32 84h80l-42 -110q46 -29 63 -83t17 -141zM455 252v271q0 94 -20 127l-212 -561
q28 -7 78 -7q54 0 85 8.5t46 32t19 50.5t4 79zM147 252q0 -87 14 -116l209 553q-28 6 -69 6q-43 0 -71.5 -7t-45 -18t-25 -34.5t-10.5 -47t-2 -65.5v-271zM339 840h-77v4l54 115h94v-3z" />
    <glyph glyph-name="oslashacute" unicode="&#x1ff;" horiz-adv-x="538" 
d="M158 -73h-80l41 98q-69 49 -69 188v167q0 112 56.5 162t162.5 50q45 0 83 -9l27 65h80l-40 -96q69 -52 69 -172v-167q0 -119 -51.5 -171t-167.5 -52q-44 0 -82 8zM145 213q0 -56 15 -89l158 378q-23 5 -49 5q-65 0 -94.5 -26t-29.5 -101v-167zM269 73q67 0 95.5 31
t28.5 109v167q0 49 -14 77l-158 -379q17 -5 48 -5zM298 660h-77v4l54 115h94v-3z" />
    <glyph glyph-name="Scommaaccent" unicode="&#x218;" horiz-adv-x="568" 
d="M224 -229l-39 48q41 25 51.5 54t10.5 82h86q0 -75 -23.5 -116.5t-85.5 -67.5zM501 581h-99q-4 53 -30 80.5t-93 27.5q-75 0 -101.5 -31t-26.5 -95q0 -16 3 -29t7 -23t13 -18.5t15.5 -14t20.5 -10t21.5 -7t26 -5t26 -3.5t29 -3t28.5 -3q181 -18 181 -214
q0 -125 -51.5 -181t-170.5 -56h-19q-226 0 -237 208h103q4 -54 34 -84.5t99 -30.5h19q74 0 99.5 33t25.5 106q0 44 -11.5 71t-40.5 40t-49.5 16.5t-67.5 7.5q-2 0 -3 0.5t-3 0.5h-4q-37 3 -68.5 13.5t-61 32.5t-46.5 60.5t-17 91.5q0 110 54 163.5t173 53.5q112 0 164.5 -50
t57.5 -148z" />
    <glyph glyph-name="scommaaccent" unicode="&#x219;" horiz-adv-x="488" 
d="M191 -240l-39 48q41 25 51.5 54t10.5 82h86q0 -75 -23.5 -116.5t-85.5 -67.5zM441 420h-91q0 86 -107 86q-105 0 -105 -93q0 -23 7.5 -37.5t24 -21.5t33.5 -9.5t44 -4.5h4t3.5 -0.5t4 -0.5h3.5q34 -3 55 -6.5t51 -13.5t47 -26.5t29.5 -46t12.5 -70.5q0 -89 -56.5 -135
t-150.5 -46q-204 0 -212 186h96q7 -99 116 -99q53 0 82.5 25t29.5 68q0 20 -8.5 34.5t-19.5 22t-32.5 13t-36.5 7t-43 3.5q-179 13 -179 158q0 81 52 130t151 49q100 0 148.5 -44.5t46.5 -127.5z" />
    <glyph glyph-name="uni021A" unicode="&#x21a;" horiz-adv-x="433" 
d="M151 -240l-39 48q41 25 51.5 54t10.5 82h86q0 -75 -23.5 -116.5t-85.5 -67.5zM423 679h-160v-679h-95v679h-160v88h415v-88z" />
    <glyph glyph-name="uni021B" unicode="&#x21b;" horiz-adv-x="291" 
d="M116 -240l-39 48q41 25 51.5 54t10.5 82h86q0 -75 -23.5 -116.5t-85.5 -67.5zM64 161v526l93 11v-116h101v-90h-101v-328q0 -46 24 -64.5t81 -11.5v-88q-110 -12 -154 30t-44 131z" />
    <glyph glyph-name="dotlessj" unicode="&#x237;" horiz-adv-x="242" 
d="M173 580v-607q0 -92 -41.5 -131t-130.5 -31v85q17 -3 31 -1t25 8t17 23.5t6 46.5v607h93z" />
    <glyph glyph-name="circumflex" unicode="&#x2c6;" horiz-adv-x="355" 
d="M146 776h57l124 -122v-7h-93l-57 57l-58 -57h-93v7z" />
    <glyph glyph-name="caron" unicode="&#x2c7;" horiz-adv-x="414" 
d="M238 644h-57l-124 122v7h93l57 -57l58 57h93v-7z" />
    <glyph glyph-name="breve" unicode="&#x2d8;" horiz-adv-x="314" 
d="M155 642q-133 0 -127 131h71q0 -33 11 -49t45 -16t44.5 16t10.5 49h71q6 -131 -126 -131z" />
    <glyph glyph-name="dotaccent" unicode="&#x2d9;" horiz-adv-x="212" 
d="M50 725q0 35 29 49.5t57.5 0.5t28.5 -50q0 -34 -28.5 -48.5t-57.5 -1t-29 49.5z" />
    <glyph glyph-name="ring" unicode="&#x2da;" horiz-adv-x="320" 
d="M61 673q0 49 31.5 76.5t75.5 27.5q43 0 75.5 -27.5t32.5 -75.5q0 -49 -31.5 -77t-77.5 -28t-76.5 27.5t-29.5 76.5zM168 718q-29 0 -41 -22.5t0 -45t41 -22.5q30 0 42 22.5t-0.5 45t-41.5 22.5z" />
    <glyph glyph-name="ogonek" unicode="&#x2db;" horiz-adv-x="403" 
d="M218 0h85q-34 -13 -52.5 -36t-18.5 -37q0 -33 35 -33q20 0 36 2v-85q-160 -9 -160 85q0 65 75 104z" />
    <glyph glyph-name="tilde" unicode="&#x2dc;" horiz-adv-x="357" 
d="M95 676l-55 26q11 45 45.5 65.5t76.5 5.5l45 -21q38 -14 51 26l57 -23q-10 -51 -44 -70t-72 -4l-44 20q-45 16 -60 -25z" />
    <glyph glyph-name="hungarumlaut" unicode="&#x2dd;" horiz-adv-x="369" 
d="M43 661l65 114h94v-2l-79 -112h-80zM197 660l65 115h94v-2l-78 -113h-81z" />
    <glyph glyph-name="mu" unicode="&#x3bc;" horiz-adv-x="543" 
d="M59 -221v1v801h99v-369q0 -137 117 -137q58 0 86.5 34t28.5 115v356h95v-580h-81l-10 55q-14 -38 -47 -59.5t-75 -21.5q-95 0 -120 69v-264h-93z" />
    <glyph glyph-name="Wgrave" unicode="&#x1e80;" horiz-adv-x="815" 
d="M237 158l132 572h74l132 -572l56 288l74 326h98l-184 -773h-87l-65 259l-61 277l-61 -277l-65 -259h-87l-184 773h98l74 -326zM374 811l-71 129v3h97l53 -127v-5h-79z" />
    <glyph glyph-name="wgrave" unicode="&#x1e81;" horiz-adv-x="754" 
d="M335 649l-71 129v3h97l53 -127v-5h-79zM574 390l60 195h100l-168 -586h-95l-48 171l-52 227l-53 -230l-47 -168h-95l-168 586h100l60 -195q12 -40 21.5 -82.5t20.5 -103t14 -72.5q27 138 58 260l54 193h70l55 -193q26 -103 57 -260q3 12 14 72.5t20.5 103t21.5 82.5z" />
    <glyph glyph-name="Wacute" unicode="&#x1e82;" horiz-adv-x="817" 
d="M237 158l132 572h74l132 -572l56 288l74 326h98l-184 -773h-87l-65 259l-61 277l-61 -277l-65 -259h-87l-184 773h98l74 -326zM446 801h-76v5l53 127h94v-3z" />
    <glyph glyph-name="wacute" unicode="&#x1e83;" horiz-adv-x="747" 
d="M574 390l60 195h100l-168 -586h-95l-48 171l-52 227l-53 -230l-47 -168h-95l-168 586h100l60 -195q12 -40 21.5 -82.5t20.5 -103t14 -72.5q27 138 58 260l54 193h70l55 -193q26 -103 57 -260q3 12 14 72.5t20.5 103t21.5 82.5zM407 647h-76v5l53 127h94v-3z" />
    <glyph glyph-name="Wdieresis" unicode="&#x1e84;" horiz-adv-x="815" 
d="M237 158l132 572h74l132 -572l56 288l74 326h98l-184 -773h-87l-65 259l-61 277l-61 -277l-65 -259h-87l-184 773h98l74 -326zM237 857q0 35 29 49.5t57.5 0.5t28.5 -50q0 -34 -29 -48.5t-57.5 -1t-28.5 49.5zM455 857q0 26 18 41t39.5 15.5t39.5 -14.5t18 -42
q0 -34 -29 -48.5t-57.5 -1t-28.5 49.5z" />
    <glyph glyph-name="wdieresis" unicode="&#x1e85;" horiz-adv-x="744" 
d="M201 719q0 34 27.5 48.5t54.5 0t27 -48.5q0 -25 -17 -39.5t-37.5 -14.5t-37.5 14.5t-17 39.5zM435 718q0 34 27 48.5t54 0.5t27 -48q0 -33 -27 -47t-54 -0.5t-27 46.5zM574 390l60 195h100l-168 -586h-95l-48 171l-52 227l-53 -230l-47 -168h-95l-168 586h100l60 -195
q12 -40 21.5 -82.5t20.5 -103t14 -72.5q27 138 58 260l54 193h70l55 -193q26 -103 57 -260q3 12 14 72.5t20.5 103t21.5 82.5z" />
    <glyph glyph-name="uni1EA0" unicode="&#x1ea0;" 
d="M193 -121q0 35 29 49.5t57.5 0.5t28.5 -50q0 -34 -29 -48.5t-57.5 -1t-28.5 49.5zM515 0h-98l-39 143h-231l-39 -143h-99l205 769h97zM313 397l-51 248l-52 -251l-39 -161h182z" />
    <glyph glyph-name="uni1EA1" unicode="&#x1ea1;" 
d="M188 -121q0 35 29 49.5t57.5 0.5t28.5 -50q0 -34 -29 -48.5t-57.5 -1t-28.5 49.5zM461 395v-395h-86l-8 79q-17 -35 -57.5 -59.5t-91.5 -24.5q-160 0 -174 140q-7 77 41.5 129t138.5 65q45 7 141 9v57q0 54 -24.5 81.5t-86.5 27.5q-45 0 -69 -21.5t-23 -76.5h-93
q-3 95 45 140t143 45q100 0 152 -46.5t52 -149.5zM367 259q-90 0 -135 -10q-102 -22 -92 -102q5 -61 88 -61q134 0 139 173z" />
    <glyph glyph-name="uni1EA2" unicode="&#x1ea2;" 
d="M235 901h-61q0 41 18 62.5t69 21.5q86 0 86 -68q0 -26 -8 -38.5t-25 -23.5q-11 -7 -15 -15t-3 -27h-64q0 21 0.5 30.5t4.5 19.5t13 16q1 1 16 12t15 22q0 19 -21 19q-25 0 -25 -31zM515 0h-98l-39 143h-231l-39 -143h-99l205 769h97zM313 397l-51 248l-52 -251l-39 -161
h182z" />
    <glyph glyph-name="uni1EA3" unicode="&#x1ea3;" 
d="M257 722h-61q0 41 18 62.5t69 21.5q86 0 86 -68q0 -26 -8 -38.5t-25 -23.5q-11 -7 -15 -15t-3 -27h-64q0 21 0.5 30.5t4.5 19.5t13 16q1 1 16 12t15 22q0 19 -21 19q-25 0 -25 -31zM461 395v-395h-86l-8 79q-17 -35 -57.5 -59.5t-91.5 -24.5q-160 0 -174 140
q-7 77 41.5 129t138.5 65q45 7 141 9v57q0 54 -24.5 81.5t-86.5 27.5q-45 0 -69 -21.5t-23 -76.5h-93q-3 95 45 140t143 45q100 0 152 -46.5t52 -149.5zM367 259q-90 0 -135 -10q-102 -22 -92 -102q5 -61 88 -61q134 0 139 173z" />
    <glyph glyph-name="uni1EA4" unicode="&#x1ea4;" 
d="M512 1021l-92 -116h-69v8l67 117h94v-9zM515 0h-98l-39 143h-231l-39 -143h-99l205 769h97zM313 397l-51 248l-52 -251l-39 -161h182zM225 938h71l102 -118v-7h-85l-50 57l-51 -57h-85v7z" />
    <glyph glyph-name="uni1EA5" unicode="&#x1ea5;" 
d="M526 842l-92 -116h-69v8l67 117h94v-9zM461 395v-395h-86l-8 79q-17 -35 -57.5 -59.5t-91.5 -24.5q-160 0 -174 140q-7 77 41.5 129t138.5 65q45 7 141 9v57q0 54 -24.5 81.5t-86.5 27.5q-45 0 -69 -21.5t-23 -76.5h-93q-3 95 45 140t143 45q100 0 152 -46.5t52 -149.5z
M367 259q-90 0 -135 -10q-102 -22 -92 -102q5 -61 88 -61q134 0 139 173zM239 759h71l102 -118v-7h-85l-50 57l-51 -57h-85v7z" />
    <glyph glyph-name="uni1EA6" unicode="&#x1ea6;" 
d="M366 905l-92 116v9h94l67 -117v-8h-69zM515 0h-98l-39 143h-231l-39 -143h-99l205 769h97zM313 397l-51 248l-52 -251l-39 -161h182zM225 938h71l102 -118v-7h-85l-50 57l-51 -57h-85v7z" />
    <glyph glyph-name="uni1EA7" unicode="&#x1ea7;" 
d="M380 726l-92 116v9h94l67 -117v-8h-69zM461 395v-395h-86l-8 79q-17 -35 -57.5 -59.5t-91.5 -24.5q-160 0 -174 140q-7 77 41.5 129t138.5 65q45 7 141 9v57q0 54 -24.5 81.5t-86.5 27.5q-45 0 -69 -21.5t-23 -76.5h-93q-3 95 45 140t143 45q100 0 152 -46.5t52 -149.5z
M367 259q-90 0 -135 -10q-102 -22 -92 -102q5 -61 88 -61q134 0 139 173zM239 759h71l102 -118v-7h-85l-50 57l-51 -57h-85v7z" />
    <glyph glyph-name="uni1EA8" unicode="&#x1ea8;" 
d="M354 993h-61q0 41 18 62.5t69 21.5q86 0 86 -68q0 -26 -8 -38.5t-25 -23.5q-11 -7 -15 -15t-3 -27h-64q0 21 0.5 30.5t4.5 19.5t13 16q1 1 16 12t15 22q0 19 -21 19q-25 0 -25 -31zM515 0h-98l-39 143h-231l-39 -143h-99l205 769h97zM313 397l-51 248l-52 -251l-39 -161
h182zM225 938h71l102 -118v-7h-85l-50 57l-51 -57h-85v7z" />
    <glyph glyph-name="uni1EA9" unicode="&#x1ea9;" 
d="M368 814h-61q0 41 18 62.5t69 21.5q86 0 86 -68q0 -26 -8 -38.5t-25 -23.5q-11 -7 -15 -15t-3 -27h-64q0 21 0.5 30.5t4.5 19.5t13 16q1 1 16 12t15 22q0 19 -21 19q-25 0 -25 -31zM461 395v-395h-86l-8 79q-17 -35 -57.5 -59.5t-91.5 -24.5q-160 0 -174 140
q-7 77 41.5 129t138.5 65q45 7 141 9v57q0 54 -24.5 81.5t-86.5 27.5q-45 0 -69 -21.5t-23 -76.5h-93q-3 95 45 140t143 45q100 0 152 -46.5t52 -149.5zM367 259q-90 0 -135 -10q-102 -22 -92 -102q5 -61 88 -61q134 0 139 173zM239 759h71l102 -118v-7h-85l-50 57l-51 -57
h-85v7z" />
    <glyph glyph-name="uni1EAA" unicode="&#x1eaa;" 
d="M186 956l-53 25q11 44 44.5 63.5t73.5 5.5l44 -21q38 -14 50 25l55 -22q-10 -49 -43 -67.5t-70 -4.5l-42 21q-44 16 -59 -25zM515 0h-98l-39 143h-231l-39 -143h-99l205 769h97zM313 397l-51 248l-52 -251l-39 -161h182zM225 938h71l102 -118v-7h-85l-50 57l-51 -57h-85
v7z" />
    <glyph glyph-name="uni1EAB" unicode="&#x1eab;" 
d="M200 777l-53 25q11 44 44.5 63.5t73.5 5.5l44 -21q38 -14 50 25l55 -22q-10 -49 -43 -67.5t-70 -4.5l-42 21q-44 16 -59 -25zM461 395v-395h-86l-8 79q-17 -35 -57.5 -59.5t-91.5 -24.5q-160 0 -174 140q-7 77 41.5 129t138.5 65q45 7 141 9v57q0 54 -24.5 81.5
t-86.5 27.5q-45 0 -69 -21.5t-23 -76.5h-93q-3 95 45 140t143 45q100 0 152 -46.5t52 -149.5zM367 259q-90 0 -135 -10q-102 -22 -92 -102q5 -61 88 -61q134 0 139 173zM239 759h71l102 -118v-7h-85l-50 57l-51 -57h-85v7z" />
    <glyph glyph-name="uni1EAC" unicode="&#x1eac;" 
d="M193 -121q0 35 29 49.5t57.5 0.5t28.5 -50q0 -34 -29 -48.5t-57.5 -1t-28.5 49.5zM515 0h-98l-39 143h-231l-39 -143h-99l205 769h97zM313 397l-51 248l-52 -251l-39 -161h182zM225 938h71l102 -118v-7h-85l-50 57l-51 -57h-85v7z" />
    <glyph glyph-name="uni1EAD" unicode="&#x1ead;" 
d="M188 -121q0 35 29 49.5t57.5 0.5t28.5 -50q0 -34 -29 -48.5t-57.5 -1t-28.5 49.5zM461 395v-395h-86l-8 79q-17 -35 -57.5 -59.5t-91.5 -24.5q-160 0 -174 140q-7 77 41.5 129t138.5 65q45 7 141 9v57q0 54 -24.5 81.5t-86.5 27.5q-45 0 -69 -21.5t-23 -76.5h-93
q-3 95 45 140t143 45q100 0 152 -46.5t52 -149.5zM367 259q-90 0 -135 -10q-102 -22 -92 -102q5 -61 88 -61q134 0 139 173zM239 759h71l102 -118v-7h-85l-50 57l-51 -57h-85v7z" />
    <glyph glyph-name="uni1EAE" unicode="&#x1eae;" 
d="M388 1057l-92 -116h-69v8l67 117h94v-9zM515 0h-98l-39 143h-231l-39 -143h-99l205 769h97zM313 397l-51 248l-52 -251l-39 -161h182zM264 806q-66 0 -95.5 27.5t-26.5 89.5h68q0 -29 10 -41.5t44 -12.5q33 0 42.5 12t9.5 42h68q3 -62 -25.5 -89.5t-94.5 -27.5z" />
    <glyph glyph-name="uni1EAF" unicode="&#x1eaf;" 
d="M411 886l-92 -116h-69v8l67 117h94v-9zM461 395v-395h-86l-8 79q-17 -35 -57.5 -59.5t-91.5 -24.5q-160 0 -174 140q-7 77 41.5 129t138.5 65q45 7 141 9v57q0 54 -24.5 81.5t-86.5 27.5q-45 0 -69 -21.5t-23 -76.5h-93q-3 95 45 140t143 45q100 0 152 -46.5t52 -149.5z
M367 259q-90 0 -135 -10q-102 -22 -92 -102q5 -61 88 -61q134 0 139 173zM287 635q-66 0 -95.5 27.5t-26.5 89.5h68q0 -29 10 -41.5t44 -12.5q33 0 42.5 12t9.5 42h68q3 -62 -25.5 -89.5t-94.5 -27.5z" />
    <glyph glyph-name="uni1EB0" unicode="&#x1eb0;" 
d="M233 941l-92 116v9h94l67 -117v-8h-69zM515 0h-98l-39 143h-231l-39 -143h-99l205 769h97zM313 397l-51 248l-52 -251l-39 -161h182zM264 806q-66 0 -95.5 27.5t-26.5 89.5h68q0 -29 10 -41.5t44 -12.5q33 0 42.5 12t9.5 42h68q3 -62 -25.5 -89.5t-94.5 -27.5z" />
    <glyph glyph-name="uni1EB1" unicode="&#x1eb1;" 
d="M256 770l-92 116v9h94l67 -117v-8h-69zM461 395v-395h-86l-8 79q-17 -35 -57.5 -59.5t-91.5 -24.5q-160 0 -174 140q-7 77 41.5 129t138.5 65q45 7 141 9v57q0 54 -24.5 81.5t-86.5 27.5q-45 0 -69 -21.5t-23 -76.5h-93q-3 95 45 140t143 45q100 0 152 -46.5t52 -149.5z
M367 259q-90 0 -135 -10q-102 -22 -92 -102q5 -61 88 -61q134 0 139 173zM287 635q-66 0 -95.5 27.5t-26.5 89.5h68q0 -29 10 -41.5t44 -12.5q33 0 42.5 12t9.5 42h68q3 -62 -25.5 -89.5t-94.5 -27.5z" />
    <glyph glyph-name="uni1EB2" unicode="&#x1eb2;" 
d="M236 1029h-61q0 41 18 62.5t69 21.5q86 0 86 -68q0 -26 -8 -38.5t-25 -23.5q-11 -7 -15 -15t-3 -27h-64q0 21 0.5 30.5t4.5 19.5t13 16q1 1 16 12t15 22q0 19 -21 19q-25 0 -25 -31zM515 0h-98l-39 143h-231l-39 -143h-99l205 769h97zM313 397l-51 248l-52 -251l-39 -161
h182zM264 806q-66 0 -95.5 27.5t-26.5 89.5h68q0 -29 10 -41.5t44 -12.5q33 0 42.5 12t9.5 42h68q3 -62 -25.5 -89.5t-94.5 -27.5z" />
    <glyph glyph-name="uni1EB3" unicode="&#x1eb3;" 
d="M259 858h-61q0 41 18 62.5t69 21.5q86 0 86 -68q0 -26 -8 -38.5t-25 -23.5q-11 -7 -15 -15t-3 -27h-64q0 21 0.5 30.5t4.5 19.5t13 16q1 1 16 12t15 22q0 19 -21 19q-25 0 -25 -31zM461 395v-395h-86l-8 79q-17 -35 -57.5 -59.5t-91.5 -24.5q-160 0 -174 140
q-7 77 41.5 129t138.5 65q45 7 141 9v57q0 54 -24.5 81.5t-86.5 27.5q-45 0 -69 -21.5t-23 -76.5h-93q-3 95 45 140t143 45q100 0 152 -46.5t52 -149.5zM367 259q-90 0 -135 -10q-102 -22 -92 -102q5 -61 88 -61q134 0 139 173zM287 635q-66 0 -95.5 27.5t-26.5 89.5h68
q0 -29 10 -41.5t44 -12.5q33 0 42.5 12t9.5 42h68q3 -62 -25.5 -89.5t-94.5 -27.5z" />
    <glyph glyph-name="uni1EB4" unicode="&#x1eb4;" 
d="M184 947l-52 26q10 45 42.5 65.5t72.5 5.5l42 -21q36 -14 48 26l54 -23q-9 -51 -41.5 -70t-67.5 -4l-42 20q-42 17 -56 -25zM515 0h-98l-39 143h-231l-39 -143h-99l205 769h97zM313 397l-51 248l-52 -251l-39 -161h182zM264 806q-66 0 -95.5 27.5t-26.5 89.5h68
q0 -29 10 -41.5t44 -12.5q33 0 42.5 12t9.5 42h68q3 -62 -25.5 -89.5t-94.5 -27.5z" />
    <glyph glyph-name="uni1EB5" unicode="&#x1eb5;" 
d="M207 776l-52 26q10 45 42.5 65.5t72.5 5.5l42 -21q36 -14 48 26l54 -23q-9 -51 -41.5 -70t-67.5 -4l-42 20q-42 17 -56 -25zM461 395v-395h-86l-8 79q-17 -35 -57.5 -59.5t-91.5 -24.5q-160 0 -174 140q-7 77 41.5 129t138.5 65q45 7 141 9v57q0 54 -24.5 81.5
t-86.5 27.5q-45 0 -69 -21.5t-23 -76.5h-93q-3 95 45 140t143 45q100 0 152 -46.5t52 -149.5zM367 259q-90 0 -135 -10q-102 -22 -92 -102q5 -61 88 -61q134 0 139 173zM287 635q-66 0 -95.5 27.5t-26.5 89.5h68q0 -29 10 -41.5t44 -12.5q33 0 42.5 12t9.5 42h68
q3 -62 -25.5 -89.5t-94.5 -27.5z" />
    <glyph glyph-name="uni1EB6" unicode="&#x1eb6;" 
d="M193 -121q0 35 29 49.5t57.5 0.5t28.5 -50q0 -34 -29 -48.5t-57.5 -1t-28.5 49.5zM515 0h-98l-39 143h-231l-39 -143h-99l205 769h97zM313 397l-51 248l-52 -251l-39 -161h182zM264 806q-66 0 -95.5 27.5t-26.5 89.5h68q0 -29 10 -41.5t44 -12.5q33 0 42.5 12t9.5 42h68
q3 -62 -25.5 -89.5t-94.5 -27.5z" />
    <glyph glyph-name="uni1EB7" unicode="&#x1eb7;" 
d="M188 -121q0 35 29 49.5t57.5 0.5t28.5 -50q0 -34 -29 -48.5t-57.5 -1t-28.5 49.5zM461 395v-395h-86l-8 79q-17 -35 -57.5 -59.5t-91.5 -24.5q-160 0 -174 140q-7 77 41.5 129t138.5 65q45 7 141 9v57q0 54 -24.5 81.5t-86.5 27.5q-45 0 -69 -21.5t-23 -76.5h-93
q-3 95 45 140t143 45q100 0 152 -46.5t52 -149.5zM367 259q-90 0 -135 -10q-102 -22 -92 -102q5 -61 88 -61q134 0 139 173zM287 635q-66 0 -95.5 27.5t-26.5 89.5h68q0 -29 10 -41.5t44 -12.5q33 0 42.5 12t9.5 42h68q3 -62 -25.5 -89.5t-94.5 -27.5z" />
    <glyph glyph-name="uni1EB8" unicode="&#x1eb8;" horiz-adv-x="521" 
d="M199 -121q0 26 18 41t39.5 15.5t39.5 -14.5t18 -42q0 -34 -29 -48.5t-57.5 -1t-28.5 49.5zM70 772h389v-84h-294v-232h266v-89h-266v-278h319v-89h-414v772z" />
    <glyph glyph-name="uni1EB9" unicode="&#x1eb9;" horiz-adv-x="538" 
d="M199 -121q0 26 18 41t39.5 15.5t39.5 -14.5t18 -42q0 -34 -29 -48.5t-57.5 -1t-28.5 49.5zM391 170h92q0 -87 -51.5 -131.5t-162.5 -44.5q-117 0 -166.5 48.5t-49.5 165.5v171q0 110 55.5 159.5t160.5 49.5q216 0 216 -209v-125h-338v-44q0 -75 28 -101.5t94 -26.5
q122 0 122 88zM147 379v-42h247v42q0 72 -31.5 98.5t-93.5 26.5t-92 -26t-30 -99z" />
    <glyph glyph-name="uni1EBA" unicode="&#x1eba;" horiz-adv-x="521" 
d="M244 901h-61q0 41 18 62.5t69 21.5q86 0 86 -68q0 -26 -8 -38.5t-25 -23.5q-11 -7 -15 -15t-3 -27h-64q0 21 0.5 30.5t4.5 19.5t13 16q1 1 16 12t15 22q0 19 -21 19q-25 0 -25 -31zM70 772h389v-84h-294v-232h266v-89h-266v-278h319v-89h-414v772z" />
    <glyph glyph-name="uni1EBB" unicode="&#x1ebb;" horiz-adv-x="538" 
d="M254 722h-61q0 41 18 62.5t69 21.5q86 0 86 -68q0 -26 -8 -38.5t-25 -23.5q-11 -7 -15 -15t-3 -27h-64q0 21 0.5 30.5t4.5 19.5t13 16q1 1 16 12t15 22q0 19 -21 19q-25 0 -25 -31zM391 170h92q0 -87 -51.5 -131.5t-162.5 -44.5q-117 0 -166.5 48.5t-49.5 165.5v171
q0 110 55.5 159.5t160.5 49.5q216 0 216 -209v-125h-338v-44q0 -75 28 -101.5t94 -26.5q122 0 122 88zM147 379v-42h247v42q0 72 -31.5 98.5t-93.5 26.5t-92 -26t-30 -99z" />
    <glyph glyph-name="uni1EBC" unicode="&#x1ebc;" horiz-adv-x="521" 
d="M186 814l-55 26q11 45 45.5 65.5t76.5 5.5l45 -21q38 -14 51 26l57 -23q-10 -51 -44 -70t-72 -4l-44 20q-45 16 -60 -25zM70 772h389v-84h-294v-232h266v-89h-266v-278h319v-89h-414v772z" />
    <glyph glyph-name="uni1EBD" unicode="&#x1ebd;" horiz-adv-x="538" 
d="M200 642l-55 26q11 45 45.5 65.5t76.5 5.5l45 -21q38 -14 51 26l57 -23q-10 -51 -44 -70t-72 -4l-44 20q-45 16 -60 -25zM391 170h92q0 -87 -51.5 -131.5t-162.5 -44.5q-117 0 -166.5 48.5t-49.5 165.5v171q0 110 55.5 159.5t160.5 49.5q216 0 216 -209v-125h-338v-44
q0 -75 28 -101.5t94 -26.5q122 0 122 88zM147 379v-42h247v42q0 72 -31.5 98.5t-93.5 26.5t-92 -26t-30 -99z" />
    <glyph glyph-name="uni1EBE" unicode="&#x1ebe;" horiz-adv-x="509" 
d="M506 1021l-92 -116h-69v8l67 117h94v-9zM58 772h389v-84h-294v-232h266v-89h-266v-278h319v-89h-414v772zM219 938h71l102 -118v-7h-85l-50 57l-51 -57h-85v7z" />
    <glyph glyph-name="uni1EBF" unicode="&#x1ebf;" horiz-adv-x="530" 
d="M529 842l-92 -116h-69v8l67 117h94v-9zM391 170h92q0 -87 -51.5 -131.5t-162.5 -44.5q-117 0 -166.5 48.5t-49.5 165.5v171q0 110 55.5 159.5t160.5 49.5q216 0 216 -209v-125h-338v-44q0 -75 28 -101.5t94 -26.5q122 0 122 88zM147 379v-42h247v42q0 72 -31.5 98.5
t-93.5 26.5t-92 -26t-30 -99zM242 759h71l102 -118v-7h-85l-50 57l-51 -57h-85v7z" />
    <glyph glyph-name="uni1EC0" unicode="&#x1ec0;" horiz-adv-x="509" 
d="M360 905l-92 116v9h94l67 -117v-8h-69zM58 772h389v-84h-294v-232h266v-89h-266v-278h319v-89h-414v772zM219 938h71l102 -118v-7h-85l-50 57l-51 -57h-85v7z" />
    <glyph glyph-name="uni1EC1" unicode="&#x1ec1;" horiz-adv-x="530" 
d="M383 726l-92 116v9h94l67 -117v-8h-69zM391 170h92q0 -87 -51.5 -131.5t-162.5 -44.5q-117 0 -166.5 48.5t-49.5 165.5v171q0 110 55.5 159.5t160.5 49.5q216 0 216 -209v-125h-338v-44q0 -75 28 -101.5t94 -26.5q122 0 122 88zM147 379v-42h247v42q0 72 -31.5 98.5
t-93.5 26.5t-92 -26t-30 -99zM242 759h71l102 -118v-7h-85l-50 57l-51 -57h-85v7z" />
    <glyph glyph-name="uni1EC2" unicode="&#x1ec2;" horiz-adv-x="509" 
d="M348 993h-61q0 41 18 62.5t69 21.5q86 0 86 -68q0 -26 -8 -38.5t-25 -23.5q-11 -7 -15 -15t-3 -27h-64q0 21 0.5 30.5t4.5 19.5t13 16q1 1 16 12t15 22q0 19 -21 19q-25 0 -25 -31zM58 772h389v-84h-294v-232h266v-89h-266v-278h319v-89h-414v772zM219 938h71l102 -118
v-7h-85l-50 57l-51 -57h-85v7z" />
    <glyph glyph-name="uni1EC3" unicode="&#x1ec3;" horiz-adv-x="530" 
d="M371 814h-61q0 41 18 62.5t69 21.5q86 0 86 -68q0 -26 -8 -38.5t-25 -23.5q-11 -7 -15 -15t-3 -27h-64q0 21 0.5 30.5t4.5 19.5t13 16q1 1 16 12t15 22q0 19 -21 19q-25 0 -25 -31zM391 170h92q0 -87 -51.5 -131.5t-162.5 -44.5q-117 0 -166.5 48.5t-49.5 165.5v171
q0 110 55.5 159.5t160.5 49.5q216 0 216 -209v-125h-338v-44q0 -75 28 -101.5t94 -26.5q122 0 122 88zM147 379v-42h247v42q0 72 -31.5 98.5t-93.5 26.5t-92 -26t-30 -99zM242 759h71l102 -118v-7h-85l-50 57l-51 -57h-85v7z" />
    <glyph glyph-name="uni1EC4" unicode="&#x1ec4;" horiz-adv-x="509" 
d="M180 956l-53 25q11 44 44.5 63.5t73.5 5.5l44 -21q38 -14 50 25l55 -22q-10 -49 -43 -67.5t-70 -4.5l-42 21q-44 16 -59 -25zM58 772h389v-84h-294v-232h266v-89h-266v-278h319v-89h-414v772zM219 938h71l102 -118v-7h-85l-50 57l-51 -57h-85v7z" />
    <glyph glyph-name="uni1EC5" unicode="&#x1ec5;" horiz-adv-x="530" 
d="M203 777l-53 25q11 44 44.5 63.5t73.5 5.5l44 -21q38 -14 50 25l55 -22q-10 -49 -43 -67.5t-70 -4.5l-42 21q-44 16 -59 -25zM391 170h92q0 -87 -51.5 -131.5t-162.5 -44.5q-117 0 -166.5 48.5t-49.5 165.5v171q0 110 55.5 159.5t160.5 49.5q216 0 216 -209v-125h-338
v-44q0 -75 28 -101.5t94 -26.5q122 0 122 88zM147 379v-42h247v42q0 72 -31.5 98.5t-93.5 26.5t-92 -26t-30 -99zM242 759h71l102 -118v-7h-85l-50 57l-51 -57h-85v7z" />
    <glyph glyph-name="uni1EC6" unicode="&#x1ec6;" horiz-adv-x="509" 
d="M199 -121q0 26 18 41t39.5 15.5t39.5 -14.5t18 -42q0 -34 -29 -48.5t-57.5 -1t-28.5 49.5zM58 772h389v-84h-294v-232h266v-89h-266v-278h319v-89h-414v772zM219 938h71l102 -118v-7h-85l-50 57l-51 -57h-85v7z" />
    <glyph glyph-name="uni1EC7" unicode="&#x1ec7;" horiz-adv-x="530" 
d="M199 -121q0 26 18 41t39.5 15.5t39.5 -14.5t18 -42q0 -34 -29 -48.5t-57.5 -1t-28.5 49.5zM391 170h92q0 -87 -51.5 -131.5t-162.5 -44.5q-117 0 -166.5 48.5t-49.5 165.5v171q0 110 55.5 159.5t160.5 49.5q216 0 216 -209v-125h-338v-44q0 -75 28 -101.5t94 -26.5
q122 0 122 88zM147 379v-42h247v42q0 72 -31.5 98.5t-93.5 26.5t-92 -26t-30 -99zM242 759h71l102 -118v-7h-85l-50 57l-51 -57h-85v7z" />
    <glyph glyph-name="uni1EC8" unicode="&#x1ec8;" horiz-adv-x="237" 
d="M90 901h-61q0 41 18 62.5t69 21.5q86 0 86 -68q0 -26 -8 -38.5t-25 -23.5q-11 -7 -15 -15t-3 -27h-64q0 21 0.5 30.5t4.5 19.5t13 16q1 1 16 12t15 22q0 19 -21 19q-25 0 -25 -31zM167 -1h-97v770h97v-770z" />
    <glyph glyph-name="uni1EC9" unicode="&#x1ec9;" horiz-adv-x="240" 
d="M167 0h-95v581h95v-581zM91 722h-61q0 41 18 62.5t69 21.5q86 0 86 -68q0 -26 -8 -38.5t-25 -23.5q-11 -7 -15 -15t-3 -27h-64q0 21 0.5 30.5t4.5 19.5t13 16q1 1 16 12t15 22q0 19 -21 19q-25 0 -25 -31z" />
    <glyph glyph-name="uni1ECA" unicode="&#x1eca;" horiz-adv-x="237" 
d="M62 -121q0 35 29 49.5t57.5 0.5t28.5 -50q0 -34 -28.5 -48.5t-57.5 -1t-29 49.5zM167 -1h-97v770h97v-770z" />
    <glyph glyph-name="uni1ECB" unicode="&#x1ecb;" horiz-adv-x="240" 
d="M60 -121q0 35 29 49.5t57.5 0.5t28.5 -50q0 -34 -28.5 -48.5t-57.5 -1t-29 49.5zM167 0h-95v581h95v-581zM63 690q0 26 18 41t39.5 15.5t39.5 -14.5t18 -42q0 -34 -29 -48.5t-57.5 -1t-28.5 49.5z" />
    <glyph glyph-name="uni1ECC" unicode="&#x1ecc;" horiz-adv-x="621" 
d="M236 -121q0 35 29 49.5t57.5 0.5t28.5 -50q0 -34 -29 -48.5t-57.5 -1t-28.5 49.5zM559 522v-269q0 -68 -9.5 -112.5t-36 -80t-76.5 -51.5t-128 -16t-128 16t-76.5 51.5t-36 80t-9.5 112.5v269q0 68 9.5 112.5t36 80t76.5 51.5t128 16t128 -16t76.5 -51.5t36 -80
t9.5 -112.5zM463 252v271q0 42 -2 65.5t-10.5 47t-25 34.5t-45 18t-71.5 7t-71.5 -7t-45 -18t-25 -34.5t-10.5 -47t-2 -65.5v-271q0 -52 4 -79t19 -50.5t46 -32t85 -8.5t85 8.5t46 32t19 50.5t4 79z" />
    <glyph glyph-name="uni1ECD" unicode="&#x1ecd;" horiz-adv-x="538" 
d="M200 -121q0 35 29 49.5t57.5 0.5t28.5 -50q0 -34 -28.5 -48.5t-57.5 -1t-29 49.5zM269 73q67 0 95.5 31t28.5 109v167q0 75 -29.5 101t-94.5 26t-94.5 -26t-29.5 -101v-167q0 -78 29 -109t95 -31zM269 -10q-118 0 -168.5 51.5t-50.5 171.5v167q0 112 56.5 162t162.5 50
t162.5 -50t56.5 -162v-167q0 -119 -51.5 -171t-167.5 -52z" />
    <glyph glyph-name="uni1ECE" unicode="&#x1ece;" horiz-adv-x="621" 
d="M295 901h-61q0 41 18 62.5t69 21.5q86 0 86 -68q0 -26 -8 -38.5t-25 -23.5q-11 -7 -15 -15t-3 -27h-64q0 21 0.5 30.5t4.5 19.5t13 16q1 1 16 12t15 22q0 19 -21 19q-25 0 -25 -31zM559 522v-269q0 -68 -9.5 -112.5t-36 -80t-76.5 -51.5t-128 -16t-128 16t-76.5 51.5
t-36 80t-9.5 112.5v269q0 68 9.5 112.5t36 80t76.5 51.5t128 16t128 -16t76.5 -51.5t36 -80t9.5 -112.5zM463 252v271q0 42 -2 65.5t-10.5 47t-25 34.5t-45 18t-71.5 7t-71.5 -7t-45 -18t-25 -34.5t-10.5 -47t-2 -65.5v-271q0 -52 4 -79t19 -50.5t46 -32t85 -8.5t85 8.5
t46 32t19 50.5t4 79z" />
    <glyph glyph-name="uni1ECF" unicode="&#x1ecf;" horiz-adv-x="538" 
d="M252 722h-61q0 41 18 62.5t69 21.5q86 0 86 -68q0 -26 -8 -38.5t-25 -23.5q-11 -7 -15 -15t-3 -27h-64q0 21 0.5 30.5t4.5 19.5t13 16q1 1 16 12t15 22q0 19 -21 19q-25 0 -25 -31zM269 73q67 0 95.5 31t28.5 109v167q0 75 -29.5 101t-94.5 26t-94.5 -26t-29.5 -101v-167
q0 -78 29 -109t95 -31zM269 -10q-118 0 -168.5 51.5t-50.5 171.5v167q0 112 56.5 162t162.5 50t162.5 -50t56.5 -162v-167q0 -119 -51.5 -171t-167.5 -52z" />
    <glyph glyph-name="uni1ED0" unicode="&#x1ed0;" horiz-adv-x="596" 
d="M560 1021l-92 -116h-69v8l67 117h94v-9zM551 522v-269q0 -68 -9.5 -112.5t-36 -80t-76.5 -51.5t-128 -16t-128 16t-76.5 51.5t-36 80t-9.5 112.5v269q0 68 9.5 112.5t36 80t76.5 51.5t128 16t128 -16t76.5 -51.5t36 -80t9.5 -112.5zM455 252v271q0 42 -2 65.5t-10.5 47
t-25 34.5t-45 18t-71.5 7t-71.5 -7t-45 -18t-25 -34.5t-10.5 -47t-2 -65.5v-271q0 -52 4 -79t19 -50.5t46 -32t85 -8.5t85 8.5t46 32t19 50.5t4 79zM273 938h71l102 -118v-7h-85l-50 57l-51 -57h-85v7z" />
    <glyph glyph-name="uni1ED1" unicode="&#x1ed1;" horiz-adv-x="538" 
d="M525 842l-92 -116h-69v8l67 117h94v-9zM269 73q67 0 95.5 31t28.5 109v167q0 75 -29.5 101t-94.5 26t-94.5 -26t-29.5 -101v-167q0 -78 29 -109t95 -31zM269 -10q-118 0 -168.5 51.5t-50.5 171.5v167q0 112 56.5 162t162.5 50t162.5 -50t56.5 -162v-167
q0 -119 -51.5 -171t-167.5 -52zM238 759h71l102 -118v-7h-85l-50 57l-51 -57h-85v7z" />
    <glyph glyph-name="uni1ED2" unicode="&#x1ed2;" horiz-adv-x="596" 
d="M414 905l-92 116v9h94l67 -117v-8h-69zM551 522v-269q0 -68 -9.5 -112.5t-36 -80t-76.5 -51.5t-128 -16t-128 16t-76.5 51.5t-36 80t-9.5 112.5v269q0 68 9.5 112.5t36 80t76.5 51.5t128 16t128 -16t76.5 -51.5t36 -80t9.5 -112.5zM455 252v271q0 42 -2 65.5t-10.5 47
t-25 34.5t-45 18t-71.5 7t-71.5 -7t-45 -18t-25 -34.5t-10.5 -47t-2 -65.5v-271q0 -52 4 -79t19 -50.5t46 -32t85 -8.5t85 8.5t46 32t19 50.5t4 79zM273 938h71l102 -118v-7h-85l-50 57l-51 -57h-85v7z" />
    <glyph glyph-name="uni1ED3" unicode="&#x1ed3;" horiz-adv-x="538" 
d="M379 726l-92 116v9h94l67 -117v-8h-69zM269 73q67 0 95.5 31t28.5 109v167q0 75 -29.5 101t-94.5 26t-94.5 -26t-29.5 -101v-167q0 -78 29 -109t95 -31zM269 -10q-118 0 -168.5 51.5t-50.5 171.5v167q0 112 56.5 162t162.5 50t162.5 -50t56.5 -162v-167
q0 -119 -51.5 -171t-167.5 -52zM238 759h71l102 -118v-7h-85l-50 57l-51 -57h-85v7z" />
    <glyph glyph-name="uni1ED4" unicode="&#x1ed4;" horiz-adv-x="596" 
d="M402 993h-61q0 41 18 62.5t69 21.5q86 0 86 -68q0 -26 -8 -38.5t-25 -23.5q-11 -7 -15 -15t-3 -27h-64q0 21 0.5 30.5t4.5 19.5t13 16q1 1 16 12t15 22q0 19 -21 19q-25 0 -25 -31zM551 522v-269q0 -68 -9.5 -112.5t-36 -80t-76.5 -51.5t-128 -16t-128 16t-76.5 51.5
t-36 80t-9.5 112.5v269q0 68 9.5 112.5t36 80t76.5 51.5t128 16t128 -16t76.5 -51.5t36 -80t9.5 -112.5zM455 252v271q0 42 -2 65.5t-10.5 47t-25 34.5t-45 18t-71.5 7t-71.5 -7t-45 -18t-25 -34.5t-10.5 -47t-2 -65.5v-271q0 -52 4 -79t19 -50.5t46 -32t85 -8.5t85 8.5
t46 32t19 50.5t4 79zM273 938h71l102 -118v-7h-85l-50 57l-51 -57h-85v7z" />
    <glyph glyph-name="uni1ED5" unicode="&#x1ed5;" horiz-adv-x="538" 
d="M367 814h-61q0 41 18 62.5t69 21.5q86 0 86 -68q0 -26 -8 -38.5t-25 -23.5q-11 -7 -15 -15t-3 -27h-64q0 21 0.5 30.5t4.5 19.5t13 16q1 1 16 12t15 22q0 19 -21 19q-25 0 -25 -31zM269 73q67 0 95.5 31t28.5 109v167q0 75 -29.5 101t-94.5 26t-94.5 -26t-29.5 -101v-167
q0 -78 29 -109t95 -31zM269 -10q-118 0 -168.5 51.5t-50.5 171.5v167q0 112 56.5 162t162.5 50t162.5 -50t56.5 -162v-167q0 -119 -51.5 -171t-167.5 -52zM238 759h71l102 -118v-7h-85l-50 57l-51 -57h-85v7z" />
    <glyph glyph-name="uni1ED6" unicode="&#x1ed6;" horiz-adv-x="596" 
d="M234 956l-53 25q11 44 44.5 63.5t73.5 5.5l44 -21q38 -14 50 25l55 -22q-10 -49 -43 -67.5t-70 -4.5l-42 21q-44 16 -59 -25zM551 522v-269q0 -68 -9.5 -112.5t-36 -80t-76.5 -51.5t-128 -16t-128 16t-76.5 51.5t-36 80t-9.5 112.5v269q0 68 9.5 112.5t36 80t76.5 51.5
t128 16t128 -16t76.5 -51.5t36 -80t9.5 -112.5zM455 252v271q0 42 -2 65.5t-10.5 47t-25 34.5t-45 18t-71.5 7t-71.5 -7t-45 -18t-25 -34.5t-10.5 -47t-2 -65.5v-271q0 -52 4 -79t19 -50.5t46 -32t85 -8.5t85 8.5t46 32t19 50.5t4 79zM273 938h71l102 -118v-7h-85l-50 57
l-51 -57h-85v7z" />
    <glyph glyph-name="uni1ED7" unicode="&#x1ed7;" horiz-adv-x="538" 
d="M199 777l-53 25q11 44 44.5 63.5t73.5 5.5l44 -21q38 -14 50 25l55 -22q-10 -49 -43 -67.5t-70 -4.5l-42 21q-44 16 -59 -25zM269 73q67 0 95.5 31t28.5 109v167q0 75 -29.5 101t-94.5 26t-94.5 -26t-29.5 -101v-167q0 -78 29 -109t95 -31zM269 -10q-118 0 -168.5 51.5
t-50.5 171.5v167q0 112 56.5 162t162.5 50t162.5 -50t56.5 -162v-167q0 -119 -51.5 -171t-167.5 -52zM238 759h71l102 -118v-7h-85l-50 57l-51 -57h-85v7z" />
    <glyph glyph-name="uni1ED8" unicode="&#x1ed8;" horiz-adv-x="596" 
d="M236 -121q0 35 29 49.5t57.5 0.5t28.5 -50q0 -34 -29 -48.5t-57.5 -1t-28.5 49.5zM551 522v-269q0 -68 -9.5 -112.5t-36 -80t-76.5 -51.5t-128 -16t-128 16t-76.5 51.5t-36 80t-9.5 112.5v269q0 68 9.5 112.5t36 80t76.5 51.5t128 16t128 -16t76.5 -51.5t36 -80
t9.5 -112.5zM455 252v271q0 42 -2 65.5t-10.5 47t-25 34.5t-45 18t-71.5 7t-71.5 -7t-45 -18t-25 -34.5t-10.5 -47t-2 -65.5v-271q0 -52 4 -79t19 -50.5t46 -32t85 -8.5t85 8.5t46 32t19 50.5t4 79zM273 938h71l102 -118v-7h-85l-50 57l-51 -57h-85v7z" />
    <glyph glyph-name="uni1ED9" unicode="&#x1ed9;" horiz-adv-x="538" 
d="M200 -121q0 35 29 49.5t57.5 0.5t28.5 -50q0 -34 -28.5 -48.5t-57.5 -1t-29 49.5zM269 73q67 0 95.5 31t28.5 109v167q0 75 -29.5 101t-94.5 26t-94.5 -26t-29.5 -101v-167q0 -78 29 -109t95 -31zM269 -10q-118 0 -168.5 51.5t-50.5 171.5v167q0 112 56.5 162t162.5 50
t162.5 -50t56.5 -162v-167q0 -119 -51.5 -171t-167.5 -52zM238 759h71l102 -118v-7h-85l-50 57l-51 -57h-85v7z" />
    <glyph glyph-name="uni1EDA" unicode="&#x1eda;" horiz-adv-x="621" 
d="M433 929l-92 -116h-69v8l67 117h94v-9zM559 522v-269q0 -68 -9.5 -112.5t-36 -80t-76.5 -51.5t-128 -16t-128 16t-76.5 51.5t-36 80t-9.5 112.5v269q0 68 9.5 112.5t36 80t76.5 51.5t128 16q64 0 116 -13h20q33 -1 44.5 9.5t11.5 43.5v7h79v-7q0 -88 -67 -107
q46 -56 46 -193zM463 252v271q0 42 -2 65.5t-10.5 47t-25 34.5t-45 18t-71.5 7t-71.5 -7t-45 -18t-25 -34.5t-10.5 -47t-2 -65.5v-271q0 -52 4 -79t19 -50.5t46 -32t85 -8.5t85 8.5t46 32t19 50.5t4 79z" />
    <glyph glyph-name="uni1EDB" unicode="&#x1edb;" horiz-adv-x="538" 
d="M393 750l-92 -116h-69v8l67 117h94v-9zM269 -10q-118 0 -168.5 51.5t-50.5 171.5v167q0 112 56.5 162t162.5 50q56 0 96 -13h18q32 0 43.5 10t11.5 43v7h79v-7q0 -89 -70 -107q41 -54 41 -145v-167q0 -119 -51.5 -171t-167.5 -52zM269 73q67 0 95.5 31t28.5 109v167
q0 75 -29.5 101t-94.5 26t-94.5 -26t-29.5 -101v-167q0 -78 29 -109t95 -31z" />
    <glyph glyph-name="uni1EDC" unicode="&#x1edc;" horiz-adv-x="621" 
d="M297 813l-92 116v9h94l67 -117v-8h-69zM559 522v-269q0 -68 -9.5 -112.5t-36 -80t-76.5 -51.5t-128 -16t-128 16t-76.5 51.5t-36 80t-9.5 112.5v269q0 68 9.5 112.5t36 80t76.5 51.5t128 16q64 0 116 -13h20q33 -1 44.5 9.5t11.5 43.5v7h79v-7q0 -88 -67 -107
q46 -56 46 -193zM463 252v271q0 42 -2 65.5t-10.5 47t-25 34.5t-45 18t-71.5 7t-71.5 -7t-45 -18t-25 -34.5t-10.5 -47t-2 -65.5v-271q0 -52 4 -79t19 -50.5t46 -32t85 -8.5t85 8.5t46 32t19 50.5t4 79z" />
    <glyph glyph-name="uni1EDD" unicode="&#x1edd;" horiz-adv-x="538" 
d="M268 634l-92 116v9h94l67 -117v-8h-69zM269 -10q-118 0 -168.5 51.5t-50.5 171.5v167q0 112 56.5 162t162.5 50q56 0 96 -13h18q32 0 43.5 10t11.5 43v7h79v-7q0 -89 -70 -107q41 -54 41 -145v-167q0 -119 -51.5 -171t-167.5 -52zM269 73q67 0 95.5 31t28.5 109v167
q0 75 -29.5 101t-94.5 26t-94.5 -26t-29.5 -101v-167q0 -78 29 -109t95 -31z" />
    <glyph glyph-name="uni1EDE" unicode="&#x1ede;" horiz-adv-x="621" 
d="M295 901h-61q0 41 18 62.5t69 21.5q86 0 86 -68q0 -26 -8 -38.5t-25 -23.5q-11 -7 -15 -15t-3 -27h-64q0 21 0.5 30.5t4.5 19.5t13 16q1 1 16 12t15 22q0 19 -21 19q-25 0 -25 -31zM559 522v-269q0 -68 -9.5 -112.5t-36 -80t-76.5 -51.5t-128 -16t-128 16t-76.5 51.5
t-36 80t-9.5 112.5v269q0 68 9.5 112.5t36 80t76.5 51.5t128 16q64 0 116 -13h20q33 -1 44.5 9.5t11.5 43.5v7h79v-7q0 -88 -67 -107q46 -56 46 -193zM463 252v271q0 42 -2 65.5t-10.5 47t-25 34.5t-45 18t-71.5 7t-71.5 -7t-45 -18t-25 -34.5t-10.5 -47t-2 -65.5v-271
q0 -52 4 -79t19 -50.5t46 -32t85 -8.5t85 8.5t46 32t19 50.5t4 79z" />
    <glyph glyph-name="uni1EDF" unicode="&#x1edf;" horiz-adv-x="538" 
d="M252 722h-61q0 41 18 62.5t69 21.5q86 0 86 -68q0 -26 -8 -38.5t-25 -23.5q-11 -7 -15 -15t-3 -27h-64q0 21 0.5 30.5t4.5 19.5t13 16q1 1 16 12t15 22q0 19 -21 19q-25 0 -25 -31zM269 -10q-118 0 -168.5 51.5t-50.5 171.5v167q0 112 56.5 162t162.5 50q56 0 96 -13h18
q32 0 43.5 10t11.5 43v7h79v-7q0 -89 -70 -107q41 -54 41 -145v-167q0 -119 -51.5 -171t-167.5 -52zM269 73q67 0 95.5 31t28.5 109v167q0 75 -29.5 101t-94.5 26t-94.5 -26t-29.5 -101v-167q0 -78 29 -109t95 -31z" />
    <glyph glyph-name="uni1EE0" unicode="&#x1ee0;" horiz-adv-x="621" 
d="M227 814l-55 26q11 45 45.5 65.5t76.5 5.5l45 -21q38 -14 51 26l57 -23q-10 -51 -44 -70t-72 -4l-44 20q-45 16 -60 -25zM559 522v-269q0 -68 -9.5 -112.5t-36 -80t-76.5 -51.5t-128 -16t-128 16t-76.5 51.5t-36 80t-9.5 112.5v269q0 68 9.5 112.5t36 80t76.5 51.5
t128 16q64 0 116 -13h20q33 -1 44.5 9.5t11.5 43.5v7h79v-7q0 -88 -67 -107q46 -56 46 -193zM463 252v271q0 42 -2 65.5t-10.5 47t-25 34.5t-45 18t-71.5 7t-71.5 -7t-45 -18t-25 -34.5t-10.5 -47t-2 -65.5v-271q0 -52 4 -79t19 -50.5t46 -32t85 -8.5t85 8.5t46 32t19 50.5
t4 79z" />
    <glyph glyph-name="uni1EE1" unicode="&#x1ee1;" horiz-adv-x="538" 
d="M195 642l-55 26q11 45 45.5 65.5t76.5 5.5l45 -21q38 -14 51 26l57 -23q-10 -51 -44 -70t-72 -4l-44 20q-45 16 -60 -25zM269 -10q-118 0 -168.5 51.5t-50.5 171.5v167q0 112 56.5 162t162.5 50q56 0 96 -13h18q32 0 43.5 10t11.5 43v7h79v-7q0 -89 -70 -107
q41 -54 41 -145v-167q0 -119 -51.5 -171t-167.5 -52zM269 73q67 0 95.5 31t28.5 109v167q0 75 -29.5 101t-94.5 26t-94.5 -26t-29.5 -101v-167q0 -78 29 -109t95 -31z" />
    <glyph glyph-name="uni1EE2" unicode="&#x1ee2;" horiz-adv-x="621" 
d="M236 -121q0 35 29 49.5t57.5 0.5t28.5 -50q0 -34 -29 -48.5t-57.5 -1t-28.5 49.5zM559 522v-269q0 -68 -9.5 -112.5t-36 -80t-76.5 -51.5t-128 -16t-128 16t-76.5 51.5t-36 80t-9.5 112.5v269q0 68 9.5 112.5t36 80t76.5 51.5t128 16q64 0 116 -13h20q33 -1 44.5 9.5
t11.5 43.5v7h79v-7q0 -88 -67 -107q46 -56 46 -193zM463 252v271q0 42 -2 65.5t-10.5 47t-25 34.5t-45 18t-71.5 7t-71.5 -7t-45 -18t-25 -34.5t-10.5 -47t-2 -65.5v-271q0 -52 4 -79t19 -50.5t46 -32t85 -8.5t85 8.5t46 32t19 50.5t4 79z" />
    <glyph glyph-name="uni1EE3" unicode="&#x1ee3;" horiz-adv-x="538" 
d="M200 -121q0 35 29 49.5t57.5 0.5t28.5 -50q0 -34 -28.5 -48.5t-57.5 -1t-29 49.5zM269 -10q-118 0 -168.5 51.5t-50.5 171.5v167q0 112 56.5 162t162.5 50q56 0 96 -13h18q32 0 43.5 10t11.5 43v7h79v-7q0 -89 -70 -107q41 -54 41 -145v-167q0 -119 -51.5 -171
t-167.5 -52zM269 73q67 0 95.5 31t28.5 109v167q0 75 -29.5 101t-94.5 26t-94.5 -26t-29.5 -101v-167q0 -78 29 -109t95 -31z" />
    <glyph glyph-name="uni1EE4" unicode="&#x1ee4;" horiz-adv-x="602" 
d="M231 -121q0 35 29 49.5t57.5 0.5t28.5 -50q0 -34 -29 -48.5t-57.5 -1t-28.5 49.5zM440 253v519h96v-518q0 -133 -52.5 -196.5t-184.5 -63.5t-185.5 63.5t-53.5 196.5v517h96v-518q0 -96 28.5 -133t114.5 -37t113.5 37t27.5 133z" />
    <glyph glyph-name="uni1EE5" unicode="&#x1ee5;" horiz-adv-x="571" 
d="M205 -121q0 26 18 41t39.5 15.5t39.5 -14.5t18 -42q0 -34 -29 -48.5t-57.5 -1t-28.5 49.5zM501 581v-581h-85l-6 62q-42 -69 -150 -69q-100 0 -147 48.5t-47 162.5v377h96v-376q0 -61 30.5 -93t83.5 -32q57 0 93 32t36 92v377h96z" />
    <glyph glyph-name="uni1EE6" unicode="&#x1ee6;" horiz-adv-x="602" 
d="M274 901h-61q0 41 18 62.5t69 21.5q86 0 86 -68q0 -26 -8 -38.5t-25 -23.5q-11 -7 -15 -15t-3 -27h-64q0 21 0.5 30.5t4.5 19.5t13 16q1 1 16 12t15 22q0 19 -21 19q-25 0 -25 -31zM440 253v519h96v-518q0 -133 -52.5 -196.5t-184.5 -63.5t-185.5 63.5t-53.5 196.5v517
h96v-518q0 -96 28.5 -133t114.5 -37t113.5 37t27.5 133z" />
    <glyph glyph-name="uni1EE7" unicode="&#x1ee7;" horiz-adv-x="571" 
d="M260 722h-61q0 41 18 62.5t69 21.5q86 0 86 -68q0 -26 -8 -38.5t-25 -23.5q-11 -7 -15 -15t-3 -27h-64q0 21 0.5 30.5t4.5 19.5t13 16q1 1 16 12t15 22q0 19 -21 19q-25 0 -25 -31zM501 581v-581h-85l-6 62q-42 -69 -150 -69q-100 0 -147 48.5t-47 162.5v377h96v-376
q0 -61 30.5 -93t83.5 -32q57 0 93 32t36 92v377h96z" />
    <glyph glyph-name="uni1EE8" unicode="&#x1ee8;" horiz-adv-x="602" 
d="M424 929l-92 -116h-69v8l67 117h94v-9zM440 253v519h80q22 7 22 50v7h79v-7q0 -98 -85 -110v-458q0 -133 -52.5 -196.5t-184.5 -63.5t-185.5 63.5t-53.5 196.5v517h96v-518q0 -96 28.5 -133t114.5 -37t113.5 37t27.5 133z" />
    <glyph glyph-name="uni1EE9" unicode="&#x1ee9;" horiz-adv-x="571" 
d="M423 750l-92 -116h-69v8l67 117h94v-9zM586 639v-7q0 -98 -85 -110v-522h-85l-6 62q-42 -69 -150 -69q-100 0 -147 48.5t-47 162.5v377h96v-376q0 -61 30.5 -93t83.5 -32q57 0 93 32t36 92v377h76q26 7 26 51v7h79z" />
    <glyph glyph-name="uni1EEA" unicode="&#x1eea;" horiz-adv-x="602" 
d="M289 813l-92 116v9h94l67 -117v-8h-69zM440 253v519h80q22 7 22 50v7h79v-7q0 -98 -85 -110v-458q0 -133 -52.5 -196.5t-184.5 -63.5t-185.5 63.5t-53.5 196.5v517h96v-518q0 -96 28.5 -133t114.5 -37t113.5 37t27.5 133z" />
    <glyph glyph-name="uni1EEB" unicode="&#x1eeb;" horiz-adv-x="571" 
d="M285 634l-92 116v9h94l67 -117v-8h-69zM586 639v-7q0 -98 -85 -110v-522h-85l-6 62q-42 -69 -150 -69q-100 0 -147 48.5t-47 162.5v377h96v-376q0 -61 30.5 -93t83.5 -32q57 0 93 32t36 92v377h76q26 7 26 51v7h79z" />
    <glyph glyph-name="uni1EEC" unicode="&#x1eec;" horiz-adv-x="602" 
d="M274 901h-61q0 41 18 62.5t69 21.5q86 0 86 -68q0 -26 -8 -38.5t-25 -23.5q-11 -7 -15 -15t-3 -27h-64q0 21 0.5 30.5t4.5 19.5t13 16q1 1 16 12t15 22q0 19 -21 19q-25 0 -25 -31zM440 253v519h80q22 7 22 50v7h79v-7q0 -98 -85 -110v-458q0 -133 -52.5 -196.5
t-184.5 -63.5t-185.5 63.5t-53.5 196.5v517h96v-518q0 -96 28.5 -133t114.5 -37t113.5 37t27.5 133z" />
    <glyph glyph-name="uni1EED" unicode="&#x1eed;" horiz-adv-x="571" 
d="M260 722h-61q0 41 18 62.5t69 21.5q86 0 86 -68q0 -26 -8 -38.5t-25 -23.5q-11 -7 -15 -15t-3 -27h-64q0 21 0.5 30.5t4.5 19.5t13 16q1 1 16 12t15 22q0 19 -21 19q-25 0 -25 -31zM586 639v-7q0 -98 -85 -110v-522h-85l-6 62q-42 -69 -150 -69q-100 0 -147 48.5
t-47 162.5v377h96v-376q0 -61 30.5 -93t83.5 -32q57 0 93 32t36 92v377h76q26 7 26 51v7h79z" />
    <glyph glyph-name="uni1EEE" unicode="&#x1eee;" horiz-adv-x="602" 
d="M222 814l-55 26q11 45 45.5 65.5t76.5 5.5l45 -21q38 -14 51 26l57 -23q-10 -51 -44 -70t-72 -4l-44 20q-45 16 -60 -25zM440 253v519h80q22 7 22 50v7h79v-7q0 -98 -85 -110v-458q0 -133 -52.5 -196.5t-184.5 -63.5t-185.5 63.5t-53.5 196.5v517h96v-518
q0 -96 28.5 -133t114.5 -37t113.5 37t27.5 133z" />
    <glyph glyph-name="uni1EEF" unicode="&#x1eef;" horiz-adv-x="571" 
d="M214 642l-55 26q11 45 45.5 65.5t76.5 5.5l45 -21q38 -14 51 26l57 -23q-10 -51 -44 -70t-72 -4l-44 20q-45 16 -60 -25zM586 639v-7q0 -98 -85 -110v-522h-85l-6 62q-42 -69 -150 -69q-100 0 -147 48.5t-47 162.5v377h96v-376q0 -61 30.5 -93t83.5 -32q57 0 93 32t36 92
v377h76q26 7 26 51v7h79z" />
    <glyph glyph-name="uni1EF0" unicode="&#x1ef0;" horiz-adv-x="602" 
d="M231 -121q0 35 29 49.5t57.5 0.5t28.5 -50q0 -34 -29 -48.5t-57.5 -1t-28.5 49.5zM440 253v519h80q22 7 22 50v7h79v-7q0 -98 -85 -110v-458q0 -133 -52.5 -196.5t-184.5 -63.5t-185.5 63.5t-53.5 196.5v517h96v-518q0 -96 28.5 -133t114.5 -37t113.5 37t27.5 133z" />
    <glyph glyph-name="uni1EF1" unicode="&#x1ef1;" horiz-adv-x="571" 
d="M205 -121q0 26 18 41t39.5 15.5t39.5 -14.5t18 -42q0 -34 -29 -48.5t-57.5 -1t-28.5 49.5zM586 639v-7q0 -98 -85 -110v-522h-85l-6 62q-42 -69 -150 -69q-100 0 -147 48.5t-47 162.5v377h96v-376q0 -61 30.5 -93t83.5 -32q57 0 93 32t36 92v377h76q26 7 26 51v7h79z" />
    <glyph glyph-name="Ygrave" unicode="&#x1ef2;" horiz-adv-x="461" 
d="M217 813l-92 116v9h94l67 -117v-8h-69zM163 622l68 -192l68 192l62 150h103l-186 -449v-324h-95v324l-185 449h103z" />
    <glyph glyph-name="ygrave" unicode="&#x1ef3;" horiz-adv-x="491" 
d="M233 634l-92 116v9h94l67 -117v-8h-69zM175 397l75 -271q21 107 73 277l57 182h99l-183 -586l-35 -111q-28 -88 -79 -112t-134 10l17 81q18 -7 32 -10t30 0t28.5 17.5t21.5 41.5l24 83l-186 586h104z" />
    <glyph glyph-name="uni1EF4" unicode="&#x1ef4;" horiz-adv-x="461" 
d="M174 -121q0 35 29 49.5t57.5 0.5t28.5 -50q0 -34 -29 -48.5t-57.5 -1t-28.5 49.5zM163 622l68 -192l68 192l62 150h103l-186 -449v-324h-95v324l-185 449h103z" />
    <glyph glyph-name="uni1EF5" unicode="&#x1ef5;" horiz-adv-x="491" 
d="M325 -121q0 35 29 49.5t57.5 0.5t28.5 -50q0 -34 -29 -48.5t-57.5 -1t-28.5 49.5zM175 397l75 -271q21 107 73 277l57 182h99l-183 -586l-35 -111q-28 -88 -79 -112t-134 10l17 81q18 -7 32 -10t30 0t28.5 17.5t21.5 41.5l24 83l-186 586h104z" />
    <glyph glyph-name="uni1EF6" unicode="&#x1ef6;" horiz-adv-x="461" 
d="M205 901h-61q0 41 18 62.5t69 21.5q86 0 86 -68q0 -26 -8 -38.5t-25 -23.5q-11 -7 -15 -15t-3 -27h-64q0 21 0.5 30.5t4.5 19.5t13 16q1 1 16 12t15 22q0 19 -21 19q-25 0 -25 -31zM163 622l68 -192l68 192l62 150h103l-186 -449v-324h-95v324l-185 449h103z" />
    <glyph glyph-name="uni1EF7" unicode="&#x1ef7;" horiz-adv-x="491" 
d="M223 722h-61q0 41 18 62.5t69 21.5q86 0 86 -68q0 -26 -8 -38.5t-25 -23.5q-11 -7 -15 -15t-3 -27h-64q0 21 0.5 30.5t4.5 19.5t13 16q1 1 16 12t15 22q0 19 -21 19q-25 0 -25 -31zM175 397l75 -271q21 107 73 277l57 182h99l-183 -586l-35 -111q-28 -88 -79 -112
t-134 10l17 81q18 -7 32 -10t30 0t28.5 17.5t21.5 41.5l24 83l-186 586h104z" />
    <glyph glyph-name="uni1EF8" unicode="&#x1ef8;" horiz-adv-x="461" 
d="M150 814l-55 26q11 45 45.5 65.5t76.5 5.5l45 -21q38 -14 51 26l57 -23q-10 -51 -44 -70t-72 -4l-44 20q-45 16 -60 -25zM163 622l68 -192l68 192l62 150h103l-186 -449v-324h-95v324l-185 449h103z" />
    <glyph glyph-name="uni1EF9" unicode="&#x1ef9;" horiz-adv-x="491" 
d="M168 642l-55 26q11 45 45.5 65.5t76.5 5.5l45 -21q38 -14 51 26l57 -23q-10 -51 -44 -70t-72 -4l-44 20q-45 16 -60 -25zM175 397l75 -271q21 107 73 277l57 182h99l-183 -586l-35 -111q-28 -88 -79 -112t-134 10l17 81q18 -7 32 -10t30 0t28.5 17.5t21.5 41.5l24 83
l-186 586h104z" />
    <glyph glyph-name="endash" unicode="&#x2013;" horiz-adv-x="612" 
d="M77 376h458v-77h-458v77z" />
    <glyph glyph-name="emdash" unicode="&#x2014;" horiz-adv-x="714" 
d="M77 378h560v-77h-560v77z" />
    <glyph glyph-name="quoteleft" unicode="&#x2018;" horiz-adv-x="245" 
d="M193 772l-46 -191h-88l67 191h67z" />
    <glyph glyph-name="quoteright" unicode="&#x2019;" horiz-adv-x="240" 
d="M61 580l47 195h88l-67 -195h-68z" />
    <glyph glyph-name="quotesinglbase" unicode="&#x201a;" horiz-adv-x="252" 
d="M43 -115l46 194h88l-67 -194h-67z" />
    <glyph glyph-name="quotedblleft" unicode="&#x201c;" horiz-adv-x="378" 
d="M180 772l-47 -193h-88l68 193h67zM326 772l-48 -193h-88l68 193h68z" />
    <glyph glyph-name="quotedblright" unicode="&#x201d;" horiz-adv-x="387" 
d="M63 581l47 190h88l-67 -190h-68zM209 581l46 190h88l-67 -190h-67z" />
    <glyph glyph-name="quotedblbase" unicode="&#x201e;" horiz-adv-x="397" 
d="M42 -115l47 194h88l-67 -194h-68zM188 -115l46 194h88l-67 -194h-67z" />
    <glyph glyph-name="dagger" unicode="&#x2020;" horiz-adv-x="578" 
d="M539 507h-206v-557h-87v557h-207v75h207v193h87v-193h206v-75z" />
    <glyph glyph-name="daggerdbl" unicode="&#x2021;" horiz-adv-x="623" 
d="M562 509h-207v-253h207v-75h-207v-234h-87v234h-207v75h207v253h-207v75h207v192h87v-192h207v-75z" />
    <glyph glyph-name="bullet" unicode="&#x2022;" horiz-adv-x="405" 
d="M203 209v1q-49 0 -80.5 30t-31.5 79t31.5 79.5t80.5 30.5q47 0 78.5 -31t31.5 -80t-31.5 -79t-78.5 -30z" />
    <glyph glyph-name="ellipsis" unicode="&#x2026;" horiz-adv-x="591" 
d="M50 49q0 35 29 49.5t57.5 0.5t28.5 -50q0 -34 -28.5 -48.5t-57.5 -1t-29 49.5zM241 49q0 35 29 49.5t57.5 0.5t28.5 -50q0 -34 -29 -48.5t-57.5 -1t-28.5 49.5zM432 49q0 35 29 49.5t57.5 0.5t28.5 -50q0 -34 -28.5 -48.5t-57.5 -1t-29 49.5z" />
    <glyph glyph-name="perthousand" unicode="&#x2030;" horiz-adv-x="1141" 
d="M599 0q-75 0 -110.5 36t-35.5 112v86q0 148 146 148q76 0 112 -36t36 -112v-86q0 -76 -36 -112t-112 -36zM599 73q38 0 52.5 19.5t14.5 59.5v80q0 40 -14 58.5t-53 18.5q-37 0 -51.5 -19t-14.5 -58v-80q0 -40 14.5 -59.5t51.5 -19.5zM458 779h72l-225 -793h-74zM176 395
q-75 0 -110.5 36t-35.5 112v86q0 148 146 148q76 0 112 -36t36 -112v-86q0 -76 -36 -112t-112 -36zM176 468q38 0 52.5 19.5t14.5 59.5v80q0 40 -14 58.5t-53 18.5q-37 0 -51.5 -19t-14.5 -58v-80q0 -40 14.5 -59.5t51.5 -19.5zM961 0q-75 0 -110.5 36t-35.5 112v86
q0 148 146 148q76 0 112 -36t36 -112v-86q0 -76 -36 -112t-112 -36zM961 73q38 0 52.5 19.5t14.5 59.5v80q0 40 -14 58.5t-53 18.5q-37 0 -51.5 -19t-14.5 -58v-80q0 -40 14.5 -59.5t51.5 -19.5z" />
    <glyph glyph-name="guilsinglleft" unicode="&#x2039;" horiz-adv-x="326" 
d="M49 298l138 220h88l-137 -220l137 -221h-88z" />
    <glyph glyph-name="guilsinglright" unicode="&#x203a;" horiz-adv-x="328" 
d="M190 297l-137 220h88l138 -220l-138 -221h-88z" />
    <glyph glyph-name="fraction" unicode="&#x2044;" horiz-adv-x="163" 
d="M-133 -3l356 778h94l-356 -778h-94z" />
    <glyph glyph-name="Euro" unicode="&#x20ac;" horiz-adv-x="537" 
d="M504 11v-3q-53 -22 -102 -22q-76 0 -131 20t-89.5 60t-54 90t-30.5 119h-68v76h59q-1 4 -1 29q0 22 1 33h-60v77h69q21 132 96 211.5t208 79.5q41 0 88 -18l-22 -80q-29 11 -64 11q-52 0 -90 -14t-62 -42.5t-38 -63t-25 -84.5h216l-15 -77h-216v-31v-28h203l-12 -76h-177
q19 -103 64.5 -153t151.5 -50q41 0 80 19z" />
    <glyph glyph-name="trademark" unicode="&#x2122;" horiz-adv-x="502" 
d="M204 768v-54h-61v-262h-57v262h-61v54h179zM244 451v318h69l42 -124l42 124h69v-318h-56v106l5 91l-47 -141h-26l-47 141l5 -91v-106h-56z" />
    <glyph glyph-name="fi" unicode="&#xfb01;" horiz-adv-x="543" 
d="M3 472v85h81v22q0 117 58 162t165 38v-87q-67 6 -97.5 -15.5t-30.5 -97.5v-20h293v-559h-95v472h-198v-473h-95v473h-81zM369 690q0 35 29 49.5t57.5 0.5t28.5 -50q0 -34 -29 -48.5t-57.5 -1t-28.5 49.5z" />
    <glyph glyph-name="fl" unicode="&#xfb02;" horiz-adv-x="555" 
d="M59 -1v564q0 117 63.5 171t173.5 44v-87q-71 7 -106.5 -20t-35.5 -108v-20h125v-88h-125v-456h-95zM372 152v620h93v-619q0 -34 13.5 -46.5t46.5 -12.5v-94q-88 0 -120.5 31t-32.5 121z" />
    <glyph glyph-name="a.alt" horiz-adv-x="556" 
d="M495 380v-380h-80l-12 77q-12 -33 -48 -56.5t-89 -23.5q-203 0 -203 201v182q0 108 59 158t159 50q214 0 214 -208zM400 380q0 68 -31.5 94t-87.5 26q-59 0 -90.5 -30.5t-31.5 -89.5v-171q0 -66 27 -94.5t80 -28.5q66 0 100 33.5t34 119.5v141z" />
    <glyph glyph-name="aacute.alt" horiz-adv-x="556" 
d="M495 380v-380h-80l-12 77q-12 -33 -48 -56.5t-89 -23.5q-203 0 -203 201v182q0 108 59 158t159 50q214 0 214 -208zM400 380q0 68 -31.5 94t-87.5 26q-59 0 -90.5 -30.5t-31.5 -89.5v-171q0 -66 27 -94.5t80 -28.5q66 0 100 33.5t34 119.5v141zM412 750l-92 -116h-69v8
l67 117h94v-9z" />
    <glyph glyph-name="abreve.alt" horiz-adv-x="556" 
d="M495 380v-380h-80l-12 77q-12 -33 -48 -56.5t-89 -23.5q-203 0 -203 201v182q0 108 59 158t159 50q214 0 214 -208zM400 380q0 68 -31.5 94t-87.5 26q-59 0 -90.5 -30.5t-31.5 -89.5v-171q0 -66 27 -94.5t80 -28.5q66 0 100 33.5t34 119.5v141zM308 635q-66 0 -95.5 27.5
t-26.5 89.5h68q0 -29 10 -41.5t44 -12.5q33 0 42.5 12t9.5 42h68q3 -62 -25.5 -89.5t-94.5 -27.5z" />
    <glyph glyph-name="acircumflex.alt" horiz-adv-x="555" 
d="M495 380v-380h-80l-12 77q-12 -33 -48 -56.5t-89 -23.5q-203 0 -203 201v182q0 108 59 158t159 50q214 0 214 -208zM400 380q0 68 -31.5 94t-87.5 26q-59 0 -90.5 -30.5t-31.5 -89.5v-171q0 -66 27 -94.5t80 -28.5q66 0 100 33.5t34 119.5v141zM261 759h71l102 -118v-7
h-85l-50 57l-51 -57h-85v7z" />
    <glyph glyph-name="adieresis.alt" horiz-adv-x="554" 
d="M495 380v-380h-80l-12 77q-12 -33 -48 -56.5t-89 -23.5q-203 0 -203 201v182q0 108 59 158t159 50q214 0 214 -208zM400 380q0 68 -31.5 94t-87.5 26q-59 0 -90.5 -30.5t-31.5 -89.5v-171q0 -66 27 -94.5t80 -28.5q66 0 100 33.5t34 119.5v141zM124 720q0 35 29 49.5
t57.5 0.5t28.5 -50q0 -34 -28.5 -48.5t-57.5 -1t-29 49.5zM342 720q0 35 29 49.5t57.5 0.5t28.5 -50q0 -34 -29 -48.5t-57.5 -1t-28.5 49.5z" />
    <glyph glyph-name="agrave.alt" horiz-adv-x="556" 
d="M495 380v-380h-80l-12 77q-12 -33 -48 -56.5t-89 -23.5q-203 0 -203 201v182q0 108 59 158t159 50q214 0 214 -208zM400 380q0 68 -31.5 94t-87.5 26q-59 0 -90.5 -30.5t-31.5 -89.5v-171q0 -66 27 -94.5t80 -28.5q66 0 100 33.5t34 119.5v141zM279 634l-92 116v9h94
l67 -117v-8h-69z" />
    <glyph glyph-name="amacron.alt" horiz-adv-x="554" 
d="M495 380v-380h-80l-12 77q-12 -33 -48 -56.5t-89 -23.5q-203 0 -203 201v182q0 108 59 158t159 50q214 0 214 -208zM400 380q0 68 -31.5 94t-87.5 26q-59 0 -90.5 -30.5t-31.5 -89.5v-171q0 -66 27 -94.5t80 -28.5q66 0 100 33.5t34 119.5v141zM170 775h246v-79h-246v79z
" />
    <glyph glyph-name="aogonek.alt" horiz-adv-x="555" 
d="M415 0l-12 77q-12 -33 -48 -56.5t-89 -23.5q-203 0 -203 201v182q0 108 59 158t159 50q214 0 214 -208v-380q-34 -13 -52.5 -36t-18.5 -37q0 -33 35 -33q20 0 36 2v-85q-160 -9 -160 85q0 62 80 104zM400 380q0 68 -31.5 94t-87.5 26q-59 0 -90.5 -30.5t-31.5 -89.5v-171
q0 -66 27 -94.5t80 -28.5q66 0 100 33.5t34 119.5v141z" />
    <glyph glyph-name="aring.alt" horiz-adv-x="556" 
d="M495 380v-380h-80l-12 77q-12 -33 -48 -56.5t-89 -23.5q-203 0 -203 201v182q0 108 59 158t159 50q214 0 214 -208zM400 380q0 68 -31.5 94t-87.5 26q-59 0 -90.5 -30.5t-31.5 -89.5v-171q0 -66 27 -94.5t80 -28.5q66 0 100 33.5t34 119.5v141zM186 730q0 44 31 69t75 25
q43 0 75.5 -25t32.5 -69t-31.5 -69.5t-77.5 -25.5t-76 25.5t-29 69.5zM292 770q-28 0 -40 -20t0 -40.5t40 -20.5q30 0 42 20.5t-0.5 40.5t-41.5 20z" />
    <glyph glyph-name="aringacute.alt" horiz-adv-x="555" 
d="M304 905h95l-63 -84h-73v3zM188 708v-2q0 -41 29.5 -64.5t74.5 -23.5q44 0 74 23.5t30 65.5q0 41 -31 64.5t-73 23.5q-43 0 -73.5 -23t-30.5 -64zM291 744h-1q29 0 41 -19t0.5 -38.5t-40.5 -19.5q-28 0 -40 19.5t0 38.5t40 19zM495 380v-380h-80l-12 77
q-12 -33 -48 -56.5t-89 -23.5q-203 0 -203 201v182q0 108 59 158t159 50q214 0 214 -208zM400 380q0 68 -31.5 94t-87.5 26q-59 0 -90.5 -30.5t-31.5 -89.5v-171q0 -66 27 -94.5t80 -28.5q66 0 100 33.5t34 119.5v141z" />
    <glyph glyph-name="atilde.alt" horiz-adv-x="553" 
d="M495 380v-380h-80l-12 77q-12 -33 -48 -56.5t-89 -23.5q-203 0 -203 201v182q0 108 59 158t159 50q214 0 214 -208zM400 380q0 68 -31.5 94t-87.5 26q-59 0 -90.5 -30.5t-31.5 -89.5v-171q0 -66 27 -94.5t80 -28.5q66 0 100 33.5t34 119.5v141zM217 642l-55 26
q11 45 45.5 65.5t76.5 5.5l45 -21q38 -14 51 26l57 -23q-10 -51 -44 -70t-72 -4l-44 20q-45 16 -60 -25z" />
    <glyph glyph-name="g.alt" horiz-adv-x="586" 
d="M59 -105l49 71q62 -75 164 -75q68 0 113.5 26.5t45.5 86.5q0 53 -25 85q-75 -25 -140 -23t-112.5 26t-75 80.5t-27.5 140.5v29q0 129 56 189t173 60q95 0 150 -37q17 23 49.5 37t69.5 14l14 -83q-47 -8 -75 -37q21 -49 21 -146v-25q0 -100 -42 -166q62 -57 62 -141
q0 -207 -256 -207q-138 0 -214 95zM280 156q75 0 104 41.5t29 126.5v12q0 85 -29 126.5t-104 41.5t-104 -41.5t-29 -126.5v-12q0 -85 29 -126.5t104 -41.5z" />
    <glyph glyph-name="gbreve.alt" horiz-adv-x="585" 
d="M59 -105l49 71q62 -75 164 -75q68 0 113.5 26.5t45.5 86.5q0 53 -25 85q-75 -25 -140 -23t-112.5 26t-75 80.5t-27.5 140.5v29q0 129 56 189t173 60q95 0 150 -37q17 23 49.5 37t69.5 14l14 -83q-47 -8 -75 -37q21 -49 21 -146v-25q0 -100 -42 -166q62 -57 62 -141
q0 -207 -256 -207q-138 0 -214 95zM280 156q75 0 104 41.5t29 126.5v12q0 85 -29 126.5t-104 41.5t-104 -41.5t-29 -126.5v-12q0 -85 29 -126.5t104 -41.5zM288 648q-133 0 -127 131h71q0 -33 11 -49t45 -16t44.5 16t10.5 49h71q6 -131 -126 -131z" />
    <glyph glyph-name="gcircumflex.alt" horiz-adv-x="585" 
d="M59 -105l49 71q62 -75 164 -75q68 0 113.5 26.5t45.5 86.5q0 53 -25 85q-75 -25 -140 -23t-112.5 26t-75 80.5t-27.5 140.5v29q0 129 56 189t173 60q95 0 150 -37q17 23 49.5 37t69.5 14l14 -83q-47 -8 -75 -37q21 -49 21 -146v-25q0 -100 -42 -166q62 -57 62 -141
q0 -207 -256 -207q-138 0 -214 95zM280 156q75 0 104 41.5t29 126.5v12q0 85 -29 126.5t-104 41.5t-104 -41.5t-29 -126.5v-12q0 -85 29 -126.5t104 -41.5zM258 780h57l124 -122v-7h-93l-57 57l-58 -57h-93v7z" />
    <glyph glyph-name="gcommaaccent.alt" horiz-adv-x="585" 
d="M59 -105l49 71q62 -75 164 -75q68 0 113.5 26.5t45.5 86.5q0 53 -25 85q-75 -25 -140 -23t-112.5 26t-75 80.5t-27.5 140.5v29q0 129 56 189t173 60q95 0 150 -37q17 23 49.5 37t69.5 14l14 -83q-47 -8 -75 -37q21 -49 21 -146v-25q0 -100 -42 -166q62 -57 62 -141
q0 -207 -256 -207q-138 0 -214 95zM280 156q75 0 104 41.5t29 126.5v12q0 85 -29 126.5t-104 41.5t-104 -41.5t-29 -126.5v-12q0 -85 29 -126.5t104 -41.5zM365 831l33 -42q-44 -24 -55.5 -52.5t-11.5 -81.5h-93q0 71 28.5 110t98.5 66z" />
    <glyph glyph-name="gdotaccent.alt" horiz-adv-x="585" 
d="M229 723q0 21 12.5 36t30 18t35 -0.5t30 -18t12.5 -36.5q0 -21 -12.5 -36t-30 -18t-35 0.5t-30 18t-12.5 36.5zM59 -105l49 71q62 -75 164 -75q68 0 113.5 26.5t45.5 86.5q0 53 -25 85q-75 -25 -140 -23t-112.5 26t-75 80.5t-27.5 140.5v29q0 129 56 189t173 60
q95 0 150 -37q17 23 49.5 37t69.5 14l14 -83q-47 -8 -75 -37q21 -49 21 -146v-25q0 -100 -42 -166q62 -57 62 -141q0 -207 -256 -207q-138 0 -214 95zM280 156q75 0 104 41.5t29 126.5v12q0 85 -29 126.5t-104 41.5t-104 -41.5t-29 -126.5v-12q0 -85 29 -126.5t104 -41.5z
" />
    <glyph glyph-name="y.alt" horiz-adv-x="583" 
d="M404 584h95v-604q0 -115 -57 -169t-159 -54q-97 0 -148 40.5t-55 133.5h90q4 -49 33 -68t81 -19q62 0 94 30.5t32 105.5v96q-12 -32 -49 -55.5t-91 -23.5q-203 0 -203 201v386h96v-375q0 -66 27 -94.5t80 -28.5q66 0 100 33.5t34 119.5v345z" />
    <glyph glyph-name="yacute.alt" horiz-adv-x="583" 
d="M404 584h95v-604q0 -115 -57 -169t-159 -54q-97 0 -148 40.5t-55 133.5h90q4 -49 33 -68t81 -19q62 0 94 30.5t32 105.5v96q-12 -32 -49 -55.5t-91 -23.5q-203 0 -203 201v386h96v-375q0 -66 27 -94.5t80 -28.5q66 0 100 33.5t34 119.5v345zM412 750l-92 -116h-69v8
l67 117h94v-9z" />
    <glyph glyph-name="ycircumflex.alt" horiz-adv-x="581" 
d="M404 584h95v-604q0 -115 -57 -169t-159 -54q-97 0 -148 40.5t-55 133.5h90q4 -49 33 -68t81 -19q62 0 94 30.5t32 105.5v96q-12 -32 -49 -55.5t-91 -23.5q-203 0 -203 201v386h96v-375q0 -66 27 -94.5t80 -28.5q66 0 100 33.5t34 119.5v345zM253 776h57l124 -122v-7h-93
l-57 57l-58 -57h-93v7z" />
    <glyph glyph-name="ydieresis.alt" horiz-adv-x="583" 
d="M404 584h95v-604q0 -115 -57 -169t-159 -54q-97 0 -148 40.5t-55 133.5h90q4 -49 33 -68t81 -19q62 0 94 30.5t32 105.5v96q-12 -32 -49 -55.5t-91 -23.5q-203 0 -203 201v386h96v-375q0 -66 27 -94.5t80 -28.5q66 0 100 33.5t34 119.5v345zM128 720q0 35 29 49.5
t57.5 0.5t28.5 -50q0 -34 -28.5 -48.5t-57.5 -1t-29 49.5zM346 720q0 35 29 49.5t57.5 0.5t28.5 -50q0 -34 -29 -48.5t-57.5 -1t-28.5 49.5z" />
    <glyph glyph-name="ygrave.alt" horiz-adv-x="583" 
d="M404 584h95v-604q0 -115 -57 -169t-159 -54q-97 0 -148 40.5t-55 133.5h90q4 -49 33 -68t81 -19q62 0 94 30.5t32 105.5v96q-12 -32 -49 -55.5t-91 -23.5q-203 0 -203 201v386h96v-375q0 -66 27 -94.5t80 -28.5q66 0 100 33.5t34 119.5v345zM276 634l-92 116v9h94
l67 -117v-8h-69z" />
    <glyph glyph-name="_0004" horiz-adv-x="0" 
 />
    <glyph glyph-name="uni1EA1.alt" horiz-adv-x="556" 
d="M495 380v-380h-80l-12 77q-12 -33 -48 -56.5t-89 -23.5q-203 0 -203 201v182q0 108 59 158t159 50q214 0 214 -208zM400 380q0 68 -31.5 94t-87.5 26q-59 0 -90.5 -30.5t-31.5 -89.5v-171q0 -66 27 -94.5t80 -28.5q66 0 100 33.5t34 119.5v141zM215 -121q0 26 18 41
t39.5 15.5t39.5 -14.5t18 -42q0 -34 -29 -48.5t-57.5 -1t-28.5 49.5z" />
    <glyph glyph-name="uni1EA3.alt" horiz-adv-x="556" 
d="M495 380v-380h-80l-12 77q-12 -33 -48 -56.5t-89 -23.5q-203 0 -203 201v182q0 108 59 158t159 50q214 0 214 -208zM400 380q0 68 -31.5 94t-87.5 26q-59 0 -90.5 -30.5t-31.5 -89.5v-171q0 -66 27 -94.5t80 -28.5q66 0 100 33.5t34 119.5v141zM268 722h-61q0 41 18 62.5
t69 21.5q86 0 86 -68q0 -26 -8 -38.5t-25 -23.5q-11 -7 -15 -15t-3 -27h-64q0 21 0.5 30.5t4.5 19.5t13 16q1 1 16 12t15 22q0 19 -21 19q-25 0 -25 -31z" />
    <glyph glyph-name="uni1EA5.alt" horiz-adv-x="555" 
d="M495 380v-380h-80l-12 77q-12 -33 -48 -56.5t-89 -23.5q-203 0 -203 201v182q0 108 59 158t159 50q214 0 214 -208zM400 380q0 68 -31.5 94t-87.5 26q-59 0 -90.5 -30.5t-31.5 -89.5v-171q0 -66 27 -94.5t80 -28.5q66 0 100 33.5t34 119.5v141zM261 759h71l102 -118v-7
h-85l-50 57l-51 -57h-85v7zM548 842l-92 -116h-69v8l67 117h94v-9z" />
    <glyph glyph-name="uni1EA7.alt" horiz-adv-x="555" 
d="M495 380v-380h-80l-12 77q-12 -33 -48 -56.5t-89 -23.5q-203 0 -203 201v182q0 108 59 158t159 50q214 0 214 -208zM400 380q0 68 -31.5 94t-87.5 26q-59 0 -90.5 -30.5t-31.5 -89.5v-171q0 -66 27 -94.5t80 -28.5q66 0 100 33.5t34 119.5v141zM261 759h71l102 -118v-7
h-85l-50 57l-51 -57h-85v7zM402 726l-92 116v9h94l67 -117v-8h-69z" />
    <glyph glyph-name="uni1EA9.alt" horiz-adv-x="555" 
d="M495 380v-380h-80l-12 77q-12 -33 -48 -56.5t-89 -23.5q-203 0 -203 201v182q0 108 59 158t159 50q214 0 214 -208zM400 380q0 68 -31.5 94t-87.5 26q-59 0 -90.5 -30.5t-31.5 -89.5v-171q0 -66 27 -94.5t80 -28.5q66 0 100 33.5t34 119.5v141zM261 759h71l102 -118v-7
h-85l-50 57l-51 -57h-85v7zM390 814h-61q0 41 18 62.5t69 21.5q86 0 86 -68q0 -26 -8 -38.5t-25 -23.5q-11 -7 -15 -15t-3 -27h-64q0 21 0.5 30.5t4.5 19.5t13 16q1 1 16 12t15 22q0 19 -21 19q-25 0 -25 -31z" />
    <glyph glyph-name="uni1EAB.alt" horiz-adv-x="555" 
d="M495 380v-380h-80l-12 77q-12 -33 -48 -56.5t-89 -23.5q-203 0 -203 201v182q0 108 59 158t159 50q214 0 214 -208zM400 380q0 68 -31.5 94t-87.5 26q-59 0 -90.5 -30.5t-31.5 -89.5v-171q0 -66 27 -94.5t80 -28.5q66 0 100 33.5t34 119.5v141zM261 759h71l102 -118v-7
h-85l-50 57l-51 -57h-85v7zM222 777l-53 25q11 44 44.5 63.5t73.5 5.5l44 -21q38 -14 50 25l55 -22q-10 -49 -43 -67.5t-70 -4.5l-42 21q-44 16 -59 -25z" />
    <glyph glyph-name="uni1EAD.alt" horiz-adv-x="555" 
d="M495 380v-380h-80l-12 77q-12 -33 -48 -56.5t-89 -23.5q-203 0 -203 201v182q0 108 59 158t159 50q214 0 214 -208zM400 380q0 68 -31.5 94t-87.5 26q-59 0 -90.5 -30.5t-31.5 -89.5v-171q0 -66 27 -94.5t80 -28.5q66 0 100 33.5t34 119.5v141zM261 759h71l102 -118v-7
h-85l-50 57l-51 -57h-85v7zM215 -121q0 26 18 41t39.5 15.5t39.5 -14.5t18 -42q0 -34 -29 -48.5t-57.5 -1t-28.5 49.5z" />
    <glyph glyph-name="uni1EAF.alt" horiz-adv-x="556" 
d="M495 380v-380h-80l-12 77q-12 -33 -48 -56.5t-89 -23.5q-203 0 -203 201v182q0 108 59 158t159 50q214 0 214 -208zM400 380q0 68 -31.5 94t-87.5 26q-59 0 -90.5 -30.5t-31.5 -89.5v-171q0 -66 27 -94.5t80 -28.5q66 0 100 33.5t34 119.5v141zM308 635q-66 0 -95.5 27.5
t-26.5 89.5h68q0 -29 10 -41.5t44 -12.5q33 0 42.5 12t9.5 42h68q3 -62 -25.5 -89.5t-94.5 -27.5zM432 886l-92 -116h-69v8l67 117h94v-9z" />
    <glyph glyph-name="uni1EB1.alt" horiz-adv-x="556" 
d="M495 380v-380h-80l-12 77q-12 -33 -48 -56.5t-89 -23.5q-203 0 -203 201v182q0 108 59 158t159 50q214 0 214 -208zM400 380q0 68 -31.5 94t-87.5 26q-59 0 -90.5 -30.5t-31.5 -89.5v-171q0 -66 27 -94.5t80 -28.5q66 0 100 33.5t34 119.5v141zM308 635q-66 0 -95.5 27.5
t-26.5 89.5h68q0 -29 10 -41.5t44 -12.5q33 0 42.5 12t9.5 42h68q3 -62 -25.5 -89.5t-94.5 -27.5zM277 770l-92 116v9h94l67 -117v-8h-69z" />
    <glyph glyph-name="uni1EB3.alt" horiz-adv-x="556" 
d="M495 380v-380h-80l-12 77q-12 -33 -48 -56.5t-89 -23.5q-203 0 -203 201v182q0 108 59 158t159 50q214 0 214 -208zM400 380q0 68 -31.5 94t-87.5 26q-59 0 -90.5 -30.5t-31.5 -89.5v-171q0 -66 27 -94.5t80 -28.5q66 0 100 33.5t34 119.5v141zM308 635q-66 0 -95.5 27.5
t-26.5 89.5h68q0 -29 10 -41.5t44 -12.5q33 0 42.5 12t9.5 42h68q3 -62 -25.5 -89.5t-94.5 -27.5zM280 858h-61q0 41 18 62.5t69 21.5q86 0 86 -68q0 -26 -8 -38.5t-25 -23.5q-11 -7 -15 -15t-3 -27h-64q0 21 0.5 30.5t4.5 19.5t13 16q1 1 16 12t15 22q0 19 -21 19
q-25 0 -25 -31z" />
    <glyph glyph-name="uni1EB5.alt" horiz-adv-x="556" 
d="M495 380v-380h-80l-12 77q-12 -33 -48 -56.5t-89 -23.5q-203 0 -203 201v182q0 108 59 158t159 50q214 0 214 -208zM400 380q0 68 -31.5 94t-87.5 26q-59 0 -90.5 -30.5t-31.5 -89.5v-171q0 -66 27 -94.5t80 -28.5q66 0 100 33.5t34 119.5v141zM308 635q-66 0 -95.5 27.5
t-26.5 89.5h68q0 -29 10 -41.5t44 -12.5q33 0 42.5 12t9.5 42h68q3 -62 -25.5 -89.5t-94.5 -27.5zM228 776l-52 26q10 45 42.5 65.5t72.5 5.5l42 -21q36 -14 48 26l54 -23q-9 -51 -41.5 -70t-67.5 -4l-42 20q-42 17 -56 -25z" />
    <glyph glyph-name="uni1EB7.alt" horiz-adv-x="556" 
d="M495 380v-380h-80l-12 77q-12 -33 -48 -56.5t-89 -23.5q-203 0 -203 201v182q0 108 59 158t159 50q214 0 214 -208zM400 380q0 68 -31.5 94t-87.5 26q-59 0 -90.5 -30.5t-31.5 -89.5v-171q0 -66 27 -94.5t80 -28.5q66 0 100 33.5t34 119.5v141zM308 635q-66 0 -95.5 27.5
t-26.5 89.5h68q0 -29 10 -41.5t44 -12.5q33 0 42.5 12t9.5 42h68q3 -62 -25.5 -89.5t-94.5 -27.5zM215 -121q0 26 18 41t39.5 15.5t39.5 -14.5t18 -42q0 -34 -29 -48.5t-57.5 -1t-28.5 49.5z" />
    <glyph glyph-name="uni1EF5.alt" horiz-adv-x="583" 
d="M404 584h95v-604q0 -115 -57 -169t-159 -54q-97 0 -148 40.5t-55 133.5h90q4 -49 33 -68t81 -19q62 0 94 30.5t32 105.5v96q-12 -32 -49 -55.5t-91 -23.5q-203 0 -203 201v386h96v-375q0 -66 27 -94.5t80 -28.5q66 0 100 33.5t34 119.5v345zM546 -121q0 35 29 49.5
t57.5 0.5t28.5 -50q0 -34 -28.5 -48.5t-57.5 -1t-29 49.5z" />
    <glyph glyph-name="uni1EF7.alt" horiz-adv-x="583" 
d="M404 584h95v-604q0 -115 -57 -169t-159 -54q-97 0 -148 40.5t-55 133.5h90q4 -49 33 -68t81 -19q62 0 94 30.5t32 105.5v96q-12 -32 -49 -55.5t-91 -23.5q-203 0 -203 201v386h96v-375q0 -66 27 -94.5t80 -28.5q66 0 100 33.5t34 119.5v345zM262 722h-61q0 41 18 62.5
t69 21.5q86 0 86 -68q0 -26 -8 -38.5t-25 -23.5q-11 -7 -15 -15t-3 -27h-64q0 21 0.5 30.5t4.5 19.5t13 16q1 1 16 12t15 22q0 19 -21 19q-25 0 -25 -31z" />
    <glyph glyph-name="uni1EF9.alt" horiz-adv-x="583" 
d="M404 584h95v-604q0 -115 -57 -169t-159 -54q-97 0 -148 40.5t-55 133.5h90q4 -49 33 -68t81 -19q62 0 94 30.5t32 105.5v96q-12 -32 -49 -55.5t-91 -23.5q-203 0 -203 201v386h96v-375q0 -66 27 -94.5t80 -28.5q66 0 100 33.5t34 119.5v345zM208 642l-55 26
q11 45 45.5 65.5t76.5 5.5l45 -21q38 -14 51 26l57 -23q-10 -51 -44 -70t-72 -4l-44 20q-45 16 -60 -25z" />
    </font>
</defs>
</svg>
